<svg width="339" height="40" viewBox="0 0 339 40" fill="none" xmlns="http://www.w3.org/2000/svg">
<path d="M174.367 17.842H205.231C207.392 17.842 209.465 16.9838 210.993 15.456C212.522 13.9282 213.381 11.8559 213.383 9.69471C213.383 7.5327 212.524 5.45924 210.995 3.93046C209.466 2.40169 207.393 1.54283 205.231 1.54283H174.367C172.205 1.54283 170.132 2.40169 168.603 3.93046C167.074 5.45924 166.215 7.5327 166.215 9.69471C166.216 11.8559 167.076 13.9282 168.605 15.456C170.133 16.9838 172.206 17.842 174.367 17.842ZM133.769 38.6023H169.246C171.407 38.6023 173.48 37.7441 175.009 36.2163C176.538 34.6885 177.397 32.6162 177.398 30.455C177.398 28.293 176.539 26.2195 175.011 24.6908C173.482 23.162 171.408 22.3031 169.246 22.3031H133.769C131.607 22.3031 129.534 23.162 128.005 24.6908C126.476 26.2195 125.617 28.293 125.617 30.455C125.619 32.6162 126.478 34.6885 128.007 36.2163C129.535 37.7441 131.608 38.6023 133.769 38.6023ZM130.42 17.5467H134.018V4.39853H138.678V1.20605H125.76V4.3893H130.42V17.5467ZM143.384 17.5467H146.982V5.01211H147.028L151.18 17.5375H153.948L158.239 5.01211H158.285V17.5375H161.883V1.20605H156.416L152.633 11.863H152.587L148.827 1.20605H143.384V17.5467ZM195.939 26.8889C195.458 25.8853 194.743 25.012 193.854 24.3423C192.932 23.6679 191.884 23.1848 190.772 22.9213C189.555 22.6171 188.304 22.4622 187.049 22.46H181.652V38.7914H187.534C188.715 38.7971 189.891 38.6181 191.017 38.2609C192.08 37.9373 193.074 37.4178 193.946 36.7292C194.795 36.0404 195.483 35.1744 195.962 34.1919C196.481 33.1002 196.738 31.9031 196.714 30.6949C196.752 29.3835 196.487 28.0811 195.939 26.8889ZM192.512 32.854C192.242 33.4696 191.823 34.0086 191.294 34.4225C190.743 34.8271 190.115 35.113 189.448 35.2622C188.692 35.4364 187.918 35.5216 187.142 35.5159H185.273V25.8278H187.395C188.124 25.8242 188.849 25.922 189.55 26.1184C190.195 26.2923 190.802 26.5849 191.34 26.9811C191.833 27.3693 192.233 27.8626 192.512 28.4251C192.829 29.0738 192.987 29.7886 192.973 30.5104C192.993 31.316 192.836 32.1162 192.512 32.854ZM213.101 32.794C212.938 32.348 212.691 31.9376 212.372 31.5853C212.055 31.235 211.677 30.9457 211.256 30.7318C210.797 30.5 210.303 30.3442 209.793 30.2705V30.2244C210.585 29.9972 211.293 29.5452 211.833 28.9234C212.364 28.2751 212.64 27.4545 212.608 26.6167C212.642 25.8653 212.458 25.1201 212.077 24.4714C211.73 23.9426 211.253 23.5108 210.693 23.2166C210.09 22.9053 209.438 22.7023 208.765 22.6169C208.059 22.516 207.346 22.4651 206.633 22.4646H200.544V38.7961H207.233C207.965 38.7965 208.695 38.7191 209.411 38.5654C210.107 38.4259 210.775 38.1684 211.385 37.8042C211.962 37.4597 212.452 36.9859 212.815 36.4202C213.204 35.769 213.396 35.0191 213.369 34.2611C213.37 33.7611 213.284 33.2647 213.115 32.794H213.101ZM204.142 25.5279H206.587C206.874 25.529 207.159 25.5568 207.441 25.611C207.713 25.66 207.978 25.7486 208.225 25.8739C208.453 25.9983 208.646 26.1774 208.788 26.3952C208.944 26.6468 209.021 26.9392 209.009 27.2349C209.016 27.5242 208.948 27.8103 208.811 28.0653C208.686 28.2892 208.509 28.4793 208.294 28.6189C208.07 28.7606 207.824 28.8621 207.565 28.9188C207.298 28.9818 207.023 29.0128 206.749 29.011H204.142V25.5279ZM209.549 34.7547C209.41 34.9954 209.217 35.2007 208.986 35.3545C208.752 35.5122 208.488 35.622 208.211 35.6774C207.936 35.7395 207.654 35.7704 207.371 35.7697H204.142V32.0789H206.864C207.173 32.0819 207.481 32.105 207.787 32.1481C208.111 32.1927 208.429 32.278 208.732 32.4019C209.015 32.5203 209.264 32.7074 209.457 32.9463C209.657 33.2109 209.76 33.537 209.747 33.8689C209.762 34.1767 209.694 34.4827 209.549 34.7547Z" fill="url(#paint0_linear_2351_64039)"/>
<defs>
<linearGradient id="paint0_linear_2351_64039" x1="125.617" y1="20.0103" x2="213.383" y2="20.0103" gradientUnits="userSpaceOnUse">
<stop stop-color="#90CEA1"/>
<stop offset="0.56" stop-color="#3CBEC9"/>
<stop offset="1" stop-color="#00B3E5"/>
</linearGradient>
</defs>
</svg>
