<svg width="51" height="50" viewBox="0 0 51 50" fill="none" xmlns="http://www.w3.org/2000/svg">
<g clip-path="url(#clip0_334_19827)">
<path d="M26.8893 1.5C33.2793 1.57 39.3493 3.89 44.1293 9.11C50.6193 16.2 51.8293 26.53 47.2593 35.06C41.5193 45.78 28.5893 51.01 16.9693 47.33C2.45926 42.71 -3.49074 26.27 4.70926 13.39C7.31926 9.29 10.8593 6.21 15.2193 4.04C18.6993 2.3 22.3993 1.53 26.8893 1.51V1.5Z" fill="url(#paint0_linear_334_19827)"/>
<path d="M32.4913 19.4099C32.4913 19.5999 32.4913 19.7899 32.4613 19.9799C32.3713 20.7099 32.0213 21.4199 31.1913 21.4099C30.5513 21.4099 30.0713 20.9499 30.0213 20.2499C29.9413 19.3299 29.8813 18.4099 29.8313 17.4799C29.7913 16.8399 30.1313 16.3699 30.6913 16.2399C31.3113 16.0999 31.9213 16.3999 32.0913 17.0399C32.2813 17.7699 32.4813 18.6099 32.4913 19.3999V19.4099Z" fill="#121212"/>
<path d="M18.5117 19.8203C18.5117 18.9803 18.8217 17.9903 18.9817 17.2903C19.1717 16.4903 19.9017 16.0703 20.6617 16.2503C21.4217 16.4303 21.7217 17.0203 21.5317 17.8503C21.3817 18.4903 21.2917 19.1403 21.1717 19.7803C21.1317 19.9803 21.1017 20.1903 21.0417 20.3803C20.6917 21.4503 19.0217 21.6603 18.6217 20.4903C18.5517 20.2903 18.5217 20.0603 18.5217 19.8103L18.5117 19.8203Z" fill="#121212"/>
<path d="M16.9996 21.3399C16.5296 21.2899 15.5296 22.1699 15.3096 22.3699C14.7296 22.8799 14.2696 23.4599 13.8796 24.1199C13.1096 25.3999 14.9296 27.0099 16.0696 25.9899C16.6796 25.4599 16.9196 24.6199 17.0696 23.8499C17.2096 23.1199 17.4996 22.2699 17.2196 21.5399C17.1996 21.4899 17.1796 21.4399 17.1296 21.3999C17.0896 21.3699 17.0496 21.3499 16.9896 21.3399H16.9996Z" fill="white"/>
<path d="M33.3283 29.2498C29.7583 23.0498 17.7783 23.2098 16.6483 31.1598C16.4583 32.8598 17.6883 34.3298 19.4083 34.4198C21.2383 34.5098 22.9683 33.4398 24.7883 33.4798C26.6083 33.2998 28.4983 34.0798 30.0983 34.7398C30.4083 34.8498 31.0283 34.9598 31.2183 34.9398C34.1283 34.9198 34.6983 31.5298 33.4183 29.3998L33.3283 29.2498Z" fill="#121212"/>
</g>
<defs>
<linearGradient id="paint0_linear_334_19827" x1="25.4985" y1="1.5" x2="25.4985" y2="48.502" gradientUnits="userSpaceOnUse">
<stop stop-color="#909090"/>
<stop offset="1" stop-color="#737373"/>
</linearGradient>
<clipPath id="clip0_334_19827">
<rect width="50" height="50" fill="white" transform="translate(0.5)"/>
</clipPath>
</defs>
</svg>
