<svg width="51" height="50" viewBox="0 0 51 50" fill="none" xmlns="http://www.w3.org/2000/svg">
<g clip-path="url(#clip0_334_20395)">
<path d="M26.8893 1.5C33.2793 1.57 39.3493 3.89 44.1293 9.11C50.6193 16.2 51.8293 26.53 47.2593 35.06C41.5193 45.78 28.5893 51.01 16.9693 47.33C2.45926 42.71 -3.49074 26.27 4.70926 13.39C7.31926 9.29 10.8593 6.21 15.2193 4.04C18.6993 2.3 22.3993 1.53 26.8893 1.51V1.5Z" fill="url(#paint0_linear_334_20395)"/>
<path d="M17.2188 16.1704C17.2188 15.7704 17.2388 15.4204 17.2588 15.1904C17.3088 14.5704 17.7188 14.1404 18.2488 14.0804C18.7588 14.0304 19.2388 14.3404 19.4288 14.9004C19.5188 15.1704 19.5588 15.4604 19.5988 15.7504C19.6788 16.4604 19.7488 17.1704 19.8088 17.8804C19.8288 18.1304 19.8388 18.3804 19.8088 18.6304C19.7188 19.1504 19.4187 19.5204 18.8787 19.5904C17.4987 19.7804 17.2388 17.6304 17.2388 16.1804L17.2188 16.1704Z" fill="#121212"/>
<path d="M28.7209 16.3499C28.7209 15.9499 28.7509 15.5299 28.8209 15.1499C28.9409 14.5699 29.3909 14.2099 29.9109 14.2199C30.4809 14.2399 30.9009 14.5599 30.9709 15.0999C31.1209 16.1999 31.2009 17.3099 31.2409 18.4199C31.2609 18.9799 30.8209 19.3899 30.3209 19.4399C29.0009 19.5799 28.9209 17.9199 28.7709 16.9799C28.7409 16.7699 28.7209 16.5499 28.7109 16.3399L28.7209 16.3499Z" fill="#121212"/>
<path d="M17.8318 28.6501C20.7918 35.6701 30.7418 35.4901 31.6818 26.4901C31.8418 24.5601 30.8218 22.9001 29.3918 22.7901C27.9418 22.6801 26.4918 23.0101 25.0418 23.0001C23.5618 23.0001 22.0818 22.8001 20.6418 22.4801C19.5918 22.2401 18.4918 22.2201 17.8518 23.2401C17.1818 24.3101 17.1118 25.9001 17.3818 27.2001C17.4718 27.6401 17.6018 28.0701 17.7818 28.4601L17.8518 28.6301L17.8318 28.6501Z" fill="#121212"/>
</g>
<defs>
<linearGradient id="paint0_linear_334_20395" x1="25.4985" y1="1.5" x2="25.4985" y2="48.502" gradientUnits="userSpaceOnUse">
<stop stop-color="#4CBAF8"/>
<stop offset="1" stop-color="#428AF7"/>
</linearGradient>
<clipPath id="clip0_334_20395">
<rect width="50" height="50" fill="white" transform="translate(0.5)"/>
</clipPath>
</defs>
</svg>
