<svg width="51" height="50" viewBox="0 0 51 50" fill="none" xmlns="http://www.w3.org/2000/svg">
<g clip-path="url(#clip0_288_4071)">
<path d="M26.8893 1.5C33.2793 1.57 39.3493 3.89 44.1293 9.11C50.6193 16.2 51.8293 26.53 47.2593 35.06C41.5193 45.78 28.5893 51.01 16.9693 47.33C2.45926 42.71 -3.49074 26.27 4.70926 13.39C7.31926 9.29 10.8593 6.21 15.2193 4.04C18.6993 2.3 22.3993 1.53 26.8893 1.51V1.5Z" fill="url(#paint0_linear_288_4071)"/>
<path d="M17.5898 19.98C17.5898 19.58 17.6098 19.23 17.6298 19C17.6798 18.38 18.0898 17.95 18.6198 17.89C19.1298 17.84 19.6098 18.15 19.7998 18.71C19.8898 18.98 19.9298 19.27 19.9698 19.56C20.0498 20.27 20.1198 20.98 20.1798 21.69C20.1998 21.94 20.2098 22.19 20.1798 22.44C20.0898 22.96 19.7898 23.33 19.2498 23.4C17.8698 23.59 17.6098 21.44 17.6098 19.99L17.5898 19.98Z" fill="#121212"/>
<path d="M29.0881 20.1605C29.0881 19.7605 29.1181 19.3405 29.1881 18.9605C29.3081 18.3805 29.7581 18.0205 30.2781 18.0305C30.8481 18.0505 31.2681 18.3705 31.3381 18.9105C31.4881 20.0105 31.5681 21.1205 31.6081 22.2305C31.6281 22.7905 31.1881 23.2005 30.6881 23.2505C29.3681 23.3905 29.2881 21.7305 29.1381 20.7905C29.1081 20.5805 29.0881 20.3605 29.0781 20.1505L29.0881 20.1605Z" fill="#121212"/>
<path d="M23.8909 26.8701C24.5609 26.8001 25.2509 26.8801 25.9209 27.1201C27.2709 27.6001 28.8709 28.6501 28.9209 30.2501C28.9209 30.3901 28.9209 30.5201 28.9009 30.6601C28.7109 31.1601 28.1109 31.3601 27.6209 31.1801C26.7809 30.9001 26.5609 30.0301 25.9109 29.4701C25.1409 28.7401 23.7109 28.8801 22.9909 29.7101C22.5209 30.1701 22.6909 31.2301 22.2209 31.6401C21.8009 32.0301 21.0909 31.9601 20.6809 31.5701C19.8309 30.6401 20.1809 29.0001 20.9609 28.2501C21.7809 27.4601 22.8109 26.9801 23.8909 26.8701Z" fill="#121212"/>
</g>
<defs>
<linearGradient id="paint0_linear_288_4071" x1="25.4985" y1="1.5" x2="25.4985" y2="48.502" gradientUnits="userSpaceOnUse">
<stop stop-color="#DFE5E5"/>
<stop offset="1" stop-color="#BEC7C7"/>
</linearGradient>
<clipPath id="clip0_288_4071">
<rect width="50" height="50" fill="white" transform="translate(0.5)"/>
</clipPath>
</defs>
</svg>
