<svg width="51" height="50" viewBox="0 0 51 50" fill="none" xmlns="http://www.w3.org/2000/svg">
<g clip-path="url(#clip0_288_4295)">
<path d="M26.8893 1.5C33.2793 1.57 39.3493 3.89 44.1293 9.11C50.6193 16.2 51.8293 26.53 47.2593 35.06C41.5193 45.78 28.5893 51.01 16.9693 47.33C2.45926 42.71 -3.49074 26.27 4.70926 13.39C7.31926 9.29 10.8593 6.21 15.2193 4.04C18.6993 2.3 22.3993 1.53 26.8893 1.51V1.5Z" fill="url(#paint0_linear_288_4295)" fill-opacity="0.52"/>
<path d="M17.9609 18.7896C17.9609 18.3896 17.9809 18.0396 18.0009 17.8096C18.0509 17.1896 18.4609 16.7596 18.9909 16.6996C19.5009 16.6496 19.9809 16.9596 20.1709 17.5196C20.2609 17.7896 20.3009 18.0796 20.3409 18.3696C20.4209 19.0796 20.4909 19.7896 20.5509 20.4996C20.5709 20.7496 20.5809 20.9996 20.5509 21.2496C20.4609 21.7696 20.1609 22.1396 19.6209 22.2096C18.2409 22.3996 17.9809 20.2496 17.9809 18.7996L17.9609 18.7896Z" fill="#121212"/>
<path d="M29.4592 18.97C29.4592 18.57 29.4892 18.15 29.5592 17.77C29.6792 17.19 30.1292 16.83 30.6492 16.84C31.2192 16.86 31.6392 17.18 31.7092 17.72C31.8592 18.82 31.9392 19.93 31.9792 21.04C31.9992 21.6 31.5592 22.01 31.0592 22.06C29.7392 22.2 29.6592 20.54 29.5092 19.6C29.4792 19.39 29.4592 19.17 29.4492 18.96L29.4592 18.97Z" fill="#121212"/>
<path d="M25.7913 25.4104C26.1913 25.4604 26.5913 25.5604 26.9613 25.6904C27.5213 25.8904 27.8113 26.3904 27.7213 26.9004C27.6213 27.4704 27.2413 27.8304 26.6913 27.8204C25.5813 27.8104 24.4713 27.7304 23.3613 27.6004C22.8113 27.5404 22.4613 27.0404 22.4813 26.5404C22.5313 25.2204 24.1913 25.3704 25.1313 25.3704C25.3413 25.3704 25.5613 25.3804 25.7813 25.4104H25.7913Z" fill="#121212"/>
</g>
<defs>
<linearGradient id="paint0_linear_288_4295" x1="25.4985" y1="1.5" x2="25.4985" y2="48.502" gradientUnits="userSpaceOnUse">
<stop stop-color="#8EE0F7"/>
<stop offset="1" stop-color="#4FADF1"/>
</linearGradient>
<clipPath id="clip0_288_4295">
<rect width="50" height="50" fill="white" transform="translate(0.5)"/>
</clipPath>
</defs>
</svg>
