<svg width="51" height="50" viewBox="0 0 51 50" fill="none" xmlns="http://www.w3.org/2000/svg">
<g clip-path="url(#clip0_288_4378)">
<path d="M26.8893 1.5C33.2793 1.57 39.3493 3.89 44.1293 9.11C50.6193 16.2 51.8293 26.53 47.2593 35.06C41.5193 45.78 28.5893 51.01 16.9693 47.33C2.45926 42.71 -3.49074 26.27 4.70926 13.39C7.31926 9.29 10.8593 6.21 15.2193 4.04C18.6993 2.3 22.3993 1.53 26.8893 1.51V1.5Z" fill="url(#paint0_linear_288_4378)"/>
<path d="M18.4883 18.7896C18.4883 18.3896 18.5083 18.0396 18.5283 17.8096C18.5783 17.1896 18.9883 16.7596 19.5183 16.6996C20.0283 16.6496 20.5083 16.9596 20.6983 17.5196C20.7883 17.7896 20.8283 18.0796 20.8683 18.3696C20.9483 19.0796 21.0183 19.7896 21.0783 20.4996C21.0983 20.7496 21.1083 20.9996 21.0783 21.2496C20.9883 21.7696 20.6883 22.1396 20.1483 22.2096C18.7683 22.3996 18.5083 20.2496 18.5083 18.7996L18.4883 18.7896Z" fill="#121212"/>
<path d="M29.9905 18.97C29.9905 18.57 30.0205 18.15 30.0905 17.77C30.2105 17.19 30.6605 16.83 31.1805 16.84C31.7505 16.86 32.1705 17.18 32.2405 17.72C32.3905 18.82 32.4705 19.93 32.5105 21.04C32.5305 21.6 32.0905 22.01 31.5905 22.06C30.2705 22.2 30.1905 20.54 30.0405 19.6C30.0105 19.39 29.9905 19.17 29.9805 18.96L29.9905 18.97Z" fill="#121212"/>
<path d="M25.9816 29.1899C25.3116 29.1899 24.6316 29.0599 23.9816 28.7599C22.6816 28.1599 21.1717 26.9799 21.2617 25.3799C21.2617 25.2399 21.2917 25.1099 21.3217 24.9799C21.5517 24.4999 22.1716 24.3499 22.6416 24.5699C23.4616 24.9199 23.6017 25.7999 24.2017 26.4199C24.9117 27.2099 26.2916 27.4099 27.0717 26.6399C27.5816 26.2199 27.7617 25.4399 28.2517 25.0799C28.7017 24.7299 29.4017 24.8599 29.7717 25.2799C30.5417 26.2799 29.8517 27.3799 29.0117 28.0599C28.1217 28.7799 27.0616 29.1699 25.9716 29.1799L25.9816 29.1899Z" fill="#121212"/>
</g>
<defs>
<linearGradient id="paint0_linear_288_4378" x1="25.4985" y1="1.5" x2="25.4985" y2="48.502" gradientUnits="userSpaceOnUse">
<stop stop-color="#8EE0F7"/>
<stop offset="1" stop-color="#4CCEF2"/>
</linearGradient>
<clipPath id="clip0_288_4378">
<rect width="50" height="50" fill="white" transform="translate(0.5)"/>
</clipPath>
</defs>
</svg>
