<svg width="15" height="15" viewBox="0 0 15 15" fill="none" xmlns="http://www.w3.org/2000/svg">
<path d="M1.95801 13.0415L5.19508 11.7965C5.40213 11.7169 5.50565 11.677 5.60251 11.625C5.68854 11.5789 5.77056 11.5256 5.8477 11.4657C5.93454 11.3983 6.01298 11.3199 6.16984 11.163L12.7497 4.58319C13.394 3.93885 13.394 2.89418 12.7497 2.24985C12.1054 1.60552 11.0607 1.60552 10.4164 2.24985L3.83651 8.82969C3.67964 8.98655 3.60121 9.06498 3.53382 9.15183C3.47396 9.22897 3.42066 9.31098 3.37448 9.39702C3.32249 9.49387 3.28267 9.5974 3.20303 9.80445L1.95801 13.0415ZM1.95801 13.0415L3.15858 9.92008C3.24449 9.69671 3.28744 9.58502 3.36112 9.53387C3.42551 9.48916 3.50518 9.47225 3.58218 9.48695C3.67029 9.50378 3.7549 9.58839 3.92412 9.75762L5.24193 11.0754C5.41115 11.2446 5.49576 11.3293 5.51259 11.4174C5.52729 11.4944 5.51038 11.574 5.46568 11.6384C5.41452 11.7121 5.30283 11.7551 5.07947 11.841L1.95801 13.0415Z" stroke="#121212" stroke-width="1.16667" stroke-linecap="round" stroke-linejoin="round"/>
</svg>
