<svg width="15" height="15" viewBox="0 0 15 15" fill="none" xmlns="http://www.w3.org/2000/svg">
<path d="M9.83333 4.00033V3.53366C9.83333 2.88026 9.83333 2.55357 9.70617 2.304C9.59432 2.08448 9.41584 1.906 9.19632 1.79415C8.94676 1.66699 8.62006 1.66699 7.96667 1.66699H7.03333C6.37994 1.66699 6.05324 1.66699 5.80368 1.79415C5.58416 1.906 5.40568 2.08448 5.29383 2.304C5.16667 2.55357 5.16667 2.88026 5.16667 3.53366V4.00033M6.33333 7.20866V10.1253M8.66667 7.20866V10.1253M2.25 4.00033H12.75M11.5833 4.00033V10.5337C11.5833 11.5138 11.5833 12.0038 11.3926 12.3781C11.2248 12.7074 10.9571 12.9751 10.6278 13.1429C10.2535 13.3337 9.76342 13.3337 8.78333 13.3337H6.21667C5.23657 13.3337 4.74653 13.3337 4.37218 13.1429C4.0429 12.9751 3.77518 12.7074 3.60741 12.3781C3.41667 12.0038 3.41667 11.5138 3.41667 10.5337V4.00033" stroke="#FF3C3C" stroke-width="1.16667" stroke-linecap="round" stroke-linejoin="round"/>
</svg>
