<svg width="23" height="18" viewBox="0 0 23 18" fill="none" xmlns="http://www.w3.org/2000/svg">
<path d="M9 10.875V12.375M11.4 15.75H6.6C5.33988 15.75 4.70982 15.75 4.22852 15.5048C3.80516 15.289 3.46095 14.9448 3.24524 14.5215C3 14.0402 3 13.4101 3 12.15V11.1C3 9.83988 3 9.20982 3.24524 8.72852C3.46095 8.30516 3.80516 7.96095 4.22852 7.74524C4.70982 7.5 5.33988 7.5 6.6 7.5H11.4C12.6601 7.5 13.2902 7.5 13.7715 7.74524C14.1948 7.96095 14.539 8.30516 14.7548 8.72852C15 9.20982 15 9.83988 15 11.1V12.15C15 13.4101 15 14.0402 14.7548 14.5215C14.539 14.9448 14.1948 15.289 13.7715 15.5048C13.2902 15.75 12.6601 15.75 11.4 15.75Z" stroke="#8A91A8" stroke-width="1.8" stroke-linecap="round" stroke-linejoin="round"/>
<path d="M20.2345 7.125C20.3595 5.5 19.7845 2.25 16.4845 2.25C13.1845 2.25 12.6091 5.5 12.7339 7.125" stroke="#8A91A8" stroke-width="1.8" stroke-linecap="round"/>
</svg>
