<svg width="69" height="40" viewBox="0 0 69 40" fill="none" xmlns="http://www.w3.org/2000/svg">
<path d="M29.8008 10.5H29.8108M34.3008 10.5H34.3108M38.8008 10.5H38.8108M29.3008 18V20.3355C29.3008 20.8684 29.3008 21.1348 29.41 21.2716C29.505 21.3906 29.6491 21.4599 29.8013 21.4597C29.9764 21.4595 30.1845 21.2931 30.6005 20.9602L32.986 19.0518C33.4733 18.662 33.717 18.4671 33.9883 18.3285C34.229 18.2055 34.4852 18.1156 34.75 18.0613C35.0484 18 35.3605 18 35.9845 18H38.5008C40.1809 18 41.021 18 41.6628 17.673C42.2272 17.3854 42.6862 16.9265 42.9738 16.362C43.3008 15.7202 43.3008 14.8802 43.3008 13.2V7.8C43.3008 6.11984 43.3008 5.27976 42.9738 4.63803C42.6862 4.07354 42.2272 3.6146 41.6628 3.32698C41.021 3 40.1809 3 38.5008 3H30.1008C28.4206 3 27.5805 3 26.9388 3.32698C26.3743 3.6146 25.9154 4.07354 25.6278 4.63803C25.3008 5.27976 25.3008 6.11984 25.3008 7.8V14C25.3008 14.93 25.3008 15.395 25.403 15.7765C25.6804 16.8117 26.489 17.6204 27.5243 17.8978C27.9058 18 28.3708 18 29.3008 18ZM30.3008 10.5C30.3008 10.7761 30.0769 11 29.8008 11C29.5246 11 29.3008 10.7761 29.3008 10.5C29.3008 10.2239 29.5246 10 29.8008 10C30.0769 10 30.3008 10.2239 30.3008 10.5ZM34.8008 10.5C34.8008 10.7761 34.5769 11 34.3008 11C34.0246 11 33.8008 10.7761 33.8008 10.5C33.8008 10.2239 34.0246 10 34.3008 10C34.5769 10 34.8008 10.2239 34.8008 10.5ZM39.3008 10.5C39.3008 10.7761 39.0769 11 38.8008 11C38.5246 11 38.3008 10.7761 38.3008 10.5C38.3008 10.2239 38.5246 10 38.8008 10C39.0769 10 39.3008 10.2239 39.3008 10.5Z" stroke="#2C2F3A" stroke-width="2" stroke-linecap="round" stroke-linejoin="round"/>
<path d="M32.5677 33.4972V30.0442H33.6106V38.8633H32.5677V34.3916H31.6665V38.442H30.6409V30.1961H31.6665V33.4972H32.5677ZM28.6485 32.4786V32.7272C28.6485 34.0739 29.201 35.462 30.451 36.1181L29.8398 36.9192C29.0146 36.4876 28.4586 35.7141 28.1444 34.7887C27.8336 35.7866 27.2742 36.6395 26.4489 37.116L25.8205 36.3046C27.0567 35.5932 27.6161 34.1222 27.623 32.7272V32.4786H26.0795V31.5912H27.623V30.355H28.6451V31.5912H30.1679V32.4786H28.6485ZM40.8546 30.0511H41.9424V35.4309H40.8546V30.0511ZM40.0017 33.8598L40.1088 34.7196C38.845 34.9268 37.7366 34.9579 35.8339 34.9544H35.0881V30.6727H39.3491V31.5394H36.1792V32.3715H39.0936V33.221H36.1792V34.0773C37.8332 34.0773 38.845 34.0566 40.0017 33.8598ZM38.9658 35.5552C40.8201 35.5552 41.9838 36.163 41.9872 37.2058C41.9838 38.2555 40.8201 38.8598 38.9658 38.8564C37.0839 38.8598 35.9479 38.2555 35.9479 37.2058C35.9479 36.163 37.0839 35.5552 38.9658 35.5552ZM38.9658 38.0207C40.1917 38.0207 40.903 37.7376 40.903 37.2058C40.903 36.6878 40.1917 36.3978 38.9658 36.3978C37.7158 36.3978 37.0287 36.6878 37.0287 37.2058C37.0287 37.7376 37.7158 38.0207 38.9658 38.0207Z" fill="#2C2F3A"/>
</svg>
