<svg width="69" height="40" viewBox="0 0 69 40" fill="none" xmlns="http://www.w3.org/2000/svg">
<path d="M31.7012 7H27.3012C26.7411 7 26.4611 7 26.2472 7.10899C26.059 7.20487 25.906 7.35785 25.8102 7.54601C25.7012 7.75992 25.7012 8.03995 25.7012 8.6V19.4C25.7012 19.9601 25.7012 20.2401 25.8102 20.454C25.906 20.6422 26.059 20.7951 26.2472 20.891C26.4611 21 26.7411 21 27.3012 21H31.7012M31.7012 21H37.7012M31.7012 21L31.7012 4.6C31.7012 4.03995 31.7012 3.75992 31.8102 3.54601C31.906 3.35785 32.059 3.20487 32.2472 3.10899C32.4611 3 32.7411 3 33.3012 3L36.1012 3C36.6612 3 36.9413 3 37.1552 3.10899C37.3433 3.20487 37.4963 3.35785 37.5922 3.54601C37.7012 3.75992 37.7012 4.03995 37.7012 4.6V21M37.7012 11H42.1012C42.6612 11 42.9413 11 43.1552 11.109C43.3433 11.2049 43.4963 11.3578 43.5922 11.546C43.7012 11.7599 43.7012 12.0399 43.7012 12.6V19.4C43.7012 19.9601 43.7012 20.2401 43.5922 20.454C43.4963 20.6422 43.3433 20.7951 43.1552 20.891C42.9413 21 42.6612 21 42.1012 21H37.7012" stroke="#A7ACBD" stroke-width="1.8" stroke-linecap="round" stroke-linejoin="round"/>
<path d="M22.7834 30.0442H23.8711V34.4986H22.7834V30.0442ZM21.3607 32.3198C21.3573 33.4834 20.3628 34.3052 19.0265 34.3087C17.6763 34.3052 16.6784 33.4834 16.6818 32.3198C16.6784 31.1561 17.6763 30.3273 19.0265 30.3239C20.3628 30.3273 21.3573 31.1561 21.3607 32.3198ZM17.7385 32.3198C17.7316 33 18.2806 33.4282 19.0265 33.4282C19.7654 33.4282 20.3075 33 20.3075 32.3198C20.3075 31.6464 19.7654 31.2182 19.0265 31.2217C18.2806 31.2182 17.7316 31.6464 17.7385 32.3198ZM19.0955 37.192V37.8999H24.137V38.7597H18.0389V36.3909H22.7903V35.7314H18.0113V34.8854H23.8711V37.192H19.0955ZM31.4397 38.8633V30.0442H32.5344V38.8633H31.4397ZM25.6732 30.98H29.9031C29.8997 33.6077 28.881 35.8384 25.794 37.3059L25.2243 36.4358C27.5344 35.3377 28.6048 33.8494 28.7982 31.8398H25.6732V30.98ZM40.7358 33.9807V34.6333H44.2233V35.4931H36.1639V34.6333H39.6446V33.9807H37.1929V30.2721H43.2634V31.1181H38.2841V31.7189H43.0458V32.5166H38.2841V33.145H43.329V33.9807H40.7358ZM40.1902 35.98C42.1342 35.9765 43.2461 36.491 43.2496 37.4164C43.2461 38.3591 42.1342 38.8598 40.1902 38.8564C38.2254 38.8598 37.117 38.3591 37.117 37.4164C37.117 36.491 38.2254 35.9765 40.1902 35.98ZM40.1902 38.0449C41.4989 38.0483 42.1584 37.8446 42.1653 37.4164C42.1584 36.9952 41.4989 36.788 40.1902 36.788C38.8642 36.788 38.2012 36.9952 38.2047 37.4164C38.2012 37.8446 38.8642 38.0483 40.1902 38.0449ZM51.4087 38.8633V30.0442H52.4343V38.8633H51.4087ZM48.5531 32.413H49.5821V30.2583H50.6145V38.4523H49.5821V35.4965H48.2043V34.616H49.5821V33.297H48.3631C47.9453 34.7645 47.0268 36.0214 45.3728 37.0055L44.7305 36.2355C46.5572 35.1512 47.4032 33.7735 47.5655 31.9986H45.2036V31.1181H48.6463C48.6463 31.5635 48.6152 31.9952 48.5531 32.413Z" fill="#A7ACBD"/>
</svg>
