<svg width="68" height="40" viewBox="0 0 68 40" fill="none" xmlns="http://www.w3.org/2000/svg">
<path d="M42.9004 8H24.9004M37.9004 2V5M29.9004 2V5M29.7004 22H38.1004C39.7805 22 40.6206 22 41.2624 21.673C41.8268 21.3854 42.2858 20.9265 42.5734 20.362C42.9004 19.7202 42.9004 18.8802 42.9004 17.2V8.8C42.9004 7.11984 42.9004 6.27976 42.5734 5.63803C42.2858 5.07354 41.8268 4.6146 41.2624 4.32698C40.6206 4 39.7805 4 38.1004 4H29.7004C28.0202 4 27.1802 4 26.5384 4.32698C25.9739 4.6146 25.515 5.07354 25.2274 5.63803C24.9004 6.27976 24.9004 7.11984 24.9004 8.8V17.2C24.9004 18.8802 24.9004 19.7202 25.2274 20.362C25.515 20.9265 25.9739 21.3854 26.5384 21.673C27.1802 22 28.0202 22 29.7004 22ZM33.8977 12.3306C33.0979 11.4216 31.7643 11.1771 30.7623 12.0094C29.7602 12.8418 29.6192 14.2335 30.4061 15.2179C30.9774 15.9327 32.5597 17.3397 33.3837 18.0569C33.5624 18.2124 33.6517 18.2902 33.7564 18.321C33.847 18.3477 33.9483 18.3477 34.0389 18.321C34.1436 18.2902 34.2329 18.2124 34.4116 18.0569C35.2356 17.3397 36.8179 15.9327 37.3892 15.2179C38.1761 14.2335 38.0523 12.8331 37.033 12.0094C36.0138 11.1858 34.6974 11.4216 33.8977 12.3306Z" stroke="#2C2F3A" stroke-width="2" stroke-linecap="round" stroke-linejoin="round"/>
<path d="M17.6613 30.0442H18.749V34.4986H17.6613V30.0442ZM16.2386 32.3198C16.2352 33.4834 15.2407 34.3052 13.9044 34.3087C12.5542 34.3052 11.5563 33.4834 11.5598 32.3198C11.5563 31.1561 12.5542 30.3273 13.9044 30.3239C15.2407 30.3273 16.2352 31.1561 16.2386 32.3198ZM12.6164 32.3198C12.6095 33 13.1585 33.4282 13.9044 33.4282C14.6433 33.4282 15.1855 33 15.1855 32.3198C15.1855 31.6464 14.6433 31.2182 13.9044 31.2217C13.1585 31.2182 12.6095 31.6464 12.6164 32.3198ZM13.9734 37.192V37.8999H19.0149V38.7597H12.9168V36.3909H17.6682V35.7314H12.8892V34.8854H18.749V37.192H13.9734ZM26.3177 38.8633V30.0442H27.4123V38.8633H26.3177ZM20.5511 30.98H24.7811C24.7776 33.6077 23.759 35.8384 20.672 37.3059L20.1022 36.4358C22.4123 35.3377 23.4827 33.8494 23.6761 31.8398H20.5511V30.98ZM37.575 32.817H36.6496V34.5677H35.6241V30.2134H36.6496V31.9399H37.575V30.0511H38.6075V34.6229H37.575V32.817ZM34.9818 30.538C34.9818 32.6927 33.9493 34.1706 31.5771 35.0442L31.1006 34.288C32.1503 33.9116 32.8754 33.4282 33.3278 32.8412L31.256 33.0725L31.1109 32.2023L33.756 32.0573C33.8285 31.8536 33.8768 31.6395 33.9079 31.4151H31.5011V30.538H34.9818ZM33.7249 37.2196V37.9137H38.9217V38.7597H32.6441V36.4289H37.5336V35.8108H32.6303V34.9648H38.6075V37.2196H33.7249ZM45.9621 30.0511H47.036V36.5463H45.9621V30.0511ZM45.1057 34.2086L45.2231 35.0856C43.8868 35.3273 42.73 35.3757 40.9206 35.3757H40.1679V32.5511H43.1478V31.5152H40.1506V30.645H44.2217V33.366H41.2314V34.4883C42.8302 34.4814 43.8833 34.4365 45.1057 34.2086ZM42.2466 36.018V37.817H47.2811V38.6975H41.1554V36.018H42.2466ZM54.6668 33.1485V30.0442H55.7511V38.884H54.6668V34.0394H52.336V33.1485H54.6668ZM49.8636 31.7327V35.8384C51.2483 35.8315 52.2186 35.7762 53.3167 35.5691L53.4306 36.453C52.191 36.6913 51.124 36.7396 49.4769 36.7362H48.769V30.8419H52.8022V31.7327H49.8636Z" fill="#2C2F3A"/>
</svg>
