<svg width="68" height="40" viewBox="0 0 68 40" fill="none" xmlns="http://www.w3.org/2000/svg">
<path d="M34.0996 16C35.7565 16 37.0996 14.6568 37.0996 13C37.0996 11.3431 35.7565 9.99998 34.0996 9.99998C32.4428 9.99998 31.0996 11.3431 31.0996 13C31.0996 14.6568 32.4428 16 34.0996 16Z" stroke="#A7ACBD" stroke-width="1.8" stroke-linecap="round" stroke-linejoin="round"/>
<path d="M25.0996 10.5651C25.0996 9.9907 25.0996 9.70352 25.1736 9.43905C25.2392 9.20478 25.347 8.98444 25.4916 8.78886C25.6549 8.56806 25.8816 8.39175 26.335 8.03912L33.1173 2.764C33.4686 2.49075 33.6443 2.35412 33.8383 2.3016C34.0094 2.25526 34.1898 2.25526 34.361 2.3016C34.5549 2.35412 34.7306 2.49075 35.0819 2.764L41.8642 8.03913C42.3176 8.39175 42.5443 8.56806 42.7076 8.78886C42.8522 8.98444 42.96 9.20478 43.0256 9.43905C43.0996 9.70352 43.0996 9.9907 43.0996 10.5651V17.8C43.0996 18.9201 43.0996 19.4801 42.8816 19.908C42.6899 20.2843 42.3839 20.5903 42.0076 20.782C41.5798 21 41.0197 21 39.8996 21H28.2996C27.1795 21 26.6195 21 26.1916 20.782C25.8153 20.5903 25.5093 20.2843 25.3176 19.908C25.0996 19.4801 25.0996 18.9201 25.0996 17.8V10.5651Z" stroke="#A7ACBD" stroke-width="1.8" stroke-linecap="round" stroke-linejoin="round"/>
<path d="M28.3422 33.4351H29.7027V34.3467H28.3422V38.8633H27.2545V30.0442H28.3422V33.4351ZM25.9217 36.6809H21.7366V30.9006H25.9217V36.6809ZM24.8374 31.7535H22.8036V35.8108H24.8374V31.7535ZM36.3218 30.0442H37.4164V38.884H36.3218V30.0442ZM32.6616 30.683C33.9841 30.6865 34.9579 31.895 34.9579 33.8011C34.9579 35.721 33.9841 36.9296 32.6616 36.9261C31.3218 36.9296 30.3515 35.721 30.355 33.8011C30.3515 31.895 31.3218 30.6865 32.6616 30.683ZM32.6616 31.6637C31.9088 31.6637 31.4012 32.4544 31.4012 33.8011C31.4012 35.1581 31.9088 35.9454 32.6616 35.9454C33.4006 35.9454 33.9082 35.1581 33.9082 33.8011C33.9082 32.4544 33.4006 31.6637 32.6616 31.6637ZM43.2759 30.7106H46.3215V31.5359H39.1115V30.7106H42.1882V29.9475H43.2759V30.7106ZM43.2759 34.3018V34.8198H46.7565V35.6727H38.7144V34.8198H42.1882V34.3018C40.655 34.2258 39.7952 33.808 39.7987 33.0587C39.7952 32.23 40.8587 31.8087 42.7303 31.8052C44.6157 31.8087 45.6619 32.23 45.6619 33.0587C45.6619 33.808 44.8159 34.2258 43.2759 34.3018ZM40.9623 33.0587C40.9589 33.404 41.5597 33.5767 42.7303 33.5801C43.9147 33.5767 44.5017 33.404 44.5017 33.0587C44.5017 32.6996 43.9147 32.5477 42.7303 32.5407C41.5597 32.5477 40.9589 32.6996 40.9623 33.0587ZM45.7828 38.7597H39.664V36.1975H45.7828V38.7597ZM44.7261 37.0124H40.7344V37.9413H44.7261V37.0124Z" fill="#A7ACBD"/>
</svg>
