<svg width="69" height="40" viewBox="0 0 69 40" fill="none" xmlns="http://www.w3.org/2000/svg">
<path d="M34.5 22C40.0228 22 44.5 17.5228 44.5 12C44.5 6.47715 40.0228 2 34.5 2C28.9772 2 24.5 6.47715 24.5 12C24.5 17.5228 28.9772 22 34.5 22Z" stroke="#2C2F3A" stroke-width="2" stroke-linecap="round" stroke-linejoin="round"/>
<path d="M37.2221 8.26596C37.7107 8.10312 37.9549 8.02169 38.1174 8.07962C38.2587 8.13003 38.37 8.24127 38.4204 8.38263C38.4783 8.54507 38.3969 8.78935 38.234 9.27789L36.7465 13.7405C36.7001 13.8797 36.6769 13.9492 36.6374 14.007C36.6024 14.0582 36.5582 14.1024 36.507 14.1374C36.4492 14.1769 36.3797 14.2001 36.2405 14.2465L31.7779 15.734C31.2893 15.8969 31.0451 15.9783 30.8826 15.9204C30.7413 15.87 30.63 15.7587 30.5796 15.6174C30.5217 15.4549 30.6031 15.2107 30.766 14.7221L32.2535 10.2595C32.2999 10.1203 32.3231 10.0508 32.3626 9.99299C32.3976 9.94182 32.4418 9.8976 32.493 9.8626C32.5508 9.82308 32.6203 9.79989 32.7595 9.75351L37.2221 8.26596Z" stroke="#2C2F3A" stroke-width="2" stroke-linecap="round" stroke-linejoin="round"/>
<path d="M20.3066 32.779C19.7265 33.9254 18.5111 34.7956 17.0228 35.0753L16.5532 34.1706C18.404 33.8736 19.7231 32.5511 19.73 31.2251V30.5794H20.8833V31.2251C20.8798 32.5546 22.2162 33.8736 24.0774 34.1706L23.6077 35.0753C22.116 34.7887 20.8937 33.9323 20.3066 32.779ZM20.8522 34.8508V36.8985H24.3916V37.7756H16.3218V36.8985H19.7749V34.8508H20.8522ZM25.6516 34.5435H26.9016V31.7362H25.6239V30.8591H32.3297V31.7362H31.0348V34.5435H32.2952V35.4068H25.6516V34.5435ZM27.9824 34.5435H29.9644V31.7362H27.9824V34.5435ZM24.9644 37.8032V36.895H33.0342V37.8032H24.9644ZM42.9448 32.1471H44.1775V33.0518H42.9448V35.2134H41.8537V30.0442H42.9448V32.1471ZM40.9766 33.7562L41.1009 34.6195C39.8992 34.8301 38.8461 34.8646 37.047 34.8612H36.3357V30.5552H40.469V31.4427H37.4303V32.268H40.2929V33.1312H37.4303V34.0014C38.9531 34.0014 39.8992 33.9634 40.9766 33.7562ZM42.9448 38.7597H37.2438V35.6209H42.9448V38.7597ZM41.8709 36.4738H38.3143V37.8826H41.8709V36.4738ZM51.1385 32.2507V30.0511H52.171V35.3895H51.1385V33.1416H50.2545V35.3412H49.2462V30.1996H50.2545V32.2507H51.1385ZM49.0839 34.0635L48.5038 34.8957C47.7234 34.5815 47.1779 34.0083 46.8602 33.3004C46.5356 34.0946 45.9589 34.768 45.1233 35.1236L44.5397 34.2845C45.7587 33.7562 46.325 32.6409 46.325 31.6395V30.5656H47.3816V31.6395C47.3781 32.6305 47.9272 33.6043 49.0839 34.0635ZM51.0902 36.6844H46.1247V35.8108H52.171V38.8633H51.0902V36.6844Z" fill="#2C2F3A"/>
</svg>
