<svg width="24" height="24" viewBox="0 0 24 24" fill="none" xmlns="http://www.w3.org/2000/svg">
<g clip-path="url(#clip0_1768_58396)">
<path d="M23.2797 17.8339H23.2834V2.63636H23.2686C23.1394 1.50282 22.1388 0.620361 20.924 0.620361L8.71723 2.39267C7.46185 2.39267 6.43908 3.33421 6.36523 4.52313H6.35785V16.5231C5.35354 16.3164 4.16092 16.5084 3.06431 17.1397C1.06677 18.2917 0.162153 20.4665 1.04831 21.9988C1.93446 23.5311 4.268 23.8339 6.26554 22.6819C7.81631 21.7884 8.70246 20.2782 8.61015 18.9305H8.61385V9.0499C8.64708 9.0499 8.68031 9.05359 8.71354 9.05359L20.924 7.28128C20.9572 7.28128 20.9905 7.28128 21.0237 7.27759V15.4302C20.0194 15.2234 18.8268 15.4154 17.7302 16.0468C15.7326 17.1988 14.828 19.3736 15.7142 20.9059C16.6003 22.4382 18.9338 22.741 20.9314 21.589C22.4822 20.6954 23.3683 19.1853 23.276 17.8376L23.2797 17.8339Z" fill="#2C2F3A"/>
</g>
<defs>
<clipPath id="clip0_1768_58396">
<rect width="24" height="24" fill="white"/>
</clipPath>
</defs>
</svg>
