<svg width="24" height="24" viewBox="0 0 24 24" fill="none" xmlns="http://www.w3.org/2000/svg">
<path d="M20.596 3.10895C14.8581 2.75079 9.13874 2.75079 3.4009 3.10895C2.11228 3.19387 0.92705 4.3311 0.801511 5.61972C0.413819 9.87695 0.413819 14.1231 0.801511 18.3803C0.923358 19.6689 2.11228 20.8062 3.4009 20.8911C9.13874 21.2493 14.8581 21.2493 20.596 20.8911C21.8846 20.8062 23.0698 19.6689 23.1954 18.3803C23.583 14.1231 23.583 9.87695 23.1954 5.61972C23.0735 4.3311 21.8846 3.19387 20.596 3.10895ZM15.7037 12.5834C13.9092 13.5693 12.1111 14.5662 10.3351 15.5446C9.89197 15.7883 9.3492 15.4634 9.34182 14.9539C9.32336 12.9859 9.32336 11.0142 9.34182 9.04618C9.34551 8.53664 9.89197 8.21172 10.3351 8.45541C12.1074 9.43387 13.9055 10.4308 15.7037 11.4166C16.1689 11.6714 16.1689 12.3323 15.7037 12.5871V12.5834Z" fill="#2C2F3A"/>
</svg>
