<svg width="24" height="24" viewBox="0 0 24 24" fill="none" xmlns="http://www.w3.org/2000/svg">
<path d="M20.9539 1.62097H3.04625C1.80195 1.62097 0.793945 2.62897 0.793945 3.87328V20.1305C0.793945 21.3748 1.80195 22.3828 3.04625 22.3828H20.9503C22.1946 22.3828 23.2026 21.3748 23.2026 20.1305V3.87328C23.2026 2.62897 22.1946 1.62097 20.9503 1.62097H20.9539ZM5.26902 20.0862H2.81364V17.6308H5.26902V20.0862ZM5.26902 15.5151H2.81364V13.0597H5.26902V15.5151ZM5.26902 10.944H2.81364V8.48866H5.26902V10.944ZM5.26902 6.37297H2.81364V3.91759H5.26902V6.37297ZM21.1866 20.0899H18.7312V17.6345H21.1866V20.0899ZM21.1866 15.5188H18.7312V13.0634H21.1866V15.5188ZM21.1866 10.9477H18.7312V8.49236H21.1866V10.9477ZM21.1866 6.37666H18.7312V3.92128H21.1866V6.37666Z" fill="#2C2F3A"/>
</svg>
