<svg width="42" height="42" viewBox="0 0 42 42" fill="none" xmlns="http://www.w3.org/2000/svg">
<path d="M41.2199 21.7221C41.2115 21.5205 41.2199 21.3105 41.2535 21.0921C41.3627 20.3613 41.6483 19.6641 41.5727 18.9081C41.4299 17.6061 41.2871 16.2873 40.8335 15.0441C40.2035 13.2885 38.5487 12.1713 38.1875 10.3317C37.8599 8.64334 37.7675 7.24894 36.3311 6.25774C35.6423 5.78734 34.8947 5.43454 34.1135 5.13214C33.2399 4.79614 32.1899 3.41854 31.3163 3.10774C30.6527 2.87254 29.9387 2.88094 29.2415 2.81374C28.4519 2.74654 27.8387 2.91454 27.1247 2.58694C25.2515 1.73014 23.2187 1.08334 21.1187 1.27654C19.0187 1.46974 17.3555 2.59534 15.4823 3.31774C14.3399 3.75454 12.9371 3.74614 11.8367 4.28374C10.7363 4.82134 10.0979 6.22414 8.96388 6.57694C8.46828 6.72814 7.93908 6.70294 7.42668 6.76174C4.67148 7.07254 4.49508 10.6677 4.03308 12.5997C3.77268 13.7001 2.27748 15.2709 1.60548 16.1277C0.84948 17.0937 0.27828 18.2613 0.47148 19.5129C0.65628 20.7645 1.27788 21.8985 1.47948 23.1669C1.58868 23.8389 1.32828 24.7209 1.46268 25.3761C1.61388 26.0817 2.52108 27.0057 2.76468 27.7029C3.21828 29.0469 2.70588 29.8533 2.87388 31.2393C3.12588 33.2889 4.54548 35.2629 6.41868 36.2037C8.19948 37.0941 11.6687 37.3209 12.6683 39.1353C13.3907 40.4457 14.8775 40.6809 16.2635 40.7061C17.8259 40.7313 19.7075 40.7985 21.2027 40.3785C22.0007 40.1517 22.8323 39.6645 23.6639 39.5637C24.3527 39.4713 25.1255 39.6477 25.8227 39.6477C27.3515 39.6477 28.8131 39.3957 30.1151 38.5641C31.0139 37.9845 32.1647 36.6741 33.1391 36.2205C34.9199 35.3889 36.8015 35.1873 37.7591 33.3981C38.2715 32.4489 38.4647 30.8445 38.9183 29.8701C39.6491 28.3245 40.8587 27.0393 41.3795 25.3845C41.7995 24.0573 41.2955 23.0241 41.2283 21.7137L41.2199 21.7221ZM4.25988 12.8601C4.25988 12.8601 4.25988 12.8601 4.25988 12.8685V12.8601ZM14.3651 3.66214C14.3651 3.66214 14.3483 3.66214 14.3399 3.67054C14.3399 3.67054 14.3399 3.67054 14.3399 3.66214C14.3483 3.66214 14.3567 3.66214 14.3651 3.66214ZM10.4843 5.87974V5.89654C10.4843 5.89654 10.4675 5.89654 10.4591 5.89654C10.4591 5.89654 10.4675 5.87974 10.4759 5.87974H10.4843ZM38.2043 11.2305C38.2211 11.2893 38.2295 11.3481 38.2547 11.4069C38.2211 11.3481 38.2127 11.2893 38.2043 11.2305Z" fill="url(#paint0_linear_816_18911)"/>
<path d="M27.6107 14.7584C29.0219 14.6408 29.0219 15.9428 28.4171 16.7996C27.9551 17.4632 27.3335 18.0176 26.6279 18.4208C25.9895 18.782 25.3007 18.8324 24.7631 18.2864C24.5279 18.0428 24.3851 17.7152 24.4859 17.3792C24.5531 17.1608 24.6875 16.9676 24.8303 16.7828C25.4519 15.9932 26.3423 15.0608 27.3671 14.792C27.4427 14.7752 27.5267 14.7584 27.6023 14.75L27.6107 14.7584Z" fill="#121212"/>
<path d="M14.5486 14.767C15.4642 14.8258 15.9682 15.691 16.3714 16.3882C16.8082 17.1442 17.1946 18.1018 16.3714 18.7318C15.8926 19.1014 15.397 18.9586 14.9182 18.6478C13.7422 17.875 13.1794 16.7998 13.3978 15.691C13.5322 15.0022 14.0278 14.725 14.557 14.7586L14.5486 14.767Z" fill="#121212"/>
<path d="M19.3213 15.7247C19.3549 16.1195 19.2877 16.5227 18.9013 16.7159C18.3721 16.9847 17.9437 16.5059 17.6749 16.1027C17.2969 15.5231 17.0868 14.8679 16.9356 14.2043C16.8264 13.7003 16.4905 12.7259 16.6921 12.2387C16.8013 11.9783 17.0953 11.7851 17.3725 11.8523C17.6245 11.9111 17.7841 12.1379 17.9185 12.3563C18.4813 13.2551 18.9768 14.2127 19.2288 15.2375C19.2624 15.3887 19.3044 15.5651 19.3128 15.7331L19.3213 15.7247Z" fill="#121212"/>
<path d="M19.6657 31.0882C18.6745 31.2478 18.3469 30.8614 18.2545 29.971C18.0613 28.0558 18.2377 26.1238 17.7841 24.217C17.6917 23.8474 19.8925 20.9578 20.3041 20.8654C20.4133 20.8402 20.5729 20.8654 20.6821 20.9158C21.3037 21.1846 22.4545 23.1922 22.3369 23.7634C22.0093 25.3594 22.4545 26.9302 22.6645 28.501C22.9669 30.8278 22.8409 31.0042 19.6741 31.0714L19.6657 31.0882Z" fill="url(#paint1_linear_816_18911)"/>
<path d="M23.5271 14.0028C23.4599 14.8344 23.0147 15.6492 22.3679 16.17C21.8051 16.632 21.2087 16.5396 21.1499 15.7416C21.0827 14.784 21.6539 13.3476 22.4603 12.7428C22.6871 12.5748 23.0231 12.5328 23.2331 12.7176C23.3423 12.81 23.3927 12.9528 23.4347 13.0872C23.5271 13.3812 23.5523 13.692 23.5271 14.0028Z" fill="#121212"/>
<path d="M16.8004 28.1152C16.8172 26.62 16.918 25.1584 17.0608 23.6464C17.2204 21.9328 18.2704 20.3956 19.6648 19.2448C20.3452 18.682 21.1096 18.9088 21.7396 19.4212C23.1424 20.5468 24.184 21.8068 24.1588 23.6212C24.1336 25.6288 24.3184 27.628 24.4528 29.6272C24.5452 31.7776 23.7388 32.668 21.5716 32.9704C20.7484 33.0796 19.9168 33.1384 19.0852 33.0376C16.9264 32.7772 16.8592 31.3072 16.8088 29.4676C16.8004 29.014 16.792 28.5688 16.8004 28.1236V28.1152ZM19.8664 31.0888C20.53 30.9544 21.4036 31.198 21.9832 30.7444C22.4452 30.3832 22.3276 29.6188 22.2856 29.1232C22.21 28.2076 22.1092 27.2668 22.0336 26.3428C22 25.864 21.9664 25.3852 21.9496 24.9064C21.9328 24.4612 22.0336 23.9908 21.9412 23.554C21.8992 23.3524 21.832 23.1508 21.7564 22.9492C21.5884 22.5124 21.3868 22.084 21.1264 21.6892C21.0088 21.5044 20.866 21.2776 20.6644 21.1684C20.5804 21.1264 20.4544 21.0928 20.3704 21.118C20.2444 21.1516 20.1352 21.328 20.0596 21.4204C19.8916 21.6388 19.732 21.8656 19.5808 22.0924C19.228 22.6216 18.9004 23.1676 18.6148 23.7304C18.4636 24.0328 18.3628 24.2596 18.4132 24.604C18.682 26.3932 18.6064 28.1992 18.7492 30.0052C18.8164 30.8704 19.0768 31.2484 19.858 31.0888H19.8664Z" fill="#121212"/>
<defs>
<linearGradient id="paint0_linear_816_18911" x1="12.001" y1="0.999817" x2="31.164" y2="38.8306" gradientUnits="userSpaceOnUse">
<stop stop-color="#FFA5A5"/>
<stop offset="1" stop-color="#EE4F75"/>
</linearGradient>
<linearGradient id="paint1_linear_816_18911" x1="19.1847" y1="20.7924" x2="25.345" y2="26.4664" gradientUnits="userSpaceOnUse">
<stop stop-color="#FFA5A5"/>
<stop offset="1" stop-color="#EE4F75"/>
</linearGradient>
</defs>
</svg>
