<svg width="42" height="42" viewBox="0 0 42 42" fill="none" xmlns="http://www.w3.org/2000/svg">
<path d="M22.1682 1.25977C27.5358 1.31857 32.6346 3.26737 36.6498 7.65216C42.1014 13.6078 43.1178 22.285 39.279 29.4502C34.4574 38.455 23.5962 42.8482 13.8354 39.757C1.64703 35.8762 -3.35097 22.0666 3.53703 11.2474C5.72943 7.80337 8.70303 5.21617 12.3654 3.39337C15.2886 1.93177 18.3966 1.28497 22.1682 1.26817V1.25977Z" fill="url(#paint0_linear_477_32049)"/>
<path d="M26.7942 14.2636C26.7942 14.65 26.7774 15.028 26.7354 15.3976C26.685 15.868 26.3238 16.2964 25.8198 16.3048C25.3662 16.3048 24.921 15.9772 24.879 15.4396C24.8202 14.6752 24.8202 13.9024 24.8874 13.1464C24.9378 12.592 25.4082 12.2476 25.8702 12.2728C26.3574 12.298 26.7186 12.7012 26.7522 13.2976C26.769 13.6084 26.7858 13.936 26.7858 14.2552L26.7942 14.2636Z" fill="#121212"/>
<path d="M16.7088 15.0951C16.692 15.4479 16.7088 15.8007 16.65 16.1535C16.566 16.6659 16.188 16.9935 15.7428 17.0019C15.2976 17.0019 14.8776 16.6827 14.8356 16.2207C14.7684 15.4311 14.7684 14.6247 14.8356 13.8267C14.8776 13.3479 15.3144 13.0455 15.7428 13.0539C16.188 13.0539 16.566 13.3899 16.6416 13.9023C16.7004 14.2971 16.692 14.7003 16.7088 15.1035V15.0951Z" fill="#121212"/>
<path d="M26.3845 11.382C26.2921 11.3988 26.1325 11.4744 25.9813 11.4408C25.4017 11.3316 24.8305 11.2056 24.2509 11.088C23.8309 10.9956 23.3353 11.004 22.9825 10.7184C22.5877 10.3992 22.5625 9.82801 22.9741 9.50041C23.4529 9.11401 24.0157 9.34921 24.5281 9.51721C25.1497 9.71881 25.7629 9.92881 26.3509 10.2144C26.8801 10.4748 26.8633 11.0964 26.3761 11.382H26.3845Z" fill="#121212"/>
<path d="M15.0442 10.6515C15.187 10.4415 15.4306 10.3071 15.6742 10.2063C16.1698 9.98794 16.657 9.75274 17.1694 9.57634C17.5222 9.45874 17.8834 9.60994 18.0598 9.97114C18.2446 10.3323 18.1438 10.6851 17.8582 10.9371C17.1694 11.5335 16.3294 11.7435 15.439 11.6763C15.1114 11.6511 14.9098 11.3823 14.9182 11.0631C14.9182 10.9035 14.9686 10.7691 15.0442 10.6599V10.6515Z" fill="#121212"/>
<path d="M18.0918 21.4453L19.839 20.2861L21.5526 20.5969L22.905 21.9913V22.6465L20.0658 22.9657L18.4446 23.0833L18.0078 22.7557L18.0918 21.8569V21.4453Z" fill="url(#paint1_linear_477_32049)"/>
<path d="M23.37 24.3093C23.0088 24.3093 22.698 24.1245 22.6728 23.7633C22.6728 23.6961 22.656 23.6205 22.6392 23.5533L22.6896 23.7885L22.6392 23.5113L22.2528 23.5365C21.06 23.5617 19.8252 23.6709 18.5988 23.8557L18.4812 23.8725L18.3132 24.0657C18.1452 24.3345 17.9184 24.4605 17.6832 24.4605C17.6412 24.4605 17.5992 24.4605 17.5572 24.4521C17.1792 24.3849 16.9524 23.9397 17.0196 23.5617L17.1876 22.6209C17.2884 22.0161 17.4228 21.2601 17.868 20.6133C18.1788 20.1597 18.624 19.8153 19.1196 19.6305C19.4304 19.5129 19.7664 19.4541 20.1276 19.4541C20.346 19.4541 20.5812 19.4793 20.8164 19.5213C21.3036 19.6053 21.732 19.7649 22.0848 19.9917C22.6644 20.3529 23.1432 20.9325 23.5128 21.7221C23.8656 22.4781 24.0168 22.7469 24.0756 23.5701C24.0924 23.7549 24.0336 23.9397 23.9076 24.0825C23.79 24.2253 23.6136 24.3093 23.4288 24.3261H23.3784L23.37 24.3093ZM20.1192 20.8401C19.926 20.8401 19.7496 20.8653 19.6068 20.9241C19.38 21.0081 19.17 21.1761 19.0188 21.3945C18.9432 21.5037 18.876 21.6297 18.8172 21.7893L18.5736 22.4361L19.2624 22.3521C19.9848 22.2681 20.6988 22.2093 21.396 22.1757L22.32 22.1337C22.2192 22.1337 21.9252 21.6969 21.858 21.6297C21.48 21.2433 21.102 20.9829 20.5644 20.8821C20.4048 20.8569 20.2536 20.8401 20.1192 20.8401Z" fill="#121212"/>
<defs>
<linearGradient id="paint0_linear_477_32049" x1="11.9888" y1="1.01741" x2="31.1468" y2="38.8517" gradientUnits="userSpaceOnUse">
<stop stop-color="#FFA5A5"/>
<stop offset="1" stop-color="#EE4F75"/>
</linearGradient>
<linearGradient id="paint1_linear_477_32049" x1="19.3844" y1="20.269" x2="20.3153" y2="23.356" gradientUnits="userSpaceOnUse">
<stop stop-color="#FFA5A5"/>
<stop offset="1" stop-color="#EE4F75"/>
</linearGradient>
</defs>
</svg>
