<svg width="42" height="42" viewBox="0 0 42 42" fill="none" xmlns="http://www.w3.org/2000/svg">
<path d="M22.1682 1.25977C27.5358 1.31857 32.6346 3.26737 36.6498 7.65217C42.1014 13.6078 43.1178 22.285 39.279 29.4502C34.4574 38.455 23.5962 42.8482 13.8354 39.757C1.64703 35.8762 -3.35097 22.0666 3.53703 11.2474C5.72943 7.80337 8.70303 5.21617 12.3654 3.39337C15.2886 1.93177 18.3966 1.28497 22.1682 1.26817V1.25977Z" fill="url(#paint0_linear_816_18752)"/>
<path d="M16.3714 16.615C16.153 16.0438 15.0274 15.9514 14.6914 15.9346C14.6578 15.9346 14.6326 15.9346 14.6074 15.9346C14.8846 15.8254 15.1618 15.6994 15.3466 15.5146C15.5734 15.271 15.5314 15.061 15.481 14.9602C15.313 14.5906 14.6914 14.5654 14.5654 14.5654C14.5318 14.5654 14.4898 14.5654 14.4478 14.5654C13.2214 14.7166 11.7178 15.4978 11.3398 16.7326C11.3482 17.077 11.5246 17.4886 12.3226 17.4886C12.5242 17.4886 12.7426 17.4634 12.9358 17.4382C13.0954 17.4214 13.2382 17.4046 13.3642 17.4046H13.4314C13.339 17.4886 13.2214 17.5894 13.1206 17.665C12.6418 18.043 12.1042 18.4798 12.079 18.925C12.079 19.093 12.1294 19.2442 12.2638 19.3702L12.3058 19.4122L12.4654 19.471H12.5326C13.0786 19.471 13.5742 19.1266 14.0026 18.8158C14.1958 18.6814 14.3806 18.547 14.5738 18.4462L14.8762 18.2698C15.7582 17.7574 16.6654 17.2198 16.3798 16.6066L16.3714 16.615Z" fill="#121212"/>
<path d="M26.4858 15.3464C25.839 14.9852 24.8814 14.498 24.0918 14.498C23.7978 14.498 23.5374 14.5652 23.2854 14.7332C23.0838 14.9348 23.0754 15.128 23.109 15.254C23.2098 15.6404 23.7726 15.8168 24.3186 15.9764C24.3774 15.9932 24.4362 16.01 24.495 16.0352C24.2766 16.0184 24.0834 16.01 23.907 16.01C23.3946 16.01 22.7898 16.0604 22.6806 16.472C22.5966 16.7996 22.773 17.2448 24.6546 18.3116C24.831 18.4124 24.999 18.5552 25.1754 18.698C25.5786 19.0256 25.9986 19.3616 26.511 19.4036H26.6286L26.721 19.37L26.7714 19.328C27.2922 18.908 26.7966 18.278 26.4942 17.8916C26.4102 17.7908 26.2926 17.6312 26.259 17.6312C26.3178 17.5724 26.6118 17.5388 26.7714 17.5136C27.0066 17.4884 27.225 17.4632 27.3594 17.3876C27.8046 17.2028 27.9054 16.9424 27.9138 16.7576C27.939 16.3208 27.4518 15.842 26.4858 15.3296V15.3464Z" fill="#121212"/>
<path d="M10.3388 22.1259C11.4105 22.1259 12.2792 21.4979 12.2792 20.7231C12.2792 19.9484 11.4105 19.3203 10.3388 19.3203C9.26718 19.3203 8.39844 19.9484 8.39844 20.7231C8.39844 21.4979 9.26718 22.1259 10.3388 22.1259Z" fill="#FFA589"/>
<path d="M28.8193 22.1259C29.891 22.1259 30.7597 21.4979 30.7597 20.7231C30.7597 19.9484 29.891 19.3203 28.8193 19.3203C27.7477 19.3203 26.8789 19.9484 26.8789 20.7231C26.8789 21.4979 27.7477 22.1259 28.8193 22.1259Z" fill="#FFA589"/>
<path d="M23.2094 20.3701C24.0158 20.3701 24.8222 21.3193 24.5366 22.4197C24.0326 24.3769 23.3186 26.2501 22.067 27.8629C21.7058 28.3249 21.2858 28.7701 20.8154 29.1229C19.7822 29.8957 18.5138 29.8201 17.6066 28.9129C17.1362 28.4425 16.7498 27.8713 16.4474 27.2749C15.7502 25.8889 15.3722 24.3937 15.1454 22.8565C15.1034 22.5793 15.1202 22.2769 15.1622 21.9997C15.2966 21.1849 15.6326 20.8405 16.4642 20.7733C17.7158 20.6641 18.9674 20.5969 20.219 20.5213C21.101 20.4709 21.983 20.4289 23.201 20.3701H23.2094ZM22.4786 22.4785C21.8822 22.4785 21.353 22.4617 20.8322 22.4785C19.757 22.5289 18.6818 22.5961 17.6066 22.6633C17.363 22.6801 17.1362 22.6969 17.2034 23.0413C17.4974 24.4441 17.8166 25.8385 18.623 27.0565C19.0934 27.7705 19.4966 27.7789 20.0846 27.1489C20.933 26.2417 21.5042 25.1665 21.9494 24.0241C22.1426 23.5201 22.3022 23.0077 22.487 22.4785H22.4786Z" fill="#121212"/>
<defs>
<linearGradient id="paint0_linear_816_18752" x1="16.0005" y1="0.999755" x2="29.0005" y2="40.9998" gradientUnits="userSpaceOnUse">
<stop stop-color="#FFEC87"/>
<stop offset="1" stop-color="#FFAA59"/>
</linearGradient>
</defs>
</svg>
