<svg width="42" height="42" viewBox="0 0 42 42" fill="none" xmlns="http://www.w3.org/2000/svg">
<path d="M22.1682 1.25977C27.5358 1.31857 32.6346 3.26737 36.6498 7.65216C42.1014 13.6078 43.1178 22.285 39.279 29.4502C34.4574 38.455 23.5962 42.8482 13.8354 39.757C1.64703 35.8762 -3.35097 22.0666 3.53703 11.2474C5.72943 7.80337 8.70303 5.21617 12.3654 3.39337C15.2886 1.93177 18.3966 1.28497 22.1682 1.26817V1.25977Z" fill="url(#paint0_linear_477_32068)"/>
<path d="M20.6292 19.3706C21.5616 19.3454 22.5612 20.2274 23.0316 20.9498C23.2416 21.269 23.1744 21.6386 22.8972 21.9242C22.62 22.2098 22.2588 22.2854 21.9228 22.1006C21.5784 21.9158 21.2592 21.6554 20.9568 21.395C20.7048 21.1766 20.5116 21.1682 20.2428 21.3866C19.9236 21.6554 19.5792 21.899 19.2264 22.1174C18.924 22.3022 18.5796 22.3526 18.294 22.0586C18.0168 21.7646 18.0672 21.4034 18.3024 21.1346C18.7812 20.6054 19.2936 20.093 19.8396 19.631C20.0328 19.4714 20.3604 19.379 20.604 19.3706C20.604 19.3706 20.6124 19.3706 20.6208 19.3706H20.6292Z" fill="#121212"/>
<path d="M14.8925 16.0444C14.8841 15.8092 14.8757 15.5656 14.8925 15.322C14.9177 14.7508 15.2537 14.3476 15.7241 14.2972C16.1945 14.2468 16.6061 14.566 16.7657 15.1204C16.8077 15.2548 16.8329 15.406 16.8413 15.5488C16.9085 16.2208 16.9757 16.8928 17.0429 17.5564C17.0513 17.6824 17.0597 17.8168 17.0429 17.9428C17.0009 18.4636 16.6901 18.8332 16.2449 18.892C15.8249 18.9508 15.3713 18.7072 15.2537 18.2284C15.0689 17.5144 14.9345 16.7836 14.8925 16.0444Z" fill="#121212"/>
<path d="M24.4961 15.8175C24.4961 15.4815 24.5297 15.1203 24.5969 14.8179C24.6977 14.3391 25.0757 14.0367 25.5125 14.0451C25.9913 14.0619 26.3357 14.3307 26.4029 14.7843C26.5289 15.6999 26.5961 16.6239 26.6297 17.5563C26.6465 18.0183 26.2769 18.3627 25.8569 18.4047C25.0253 18.4887 24.8321 17.7747 24.7061 17.1111C24.6557 16.8423 24.6053 16.5819 24.5549 16.3131C24.5213 16.1619 24.5129 15.9939 24.5045 15.8259L24.4961 15.8175Z" fill="#121212"/>
<path d="M14.1792 23.1082C14.406 23.0578 14.5236 22.1926 14.5488 22.0498C14.5824 21.8566 14.6076 21.6634 14.6748 21.487C14.7588 21.2602 14.9772 20.9914 15.246 20.983C15.4308 20.983 15.6912 21.1762 15.792 21.3526C16.2456 22.2094 15.8172 23.8474 15.0192 24.4102C14.4312 24.8302 13.7424 24.763 13.23 24.2338C12.6756 23.6626 12.4488 22.9318 12.642 22.1926C12.852 21.4198 13.2132 20.6806 13.5828 19.9582C13.6752 19.7818 14.1288 19.5466 14.2716 19.7566C14.3136 19.8238 14.3304 19.8994 14.3304 19.9834C14.3472 20.3362 14.3136 20.6638 14.2044 21.0082C14.0868 21.3946 13.9188 21.7726 13.8852 22.1758C13.86 22.4446 13.8264 22.9234 14.1036 23.0914C14.1288 23.1082 14.1624 23.1166 14.1876 23.1082H14.1792Z" fill="#121212"/>
<defs>
<linearGradient id="paint0_linear_477_32068" x1="21" y1="1.25977" x2="30.8006" y2="40.5997" gradientUnits="userSpaceOnUse">
<stop stop-color="#93E5FD"/>
<stop offset="1" stop-color="#69BBF9"/>
</linearGradient>
</defs>
</svg>
