<svg width="42" height="42" viewBox="0 0 42 42" fill="none" xmlns="http://www.w3.org/2000/svg">
<path d="M22.1682 1.25977C27.5358 1.31857 32.6346 3.26737 36.6498 7.65217C42.1014 13.6078 43.1178 22.285 39.279 29.4502C34.4574 38.455 23.5962 42.8482 13.8354 39.757C1.64703 35.8762 -3.35097 22.0666 3.53703 11.2474C5.72943 7.80337 8.70303 5.21617 12.3654 3.39337C15.2886 1.93177 18.3966 1.28497 22.1682 1.26817V1.25977Z" fill="url(#paint0_linear_816_18376)"/>
<path d="M19.3972 21.0001L18.8008 23.2093L19.6324 23.9569L21.7576 23.4277L22.8664 23.2093L22.5892 21.8317L21.9424 21.0001L20.8336 20.5801L19.3972 21.0001Z" fill="url(#paint1_linear_816_18376)"/>
<path d="M24.0493 20C24.8557 20 25.6621 20.9492 25.3765 22.0496C24.8725 24.0068 24.1585 25.88 22.9069 27.4928C22.5457 27.9548 22.1257 28.4 21.6553 28.7528C20.6221 29.5256 19.3537 29.45 18.4465 28.5428C17.9761 28.0724 17.5897 27.5012 17.2873 26.9048C16.5901 25.5188 16.2121 24.0236 15.9853 22.4864C15.9433 22.2092 15.9601 21.9068 16.0021 21.6296C16.1365 20.8148 16.4725 20.4704 17.3041 20.4032C18.5557 20.294 19.8073 20.2268 21.0589 20.1512C21.9409 20.1008 22.8229 20.0588 24.0409 20H24.0493ZM23.3185 22.1084C22.7221 22.1084 22.1929 22.0916 21.6721 22.1084C20.5969 22.1588 19.5217 22.226 18.4465 22.2932C18.2029 22.31 17.9761 22.3268 18.0433 22.6712C18.3373 24.074 18.6565 25.4684 19.4629 26.6864C19.9333 27.4004 20.3365 27.4088 20.9245 26.7788C21.7729 25.8716 22.3441 24.7964 22.7893 23.654C22.9825 23.15 23.1421 22.6376 23.3269 22.1084H23.3185Z" fill="#121212"/>
<path d="M12.467 23.0002C13.8726 23.0002 15.0121 22.1765 15.0121 21.1603C15.0121 20.1441 13.8726 19.3203 12.467 19.3203C11.0614 19.3203 9.92188 20.1441 9.92188 21.1603C9.92188 22.1765 11.0614 23.0002 12.467 23.0002Z" fill="#EA8484"/>
<path d="M29.5451 22.6799C30.9507 22.6799 32.0902 21.8562 32.0902 20.84C32.0902 19.8238 30.9507 19 29.5451 19C28.1395 19 27 19.8238 27 20.84C27 21.8562 28.1395 22.6799 29.5451 22.6799Z" fill="#EA8484"/>
<path d="M13.0015 15.6273C12.9175 13.0485 16.4455 12.5109 18.1423 13.8213C19.7971 15.0309 19.5283 18.3993 17.1679 18.9789C15.1351 19.6005 13.0939 17.8197 13.0099 15.8121V15.6273H13.0015Z" fill="#121212"/>
<path d="M23.1139 15.2322C23.5087 11.4438 29.6575 12.9054 29.1535 16.425C29.1703 18.3486 26.2891 19.1298 24.8527 18.399C23.8111 17.853 23.1307 16.5258 23.1055 15.4086V15.2322H23.1139Z" fill="#121212"/>
<path d="M16.0162 14.854C15.823 14.4676 15.3946 14.3164 14.9914 14.3836C14.7898 14.4172 14.6134 14.4256 14.437 14.56C14.2606 14.6944 14.1514 14.8708 14.1094 15.0808C14.1094 15.0976 14.1094 15.106 14.1094 15.1228C14.0758 15.4588 14.2606 15.8116 14.5714 15.9964C14.731 16.0888 14.9074 16.1308 15.1006 16.1308C15.193 16.1308 15.2938 16.1224 15.3862 16.0972C15.5878 16.0468 15.7558 15.9544 15.8818 15.82C16.117 15.5596 16.1758 15.1732 16.0162 14.8624V14.854Z" fill="white"/>
<path d="M17.7391 16.761C17.3863 15.9546 15.7987 16.257 16.1263 17.2062C16.5967 18.0126 17.8231 17.9202 17.7727 16.887L17.7307 16.761H17.7391Z" fill="white"/>
<path d="M25.7297 14.4424C25.6205 14.2744 25.4525 14.1736 25.2677 14.1484C25.0493 14.1148 24.8309 14.1904 24.6461 14.3584C24.4529 14.5264 24.3438 14.7448 24.3438 14.98C24.3438 15.1732 24.4193 15.358 24.5621 15.4924C24.5873 15.5176 24.6125 15.5428 24.6461 15.5596C24.7553 15.652 24.8897 15.7024 25.0325 15.7108C25.0493 15.7108 25.0577 15.7108 25.0745 15.7108C25.4273 15.7108 25.7465 15.4504 25.8389 15.0892C25.8977 14.8708 25.8557 14.6356 25.7381 14.4508L25.7297 14.4424Z" fill="white"/>
<path d="M27.5843 16.198C27.3827 15.8956 26.9963 15.7528 26.6519 15.8788C26.4671 15.946 26.3075 16.0888 26.2235 16.2736C26.1395 16.4584 26.1227 16.66 26.1899 16.8364C26.2655 17.038 26.4335 17.206 26.6435 17.2732C26.7191 17.2984 26.7947 17.3068 26.8703 17.3068C26.9459 17.3068 27.0131 17.2984 27.0803 17.2732C27.0803 17.2732 27.0971 17.2732 27.1055 17.2732C27.4583 17.206 27.7103 16.8952 27.7019 16.5508C27.7019 16.4248 27.6599 16.3072 27.5843 16.198Z" fill="white"/>
<defs>
<linearGradient id="paint0_linear_816_18376" x1="12.5005" y1="0.999877" x2="28.5005" y2="36.4999" gradientUnits="userSpaceOnUse">
<stop stop-color="#FFD4A5"/>
<stop offset="1" stop-color="#FF795B"/>
</linearGradient>
<linearGradient id="paint1_linear_816_18376" x1="20.8336" y1="20.5801" x2="20.8336" y2="23.9569" gradientUnits="userSpaceOnUse">
<stop stop-color="#FF941A"/>
<stop offset="1" stop-color="#F59C9C"/>
</linearGradient>
</defs>
</svg>
