<svg width="42" height="42" viewBox="0 0 42 42" fill="none" xmlns="http://www.w3.org/2000/svg">
<path d="M22.1682 1.25977C27.5358 1.31857 32.6346 3.26737 36.6498 7.65217C42.1014 13.6078 43.1178 22.285 39.279 29.4502C34.4574 38.455 23.5962 42.8482 13.8354 39.757C1.64703 35.8762 -3.35097 22.0666 3.53703 11.2474C5.72943 7.80337 8.70303 5.21617 12.3654 3.39337C15.2886 1.93177 18.3966 1.28497 22.1682 1.26817V1.25977Z" fill="url(#paint0_linear_816_19812)"/>
<path d="M17.0943 21.092C17.2119 19.832 17.8587 18.866 19.0515 18.278C20.2191 17.6984 21.3531 17.732 22.4115 18.53C23.4111 19.2776 23.9655 20.2772 24.0495 21.512C24.0663 21.8228 23.9739 22.2008 23.7891 22.4444C23.4363 22.9316 22.6887 22.8056 22.3947 22.226C22.2855 22.016 22.2603 21.7724 22.2015 21.5372C22.1427 21.302 22.1091 21.0584 22.0251 20.84C21.7731 20.2184 21.3951 19.6724 20.6811 19.5884C19.9587 19.496 19.3455 19.8488 18.9507 20.4368C18.6903 20.8148 18.5559 21.2684 18.3795 21.6968C18.2535 21.9992 18.2115 22.4192 17.7663 22.3772C17.2875 22.3352 17.1867 21.932 17.1111 21.5372C17.0859 21.4112 17.0943 21.2852 17.0859 21.0836L17.0943 21.092Z" fill="#121212"/>
<path d="M26.7778 14.2803C26.7778 14.4063 26.7778 14.5323 26.7778 14.6583C26.7778 15.3135 26.7275 16.2627 25.8623 16.3047C25.3919 16.3299 24.9298 15.9855 24.8879 15.4227C24.8291 14.6751 24.8291 13.9191 24.8879 13.1715C24.9382 12.5919 25.4171 12.2391 25.8959 12.2727C26.3831 12.3063 26.7359 12.7179 26.7695 13.3143C26.7863 13.6335 26.7779 13.9527 26.7695 14.2719L26.7778 14.2803Z" fill="#121212"/>
<path d="M16.7065 15.0609C16.6897 15.4053 16.7065 15.7749 16.6477 16.1445C16.5721 16.6569 16.2025 16.9929 15.7489 17.0013C15.3037 17.0097 14.8669 16.6989 14.8249 16.1865C14.7577 15.4221 14.7577 14.6493 14.8165 13.8849C14.8585 13.3725 15.2869 13.0533 15.7237 13.0449C16.1857 13.0449 16.5721 13.3893 16.6477 13.9269C16.6981 14.2881 16.6897 14.6661 16.7065 15.0525V15.0609Z" fill="#121212"/>
<path d="M16.6668 11.1973C16.4568 11.3653 16.0452 11.4913 15.7932 11.5501C15.5412 11.6089 15.2724 11.6173 15.0372 11.5081C14.6928 11.3485 14.6004 10.8277 14.8776 10.5505C15.3396 10.0969 15.852 9.67692 16.398 9.33252C16.818 9.07212 17.2884 9.21492 17.5152 9.55092C17.742 9.87852 17.6832 10.3237 17.322 10.6765C17.1456 10.8529 16.9272 10.9957 16.6668 11.1973Z" fill="#121212"/>
<path d="M26.8298 9.77742C27.0499 9.93199 27.286 10.2919 27.413 10.5173C27.54 10.7428 27.6233 10.9985 27.5843 11.2549C27.5275 11.6302 27.0534 11.8647 26.7097 11.6761C26.1449 11.3596 25.5983 10.9852 25.1148 10.5575C24.7472 10.2272 24.7526 9.7356 25.0117 9.42381C25.2627 9.11437 25.7066 9.0462 26.1464 9.2942C26.3651 9.41417 26.5634 9.58386 26.8298 9.77742Z" fill="#121212"/>
<defs>
<linearGradient id="paint0_linear_816_19812" x1="10.2178" y1="5.75976" x2="34.7178" y2="40.2598" gradientUnits="userSpaceOnUse">
<stop stop-color="#C9A6FF"/>
<stop offset="1" stop-color="#8589FF"/>
</linearGradient>
</defs>
</svg>
