<svg width="42" height="42" viewBox="0 0 42 42" fill="none" xmlns="http://www.w3.org/2000/svg">
<path d="M22.1682 1.25977C27.5358 1.31857 32.6346 3.26737 36.6498 7.65216C42.1014 13.6078 43.1178 22.285 39.279 29.4502C34.4574 38.455 23.5962 42.8482 13.8354 39.757C1.64703 35.8762 -3.35097 22.0666 3.53703 11.2474C5.72943 7.80337 8.70303 5.21617 12.3654 3.39337C15.2886 1.93177 18.3966 1.28497 22.1682 1.26817V1.25977Z" fill="url(#paint0_linear_477_33653)"/>
<path d="M15.1968 16.473C14.8459 16.182 14.5635 15.968 14.2981 15.7284C14.0585 15.5059 13.8017 15.2833 13.6477 15.0095C13.545 14.8297 13.5107 14.4874 13.6134 14.3419C13.7333 14.1707 14.0328 14.0851 14.2725 14.0338C14.4351 13.9995 14.6319 14.0765 14.786 14.1536C15.4707 14.4959 16.1811 14.8126 16.823 15.2234C17.7559 15.8311 17.8415 16.7897 17.0284 17.5257C16.3779 18.1163 15.6761 18.6555 14.9657 19.1776C14.4265 19.5713 13.836 19.5028 13.5022 19.092C13.1598 18.6641 13.254 18.0906 13.7846 17.6285C14.2211 17.2433 14.6918 16.8838 15.2054 16.473H15.1968Z" fill="#121212"/>
<path d="M24.1821 20.3701C24.9885 20.3701 25.7949 21.3193 25.5093 22.4197C25.0053 24.3769 24.2913 26.2501 23.0397 27.8629C22.6785 28.3249 22.2585 28.7701 21.7881 29.1229C20.7549 29.8957 19.4865 29.8201 18.5793 28.9129C18.1089 28.4425 17.7225 27.8713 17.4201 27.2749C16.7229 25.8889 16.3449 24.3937 16.1181 22.8565C16.0761 22.5793 16.0929 22.2769 16.1349 21.9997C16.2693 21.1849 16.6053 20.8405 17.4369 20.7733C18.6885 20.6641 19.9401 20.5969 21.1917 20.5213C22.0737 20.4709 22.9557 20.4289 24.1737 20.3701H24.1821ZM23.4513 22.4785C22.8549 22.4785 22.3257 22.4617 21.8049 22.4785C20.7297 22.5289 19.6545 22.5961 18.5793 22.6633C18.3357 22.6801 18.1089 22.6969 18.1761 23.0413C18.4701 24.4441 18.7893 25.8385 19.5957 27.0565C20.0661 27.7705 20.4693 27.7789 21.0573 27.1489C21.9057 26.2417 22.4769 25.1665 22.9221 24.0241C23.1153 23.5201 23.2749 23.0077 23.4597 22.4785H23.4513Z" fill="#121212"/>
<path d="M25.852 16.2616C26.2795 16.5465 26.6278 16.784 26.9762 17.0057C27.182 17.1403 27.4036 17.2353 27.5936 17.3857C27.9894 17.6944 28.1003 18.1377 27.9103 18.5098C27.7203 18.8819 27.2928 19.0639 26.8178 18.9294C26.612 18.874 26.3983 18.8027 26.232 18.684C25.5591 18.2011 24.8387 17.7498 24.2608 17.1719C23.5563 16.4753 23.6829 15.6124 24.4904 15.0266C24.9654 14.6862 25.4958 14.4091 26.0104 14.1241C26.6674 13.7679 27.744 14.2112 27.1899 15.0345C26.992 15.3274 26.6832 15.5412 26.4141 15.7866C26.2716 15.9132 26.1133 16.032 25.8599 16.2378L25.852 16.2616Z" fill="#121212"/>
<defs>
<linearGradient id="paint0_linear_477_33653" x1="12.5005" y1="0.999877" x2="28.5005" y2="36.4999" gradientUnits="userSpaceOnUse">
<stop stop-color="#FFD4A5"/>
<stop offset="1" stop-color="#FF795B"/>
</linearGradient>
</defs>
</svg>
