<svg width="42" height="42" viewBox="0 0 42 42" fill="none" xmlns="http://www.w3.org/2000/svg">
<path d="M22.1682 1.25977C27.5358 1.31857 32.6346 3.26737 36.6498 7.65217C42.1014 13.6078 43.1178 22.285 39.279 29.4502C34.4574 38.455 23.5962 42.8482 13.8354 39.757C1.64703 35.8762 -3.35097 22.0666 3.53703 11.2474C5.72943 7.80337 8.70303 5.21617 12.3654 3.39337C15.2886 1.93177 18.3966 1.28497 22.1682 1.26817V1.25977Z" fill="url(#paint0_linear_477_32090)"/>
<path d="M23.0151 22.3523C22.2507 22.3943 21.3939 21.9994 20.8143 21.529C20.5455 21.3022 20.3943 21.3611 20.1171 21.5459C19.5207 21.9491 18.8907 22.3271 18.2271 22.5958C17.8911 22.7302 17.4123 22.6883 17.0595 22.5623C16.3875 22.3187 16.3203 21.5123 16.9083 21.0923C17.1267 20.9411 17.3955 20.8403 17.6475 20.7479C18.3699 20.4959 18.9495 20.0591 19.3863 19.4207C20.0415 18.4463 20.8143 18.4379 21.4947 19.4039C21.9231 20.0171 22.4691 20.3783 23.2335 20.3867C23.3763 20.3867 23.5275 20.4119 23.6619 20.4455C24.0567 20.5547 24.3171 20.7983 24.3759 21.2099C24.4683 21.9323 23.7627 22.2599 23.1579 22.3439C23.1075 22.3439 23.0655 22.3523 23.0151 22.3607V22.3523Z" fill="#121212"/>
<path d="M14.8516 16.0022C14.8516 15.6662 14.8684 15.3722 14.8852 15.179C14.9272 14.6582 15.2716 14.297 15.7168 14.2466C16.1452 14.2046 16.5484 14.465 16.708 14.9354C16.7836 15.1622 16.8172 15.4058 16.8508 15.6494C16.918 16.2458 16.9768 16.8422 17.0272 17.4386C17.044 17.6486 17.0524 17.8586 17.0272 18.0686C16.9516 18.5054 16.6996 18.8162 16.246 18.875C15.0868 19.0346 14.8684 17.2286 14.8684 16.0106L14.8516 16.0022Z" fill="#121212"/>
<path d="M24.5123 15.7757C24.5123 15.4397 24.5375 15.0869 24.5963 14.7677C24.6971 14.2805 25.0751 13.9781 25.5119 13.9865C25.9907 14.0033 26.3435 14.2721 26.4023 14.7257C26.5283 15.6497 26.5955 16.5821 26.6291 17.5145C26.6459 17.9849 26.2763 18.3293 25.8563 18.3713C24.7475 18.4889 24.6803 17.0945 24.5543 16.3049C24.5291 16.1285 24.5123 15.9437 24.5039 15.7673L24.5123 15.7757Z" fill="#121212"/>
<defs>
<linearGradient id="paint0_linear_477_32090" x1="12.5005" y1="0.999756" x2="31.5005" y2="40.9998" gradientUnits="userSpaceOnUse">
<stop stop-color="#C3F6CE"/>
<stop offset="1" stop-color="#4FD1B2"/>
</linearGradient>
</defs>
</svg>
