<svg width="42" height="42" viewBox="0 0 42 42" fill="none" xmlns="http://www.w3.org/2000/svg">
<path d="M22.1682 1.25977C27.5358 1.31857 32.6346 3.26737 36.6498 7.65217C42.1014 13.6078 43.1178 22.285 39.279 29.4502C34.4574 38.455 23.5962 42.8482 13.8354 39.757C1.64703 35.8762 -3.35097 22.0666 3.53703 11.2474C5.72943 7.80337 8.70303 5.21617 12.3654 3.39337C15.2886 1.93177 18.3966 1.28497 22.1682 1.26817V1.25977Z" fill="url(#paint0_linear_816_18026)"/>
<path d="M13.7105 22.7976C13.9373 22.7472 14.0549 21.882 14.0801 21.7392C14.1137 21.546 14.1389 21.3528 14.2061 21.1764C14.2901 20.9496 14.5085 20.6808 14.7773 20.6724C14.9621 20.6724 15.2225 20.8656 15.3233 21.042C15.7769 21.8988 15.3485 23.5368 14.5505 24.0996C13.9625 24.5196 13.2737 24.4524 12.7613 23.9232C12.2069 23.352 11.9801 22.6212 12.1733 21.882C12.3833 21.1092 12.7445 20.37 13.1141 19.6476C13.2065 19.4712 13.6601 19.236 13.8029 19.446C13.8449 19.5132 13.8617 19.5888 13.8617 19.6728C13.8785 20.0256 13.8449 20.3532 13.7357 20.6976C13.6181 21.084 13.4501 21.462 13.4165 21.8652C13.3913 22.134 13.3577 22.6128 13.6349 22.7808C13.6601 22.7976 13.6937 22.806 13.7189 22.7976H13.7105Z" fill="#121212"/>
<path d="M19.4561 24.0663C19.4561 24.0663 19.4561 24.0663 19.4645 24.0747C19.4981 24.1083 19.5401 24.1167 19.5737 24.1335C20.0273 24.2595 20.5229 24.1839 20.9849 24.1839C21.2453 24.1839 21.5645 24.1839 21.8081 24.0663C22.2701 23.8395 21.9761 23.1843 21.8417 22.8399C21.6905 22.4451 21.4553 22.1679 21.0017 22.1847C20.5061 22.2015 19.9517 22.1847 19.7249 22.7475C19.6241 22.9911 19.2545 23.8311 19.4561 24.0663ZM20.6909 25.9227C20.2121 25.8891 19.7585 25.8891 19.3133 25.8135C18.7673 25.7211 18.3305 25.5279 18.2549 24.9483C18.1457 24.1083 18.3053 23.3607 18.4481 22.5375C18.6077 21.6303 19.2377 21.0927 20.1449 20.9163C21.1361 20.7231 22.0937 20.7231 22.7909 21.5967C23.3789 22.3443 23.6309 23.2179 23.5721 24.1671C23.5217 24.9903 23.0513 25.5531 22.2365 25.7295C21.7241 25.8387 21.1865 25.8555 20.6825 25.9143L20.6909 25.9227Z" fill="#121212"/>
<path d="M12.7007 16.1361C12.6167 13.5573 16.1447 13.0197 17.8415 14.3301C19.4963 15.5397 19.2275 18.9081 16.8671 19.4877C14.8343 20.1093 12.7931 18.3285 12.7091 16.3209V16.1361H12.7007Z" fill="#121212"/>
<path d="M22.8131 15.742C23.2079 11.9536 29.3567 13.4152 28.8527 16.9348C28.8695 18.8584 25.9883 19.6396 24.5519 18.9088C23.5103 18.3628 22.8299 17.0356 22.8047 15.9184V15.742H22.8131Z" fill="#121212"/>
<path d="M15.7154 15.3638C15.5222 14.9774 15.0938 14.8262 14.6906 14.8934C14.489 14.927 14.3126 14.9354 14.1362 15.0698C13.9598 15.2042 13.8506 15.3806 13.8086 15.5906C13.8086 15.6074 13.8086 15.6158 13.8086 15.6326C13.775 15.9686 13.9598 16.3214 14.2706 16.5062C14.4302 16.5986 14.6066 16.6406 14.7998 16.6406C14.8922 16.6406 14.993 16.6322 15.0854 16.607C15.287 16.5566 15.455 16.4642 15.581 16.3298C15.8162 16.0694 15.875 15.683 15.7154 15.3722V15.3638Z" fill="white"/>
<path d="M17.4383 17.2707C17.0855 16.4643 15.4979 16.7667 15.8255 17.7159C16.2959 18.5223 17.5223 18.4299 17.4719 17.3967L17.4299 17.2707H17.4383Z" fill="white"/>
<path d="M25.4251 14.9522C25.3159 14.7842 25.1479 14.6834 24.9631 14.6582C24.7447 14.6246 24.5263 14.7002 24.3415 14.8682C24.1483 15.0362 24.0391 15.2546 24.0391 15.4898C24.0391 15.683 24.1147 15.8678 24.2575 16.0022C24.2827 16.0274 24.3079 16.0526 24.3415 16.0694C24.4507 16.1618 24.5851 16.2122 24.7279 16.2206C24.7447 16.2206 24.7531 16.2206 24.7699 16.2206C25.1227 16.2206 25.4419 15.9602 25.5343 15.599C25.5931 15.3806 25.5511 15.1454 25.4335 14.9606L25.4251 14.9522Z" fill="white"/>
<path d="M27.2835 16.7078C27.0819 16.4054 26.6955 16.2626 26.3511 16.3886C26.1663 16.4558 26.0067 16.5986 25.9227 16.7834C25.8387 16.9682 25.8219 17.1698 25.8891 17.3462C25.9647 17.5478 26.1327 17.7158 26.3427 17.783C26.4183 17.8082 26.4939 17.8166 26.5695 17.8166C26.6451 17.8166 26.7123 17.8082 26.7795 17.783C26.7795 17.783 26.7963 17.783 26.8047 17.783C27.1575 17.7158 27.4095 17.405 27.4011 17.0606C27.4011 16.9346 27.3591 16.817 27.2835 16.7078Z" fill="white"/>
<defs>
<linearGradient id="paint0_linear_816_18026" x1="21" y1="1.25977" x2="30.8006" y2="40.5997" gradientUnits="userSpaceOnUse">
<stop stop-color="#93E5FD"/>
<stop offset="1" stop-color="#69BBF9"/>
</linearGradient>
</defs>
</svg>
