<svg width="42" height="42" viewBox="0 0 42 42" fill="none" xmlns="http://www.w3.org/2000/svg">
<path d="M22.1682 1.25977C27.5358 1.31857 32.6346 3.26737 36.6498 7.65216C42.1014 13.6078 43.1178 22.285 39.279 29.4502C34.4574 38.455 23.5962 42.8482 13.8354 39.757C1.64703 35.8762 -3.35097 22.0666 3.53703 11.2474C5.72943 7.80337 8.70303 5.21617 12.3654 3.39337C15.2886 1.93177 18.3966 1.28497 22.1682 1.26817V1.25977Z" fill="url(#paint0_linear_477_32074)"/>
<path d="M26.9709 18.8328C26.8533 18.732 26.7189 18.648 26.5929 18.5724C26.0133 18.228 25.4253 17.8836 24.8457 17.5308C24.2661 17.178 23.7117 16.968 23.1237 16.7244C22.6533 16.5228 22.0905 16.3884 21.6537 16.1028C22.0065 15.9348 22.4349 15.8844 22.8129 15.8004L26.8365 14.6664C27.2481 14.5656 27.5085 14.0952 27.4245 13.6164C27.3405 13.1376 26.9373 12.8268 26.5257 12.9276L22.5021 14.0616C21.6621 14.2632 20.8221 14.4732 19.9989 14.7504C19.6041 14.8764 19.1925 15.1368 18.7893 15.0444C18.3357 14.9436 17.8821 14.7252 17.4453 14.574C15.7065 13.986 13.9509 13.4568 12.1869 12.9864C11.9181 12.9108 11.6325 12.8436 11.3721 12.9528C11.1201 13.0536 10.9185 13.3308 10.8849 13.6416C10.8513 13.9524 10.9605 14.28 11.1705 14.4732C11.3301 14.6076 11.5233 14.6664 11.7081 14.7252C13.3965 15.2292 15.0849 15.7332 16.7733 16.2456C15.3705 17.0772 13.9677 17.9004 12.5649 18.732C12.3969 18.8328 12.2205 18.9336 12.1029 19.1016C11.9265 19.3368 11.8761 19.6896 11.9685 19.9752C12.0609 20.2608 12.3045 20.4792 12.5733 20.5128C12.8589 20.5464 13.1361 20.3952 13.3881 20.2356C15.0765 19.2192 16.7733 18.228 18.4785 17.262C18.8565 17.0436 19.2093 17.094 19.6125 17.2536C21.9729 18.1776 23.6277 19.152 25.9209 20.286C26.2485 20.4456 26.6097 20.6136 26.9541 20.4876C27.2901 20.3616 27.4665 19.992 27.4245 19.5888C27.3909 19.2444 27.2061 19.0092 26.9793 18.816L26.9709 18.8328Z" fill="#121212"/>
<path d="M18.118 21.8315L17.1016 23.1419L18.118 24.5531L20.0584 24.4019L20.9404 23.0495L19.3192 21.4199L18.244 21.6383L18.118 21.8315Z" stroke="#121212" stroke-width="1.6128" stroke-linecap="round" stroke-linejoin="round"/>
<defs>
<linearGradient id="paint0_linear_477_32074" x1="10.2178" y1="5.75976" x2="34.7178" y2="40.2598" gradientUnits="userSpaceOnUse">
<stop stop-color="#C9A6FF"/>
<stop offset="1" stop-color="#8589FF"/>
</linearGradient>
</defs>
</svg>
