<svg width="108" height="108" viewBox="0 0 108 108" fill="none" xmlns="http://www.w3.org/2000/svg">
<path d="M98.282 36.7417H9.74363C8.78928 36.7417 8.01562 37.5153 8.01562 38.4697V79.8121C8.01562 80.7664 8.78928 81.5401 9.74363 81.5401H98.282C99.2364 81.5401 100.01 80.7664 100.01 79.8121V38.4697C100.01 37.5153 99.2364 36.7417 98.282 36.7417Z" fill="#FFF1D6"/>
<path d="M32.8521 26.46H26.7177C25.823 26.46 25.0977 27.1853 25.0977 28.08V75.4488C25.0977 76.3435 25.823 77.0688 26.7177 77.0688H32.8521C33.7468 77.0688 34.4721 76.3435 34.4721 75.4488V28.08C34.4721 27.1853 33.7468 26.46 32.8521 26.46Z" fill="#FFD985"/>
<path d="M41.7548 26.46H36.2252C35.2589 26.46 34.4756 27.2434 34.4756 28.2096V75.3192C34.4756 76.2855 35.2589 77.0688 36.2252 77.0688H41.7548C42.7211 77.0688 43.5044 76.2855 43.5044 75.3192V28.2096C43.5044 27.2434 42.7211 26.46 41.7548 26.46Z" fill="#F2BFB9"/>
<path d="M50.8881 34.9918H45.1857C44.2671 34.9918 43.5225 35.7365 43.5225 36.655V75.4054C43.5225 76.324 44.2671 77.0686 45.1857 77.0686H50.8881C51.8066 77.0686 52.5513 76.324 52.5513 75.4054V36.655C52.5513 35.7365 51.8066 34.9918 50.8881 34.9918Z" fill="#DED5F7"/>
<path d="M61.9046 29.8511H54.4742C53.4124 29.8511 52.5518 30.7118 52.5518 31.7735V75.1463C52.5518 76.208 53.4124 77.0687 54.4742 77.0687H61.9046C62.9663 77.0687 63.827 76.208 63.827 75.1463V31.7735C63.827 30.7118 62.9663 29.8511 61.9046 29.8511Z" fill="#D1EDD9"/>
<path d="M82.5572 76.0103L76.2284 77.1983C74.9324 77.4359 73.658 76.6583 73.3988 75.4487L64.3916 33.5447C64.1324 32.3351 64.9748 31.1471 66.2708 30.9095L72.5996 29.7215C73.8956 29.4839 75.17 30.2615 75.4292 31.4711L84.4364 73.3751C84.6956 74.5847 83.8532 75.7727 82.5572 76.0103Z" fill="#FFD985"/>
<path d="M106.251 76.205H1.75004C1.14164 76.205 0.648438 76.6982 0.648438 77.3066V80.4386C0.648438 81.047 1.14164 81.5402 1.75004 81.5402H106.251C106.859 81.5402 107.352 81.047 107.352 80.4386V77.3066C107.352 76.6982 106.859 76.205 106.251 76.205Z" fill="#FCE8C8"/>
</svg>
