<svg width="139" height="84" viewBox="0 0 139 84" fill="none" xmlns="http://www.w3.org/2000/svg">
<g filter="url(#filter0_d_2214_45446)">
<path d="M131.825 64.5134V67.8692C131.825 72.4094 128.13 76.1036 123.59 76.1036H11.4107C6.87047 76.1036 3.17627 72.4094 3.17627 67.8692V64.5134C3.17627 60.086 6.68717 56.4623 11.0864 56.279V22.8338C11.0864 17.927 15.0767 13.9226 19.9976 13.9226H29.4305V11.6666C29.4305 6.83026 33.3644 2.89636 38.2148 2.89636H44.8277C45.434 2.89636 46.0403 2.95276 46.6184 3.07966C47.1965 2.95276 47.8028 2.89636 48.4232 2.89636H54.3734C58.0535 2.89636 61.226 5.12416 62.5937 8.32486C64.1024 7.18276 65.9918 6.52006 68.0222 6.52006H75.9887C77.5538 6.52006 79.0061 6.91486 80.2892 7.60576L86.1689 6.49186C86.7752 6.39316 87.3815 6.33676 87.9878 6.33676C92.5139 6.33676 96.476 9.48106 97.4066 13.838V13.9226H115.017C119.924 13.9226 123.929 17.927 123.929 22.8338V56.279C128.314 56.4623 131.825 60.086 131.825 64.5134Z" fill="url(#paint0_radial_2214_45446)"/>
</g>
<path d="M115.735 20.9728H19.2491C18.6261 20.9728 18.1211 21.4778 18.1211 22.1008V67.9258C18.1211 68.5488 18.6261 69.0538 19.2491 69.0538H115.735C116.358 69.0538 116.863 68.5488 116.863 67.9258V22.1008C116.863 21.4778 116.358 20.9728 115.735 20.9728Z" fill="#FFF1D6"/>
<path d="M45.4899 9.94641H37.5375C36.9534 9.94641 36.48 10.4199 36.48 11.0039V63.2162C36.48 63.8003 36.9534 64.2737 37.5375 64.2737H45.4899C46.0739 64.2737 46.5474 63.8003 46.5474 63.2162V11.0039C46.5474 10.4199 46.0739 9.94641 45.4899 9.94641Z" fill="#FFD985"/>
<path d="M54.3738 9.94641H48.4236C47.3879 9.94641 46.5483 10.786 46.5483 11.8217V62.3984C46.5483 63.4341 47.3879 64.2737 48.4236 64.2737H54.3738C55.4095 64.2737 56.2491 63.4341 56.2491 62.3984V11.8217C56.2491 10.786 55.4095 9.94641 54.3738 9.94641Z" fill="#F2BFB9"/>
<path d="M64.1577 19.0973H58.0383C57.0493 19.0973 56.2476 19.899 56.2476 20.888V62.483C56.2476 63.472 57.0493 64.2737 58.0383 64.2737H64.1577C65.1466 64.2737 65.9484 63.472 65.9484 62.483V20.888C65.9484 19.899 65.1466 19.0973 64.1577 19.0973Z" fill="#DED5F7"/>
<path d="M75.9879 13.5701H68.0073C66.8704 13.5701 65.9487 14.4917 65.9487 15.6287V62.201C65.9487 63.3379 66.8704 64.2596 68.0073 64.2596H75.9879C77.1249 64.2596 78.0465 63.3379 78.0465 62.201V15.6287C78.0465 14.4917 77.1249 13.5701 75.9879 13.5701Z" fill="#D1EDD9"/>
<path d="M98.1539 63.1315L91.3577 64.4005C89.9618 64.6684 88.5941 63.8224 88.3121 62.5111L78.6395 17.5321C78.3575 16.2208 79.2599 14.9518 80.6558 14.698L87.452 13.429C88.8479 13.1611 90.2156 14.0071 90.4976 15.3184L100.17 60.2974C100.452 61.6087 99.5498 62.8777 98.1539 63.1315Z" fill="#FFD985"/>
<path d="M124.055 63.3291H10.9447C10.5475 63.3291 10.2256 63.6511 10.2256 64.0482V68.3487C10.2256 68.7458 10.5475 69.0678 10.9447 69.0678H124.055C124.452 69.0678 124.774 68.7458 124.774 68.3487V64.0482C124.774 63.6511 124.452 63.3291 124.055 63.3291Z" fill="#FCE8C8"/>
<defs>
<filter id="filter0_d_2214_45446" x="0.826269" y="0.546362" width="138.048" height="82.6072" filterUnits="userSpaceOnUse" color-interpolation-filters="sRGB">
<feFlood flood-opacity="0" result="BackgroundImageFix"/>
<feColorMatrix in="SourceAlpha" type="matrix" values="0 0 0 0 0 0 0 0 0 0 0 0 0 0 0 0 0 0 127 0" result="hardAlpha"/>
<feOffset dx="2.35" dy="2.35"/>
<feGaussianBlur stdDeviation="2.35"/>
<feColorMatrix type="matrix" values="0 0 0 0 0.137255 0 0 0 0 0.137255 0 0 0 0 0.137255 0 0 0 0.1 0"/>
<feBlend mode="normal" in2="BackgroundImageFix" result="effect1_dropShadow_2214_45446"/>
<feBlend mode="normal" in="SourceGraphic" in2="effect1_dropShadow_2214_45446" result="shape"/>
</filter>
<radialGradient id="paint0_radial_2214_45446" cx="0" cy="0" r="1" gradientUnits="userSpaceOnUse" gradientTransform="translate(66.6404 44.7875) scale(104.904 104.904)">
<stop stop-color="white"/>
<stop offset="0.08" stop-color="white" stop-opacity="0.96"/>
<stop offset="0.23" stop-color="white" stop-opacity="0.86"/>
<stop offset="0.41" stop-color="white" stop-opacity="0.7"/>
<stop offset="0.62" stop-color="white" stop-opacity="0.47"/>
<stop offset="0.86" stop-color="white" stop-opacity="0.18"/>
<stop offset="1" stop-color="white" stop-opacity="0"/>
</radialGradient>
</defs>
</svg>
