<svg width="108" height="56" viewBox="0 0 108 56" fill="none" xmlns="http://www.w3.org/2000/svg">
<path d="M98.282 10.7422H9.74363C8.78928 10.7422 8.01562 11.5158 8.01562 12.4702V53.8126C8.01562 54.7669 8.78928 55.5406 9.74363 55.5406H98.282C99.2364 55.5406 100.01 54.7669 100.01 53.8126V12.4702C100.01 11.5158 99.2364 10.7422 98.282 10.7422Z" fill="#FFF1D6"/>
<path d="M32.8521 0.460938H26.7177C25.823 0.460938 25.0977 1.18624 25.0977 2.08094V49.4497C25.0977 50.3444 25.823 51.0697 26.7177 51.0697H32.8521C33.7468 51.0697 34.4721 50.3444 34.4721 49.4497V2.08094C34.4721 1.18624 33.7468 0.460938 32.8521 0.460938Z" fill="#FFD985"/>
<path d="M41.7548 0.460938H36.2252C35.2589 0.460938 34.4756 1.24426 34.4756 2.21054V49.3201C34.4756 50.2864 35.2589 51.0697 36.2252 51.0697H41.7548C42.7211 51.0697 43.5044 50.2864 43.5044 49.3201V2.21054C43.5044 1.24426 42.7211 0.460938 41.7548 0.460938Z" fill="#F2BFB9"/>
<path d="M50.8885 8.99219H45.1862C44.2676 8.99219 43.5229 9.73682 43.5229 10.6554V49.4058C43.5229 50.3243 44.2676 51.069 45.1862 51.069H50.8885C51.8071 51.069 52.5517 50.3243 52.5517 49.4058V10.6554C52.5517 9.73682 51.8071 8.99219 50.8885 8.99219Z" fill="#DED5F7"/>
<path d="M61.9046 3.85156H54.4742C53.4124 3.85156 52.5518 4.71225 52.5518 5.77396V49.1468C52.5518 50.2085 53.4124 51.0692 54.4742 51.0692H61.9046C62.9663 51.0692 63.827 50.2085 63.827 49.1468V5.77396C63.827 4.71225 62.9663 3.85156 61.9046 3.85156Z" fill="#D1EDD9"/>
<path d="M82.5572 50.0112L76.2284 51.1992C74.9324 51.4368 73.658 50.6592 73.3988 49.4496L64.3916 7.54558C64.1324 6.33598 64.9748 5.14798 66.2708 4.91038L72.5996 3.72238C73.8956 3.48478 75.17 4.26238 75.4292 5.47198L84.4364 47.376C84.6956 48.5856 83.8532 49.7736 82.5572 50.0112Z" fill="#FFD985"/>
<path d="M106.251 50.2051H1.75053C1.14213 50.2051 0.648926 50.6983 0.648926 51.3067V54.4387C0.648926 55.0471 1.14213 55.5403 1.75053 55.5403H106.251C106.86 55.5403 107.353 55.0471 107.353 54.4387V51.3067C107.353 50.6983 106.86 50.2051 106.251 50.2051Z" fill="#FCE8C8"/>
</svg>
