<svg width="91" height="52" viewBox="0 0 91 52" fill="none" xmlns="http://www.w3.org/2000/svg">
<path d="M40.9453 4.09375V41.8712" stroke="#E5E6E7" stroke-width="0.4688" stroke-linecap="round" stroke-linejoin="round"/>
<path d="M88.7204 19.1153H76.5707L74.9689 3.78161C74.9689 1.88688 73.4844 0.34375 71.6483 0.34375H7.71567C5.87954 0.34375 4.395 1.88688 4.395 3.78161L0 45.9541C0 47.8488 1.48453 49.3919 3.32067 49.3919C14.5328 48.0832 25.3347 48.3957 36.4687 49.0403C36.6836 49.5873 37.2305 49.9779 37.8556 49.9779H43.2859C43.8719 49.9779 44.3602 49.6263 44.6141 49.138C55.1035 48.7083 64.8702 48.1809 76.0628 49.3724C77.8989 49.3724 79.3835 47.8293 79.3835 45.9345L77.3911 27.0263H88.7009C89.8338 27.0263 90.7519 26.0887 90.7519 24.9557V21.1858C90.7519 20.0529 89.8338 19.1153 88.7009 19.1153H88.7204Z" fill="#FFF1D6"/>
<path d="M87.2966 24.8579C88.5265 24.8579 89.5234 23.8609 89.5234 22.6311C89.5234 21.4013 88.5265 20.4043 87.2966 20.4043C86.0668 20.4043 85.0698 21.4013 85.0698 22.6311C85.0698 23.8609 86.0668 24.8579 87.2966 24.8579Z" fill="white"/>
<path d="M71.7269 3.86049C71.7269 3.23542 70.4182 2.55175 69.715 2.35642C59.0888 -0.436846 51.881 -0.0852491 41.2549 2.72755C40.6103 2.90335 40.0829 2.96195 40.0438 3.50889C40.0438 3.13775 39.6141 2.94242 38.8914 2.72755C28.2652 -0.456382 21.3114 -0.788449 10.6852 2.41502C10.0211 2.55175 8.41936 3.25495 8.41936 3.88002L4.59082 45.779C4.59082 46.4041 5.11822 46.912 5.76282 46.912C16.389 43.6694 28.2652 43.6694 38.8914 46.912H41.2353C52.2326 44.568 64.0307 44.568 74.3053 46.912C74.9499 46.912 75.4773 46.4041 75.4773 45.779L71.7074 3.88002L71.7269 3.86049Z" fill="#E5E6E7"/>
<path d="M70.6318 3.37195C70.6318 2.76642 70.1435 2.47341 69.4989 2.27808C59.2243 -0.769119 51.4696 -0.749586 41.2146 2.27808C40.5895 2.43435 40.0817 2.49295 40.0621 3.02035C40.0621 2.66875 39.6519 2.49295 38.9487 2.27808C28.6742 -0.749586 21.3296 -0.749586 11.0746 2.27808C10.43 2.47341 9.94172 2.76642 9.94172 3.37195L7.03125 43.22C7.03125 43.8255 7.53912 44.3138 8.16419 44.3138C18.009 41.3447 27.8342 41.2275 37.679 43.9427C38.5385 44.1771 39.4175 44.3138 40.3161 44.3138C40.9411 44.3138 41.5467 44.2552 42.1717 44.1185C52.4463 42.0675 62.4083 42.1261 72.0577 44.3138C72.6828 44.3138 73.1907 43.8255 73.1907 43.22L70.6708 3.37195H70.6318Z" fill="white"/>
<path d="M44.9267 14.095C44.8291 13.47 44.7119 12.8644 44.5752 12.2589C43.8329 8.84056 42.7586 5.50036 41.6842 2.16016L40.9029 2.37502C40.9029 2.37502 40.6294 2.4141 40.3169 2.57036C40.0044 2.72663 40.063 3.03916 40.063 3.03916C41.2154 7.04349 42.7781 11.126 43.286 15.267C43.7352 18.8807 43.618 22.4748 43.5204 26.108C43.4227 29.7022 43.2273 33.3158 42.7781 36.8904C42.4655 39.3907 41.9968 41.8519 41.6452 44.3326C41.4889 45.407 41.274 46.5594 41.2349 47.6728C41.1959 48.669 41.1763 50.2512 41.86 51.0521C42.2507 50.5833 42.3679 49.7824 42.5632 49.216C42.8953 49.7043 43.1492 50.2708 43.5985 50.681C43.5204 50.6028 43.6376 49.6848 43.6376 49.548C43.6376 49.0597 43.579 48.5714 43.5985 48.083C43.6766 44.2154 43.8915 40.2697 44.3408 36.4216C44.7119 32.8275 45.1221 29.2724 45.3174 25.6588L45.376 24.6626C45.5714 21.127 45.5323 17.5915 44.9463 14.0755L44.9267 14.095Z" fill="#FFEA83"/>
</svg>
