<svg width="118" height="78" viewBox="0 0 118 78" fill="none" xmlns="http://www.w3.org/2000/svg">
<g filter="url(#filter0_d_2214_45450)">
<path d="M99.7081 22.5019H93.7581L92.8201 13.5699C92.5821 8.01187 88.0321 3.55987 82.4741 3.55987H71.3581C69.5941 3.36387 67.83 3.26587 66.0941 3.26587C64.3581 3.26587 62.5941 3.36387 60.8301 3.55987H40.5861C38.8641 3.36387 37.1421 3.27987 35.4481 3.27987C33.7541 3.27987 32.0321 3.37787 30.3101 3.55987H17.9901C12.4321 3.55987 7.88205 8.01187 7.64405 13.5699L3.24805 55.8359C3.22005 56.0739 3.20605 56.3119 3.20605 56.5639C3.20605 62.3319 7.85406 67.0359 13.5661 67.0359C13.8321 67.0359 14.1121 67.0219 14.3781 66.9939C19.3761 66.4059 24.6261 66.1259 30.4501 66.1259C35.3221 66.1259 40.1661 66.3359 44.2121 66.5459C45.4581 67.2599 46.9001 67.6519 48.4121 67.6519H48.6781C49.7841 68.3519 51.0861 68.7439 52.416 68.7439C53.2281 68.7439 54.0261 68.6039 54.7821 68.3379C56.2101 68.2119 57.5961 67.6519 58.7301 66.6719C63.3081 66.4759 67.6761 66.3079 72.1281 66.3079C77.2381 66.3079 81.704 66.5319 86.1841 67.0079C86.4361 67.0359 86.674 67.0499 86.926 67.0499C92.638 67.0499 97.286 62.3599 97.286 56.5779C97.286 56.3399 97.286 56.0879 97.244 55.8499L96.0541 44.4959H99.6941C104.692 44.4959 108.766 40.4219 108.766 35.4099V31.6019C108.766 26.5899 104.692 22.5159 99.6941 22.5159L99.7081 22.5019Z" fill="url(#paint0_radial_2214_45450)"/>
</g>
<path d="M99.7077 29.5033H87.4577L85.8337 14.0333C85.8337 12.1153 84.3357 10.5613 82.4737 10.5613H18.0037C16.1557 10.5613 14.6437 12.1153 14.6437 14.0333L10.2197 56.5653C10.2197 58.4833 11.7177 60.0373 13.5797 60.0373C24.8917 58.7073 35.7977 59.0293 47.0257 59.6873C47.2497 60.2473 47.7957 60.6393 48.4257 60.6393H53.8997C54.4877 60.6393 54.9777 60.2893 55.2297 59.7993C65.8137 59.3653 75.6697 58.8333 86.9537 60.0373C88.8017 60.0373 90.3137 58.4833 90.3137 56.5653L88.3117 37.4833H99.7217C100.856 37.4833 101.794 36.5453 101.794 35.3973V31.5893C101.794 30.4413 100.856 29.5033 99.7217 29.5033H99.7077Z" fill="#FFF1D6"/>
<path d="M98.28 35.2847C99.5172 35.2847 100.52 34.2818 100.52 33.0447C100.52 31.8076 99.5172 30.8047 98.28 30.8047C97.0429 30.8047 96.04 31.8076 96.04 33.0447C96.04 34.2818 97.0429 35.2847 98.28 35.2847Z" fill="white"/>
<path d="M82.5862 14.1308C82.5862 13.5008 81.2562 12.8148 80.5562 12.6188C69.8322 9.79078 62.5662 10.1548 51.8422 12.9828C51.1982 13.1508 50.6522 13.2068 50.6242 13.7668C50.6382 13.3888 50.1902 13.2068 49.4622 12.9828C38.7382 9.76278 31.7382 9.44078 21.0142 12.6608C20.3562 12.7868 18.7322 13.5008 18.7322 14.1308L14.8682 56.3828C14.8682 57.0128 15.4002 57.5308 16.0582 57.5308C26.7822 54.2548 38.7522 54.2548 49.4762 57.5308H51.8422C62.9302 55.1648 74.8442 55.1648 85.2042 57.5308C85.8622 57.5308 86.3942 57.0128 86.3942 56.3828L82.5862 14.1308Z" fill="#E5E6E7"/>
<path d="M81.48 13.6282C81.48 13.0262 80.99 12.7322 80.332 12.5362C69.972 9.45621 62.16 9.48421 51.8 12.5362C51.17 12.7042 50.652 12.7462 50.624 13.2922C50.638 12.9282 50.204 12.7602 49.504 12.5362C39.144 9.48421 31.738 9.48421 21.378 12.5362C20.734 12.7322 20.23 13.0262 20.23 13.6282L17.29 53.8362C17.29 54.4382 17.808 54.9282 18.438 54.9282C28.364 51.9322 38.276 51.8202 48.202 54.5502C49.07 54.7882 49.952 54.9282 50.848 54.9282C51.478 54.9282 52.094 54.8582 52.71 54.7322C63.084 52.6742 73.136 52.7302 82.852 54.9282C83.482 54.9282 84 54.4382 84 53.8362L81.466 13.6282H81.48Z" fill="white"/>
<path d="M55.5381 24.4374C55.4401 23.8214 55.3141 23.2054 55.1741 22.5894C54.4181 19.1454 53.3261 15.7714 52.2481 12.4114L51.4641 12.6354C51.4641 12.6354 51.1981 12.6774 50.8761 12.8314C50.5541 12.9854 50.6241 13.3074 50.6241 13.3074C51.7861 17.3394 53.3681 21.4694 53.8861 25.6414C54.3341 29.2954 54.2221 32.9214 54.1241 36.5754C54.0261 40.2014 53.8441 43.8414 53.3821 47.4394C53.0601 49.9594 52.5981 52.4514 52.2341 54.9574C52.0661 56.0494 51.8701 57.1974 51.8141 58.3174C51.7721 59.3254 51.7441 60.9214 52.4301 61.7334C52.8221 61.2574 52.9341 60.4594 53.1441 59.8714C53.4801 60.3614 53.7461 60.9494 54.1801 61.3414C54.0961 61.2574 54.2221 60.3334 54.2221 60.2074C54.2221 59.7174 54.1661 59.2134 54.1801 58.7234C54.2641 54.8174 54.4741 50.8414 54.9361 46.9634C55.3141 43.3374 55.7341 39.7534 55.9301 36.1134L55.9861 35.1194C56.1821 31.5494 56.1401 27.9794 55.5381 24.4374Z" fill="#FFEA83"/>
<defs>
<filter id="filter0_d_2214_45450" x="0.406055" y="0.465869" width="116.76" height="76.678" filterUnits="userSpaceOnUse" color-interpolation-filters="sRGB">
<feFlood flood-opacity="0" result="BackgroundImageFix"/>
<feColorMatrix in="SourceAlpha" type="matrix" values="0 0 0 0 0 0 0 0 0 0 0 0 0 0 0 0 0 0 127 0" result="hardAlpha"/>
<feOffset dx="2.8" dy="2.8"/>
<feGaussianBlur stdDeviation="2.8"/>
<feColorMatrix type="matrix" values="0 0 0 0 0.137255 0 0 0 0 0.137255 0 0 0 0 0.137255 0 0 0 0.1 0"/>
<feBlend mode="normal" in2="BackgroundImageFix" result="effect1_dropShadow_2214_45450"/>
<feBlend mode="normal" in="SourceGraphic" in2="effect1_dropShadow_2214_45450" result="shape"/>
</filter>
<radialGradient id="paint0_radial_2214_45450" cx="0" cy="0" r="1" gradientUnits="userSpaceOnUse" gradientTransform="translate(56.0001 35.9979) scale(94.402 94.402)">
<stop stop-color="white"/>
<stop offset="0.08" stop-color="white" stop-opacity="0.96"/>
<stop offset="0.23" stop-color="white" stop-opacity="0.86"/>
<stop offset="0.41" stop-color="white" stop-opacity="0.7"/>
<stop offset="0.62" stop-color="white" stop-opacity="0.47"/>
<stop offset="0.86" stop-color="white" stop-opacity="0.18"/>
<stop offset="1" stop-color="white" stop-opacity="0"/>
</radialGradient>
</defs>
</svg>
