<svg width="375" height="450" viewBox="0 0 375 450" fill="none" xmlns="http://www.w3.org/2000/svg">
<rect width="375" height="450" fill="#FFF3C7"/>
<path d="M66.252 259.502H121.551V316.5C121.551 319.255 119.324 321.481 116.57 321.481H71.233C68.4788 321.481 66.252 319.255 66.252 316.5V259.502Z" fill="#91BDD8"/>
<path d="M288.934 259.502H347.104V316.5C347.104 319.255 344.877 321.481 342.123 321.481H293.895C291.141 321.481 288.914 319.255 288.914 316.5V259.502H288.934Z" fill="#91BDD8"/>
<path d="M347.102 259.502H66.252V274.25H347.102V259.502Z" fill="#A0C8D8"/>
<path d="M70.6094 298.081H117.216" stroke="#809FAF" stroke-width="1.42593" stroke-miterlimit="10"/>
<path d="M294.736 300.718H341.323" stroke="#809FAF" stroke-width="1.42593" stroke-miterlimit="10"/>
<path d="M347.122 259.502H66.252L71.7408 201.879C72.0534 198.558 75.2373 196.019 79.0854 196.019H334.308C338.136 196.019 341.32 198.558 341.652 201.879L347.141 259.502H347.122Z" fill="#ACD4E8"/>
<path d="M301.649 202.66H277.838L281.94 213.872C282.135 216.04 285.534 217.779 289.714 217.779C293.894 217.779 297.313 216.04 297.488 213.872L301.59 202.66H301.649Z" fill="#F4CBA2"/>
<path d="M289.757 193.187C281.69 193.187 275.146 195.277 275.146 197.835V200.941C275.146 203.52 281.69 205.59 289.757 205.59C297.825 205.59 304.368 203.5 304.368 200.941V197.835C304.368 195.257 297.825 193.187 289.757 193.187Z" fill="#F9DDC5"/>
<path d="M289.755 201.723C296.465 201.723 301.905 199.991 301.905 197.855C301.905 195.719 296.465 193.987 289.755 193.987C283.045 193.987 277.605 195.719 277.605 197.855C277.605 199.991 283.045 201.723 289.755 201.723Z" fill="#84715E"/>
<path d="M279.404 193.987C279.717 195.96 281.514 198.07 284.17 199.261C286.827 200.453 289.581 200.433 291.281 199.359C290.968 197.386 289.171 195.276 286.514 194.085C283.858 192.893 281.104 192.913 279.404 193.987Z" fill="#61C66A"/>
<path d="M289.109 199.32C290.867 200.277 293.622 200.14 296.2 198.753C298.778 197.367 300.439 195.179 300.615 193.186C298.857 192.229 296.102 192.366 293.524 193.753C290.946 195.14 289.285 197.327 289.109 199.32Z" fill="#61C66A"/>
<path d="M294.207 183.459C292.586 185.354 291.199 187.483 290.398 189.866C289.539 192.405 289.597 194.984 289.988 197.601C290.047 197.992 290.105 198.382 290.183 198.773" stroke="#61C66A" stroke-width="0.6446" stroke-miterlimit="10"/>
<path d="M292.517 183.688C293.277 182.371 292.19 180.319 290.088 179.105C287.986 177.892 285.665 177.976 284.904 179.293C284.144 180.61 285.231 182.662 287.334 183.876C289.436 185.089 291.756 185.005 292.517 183.688Z" fill="#FFEA83"/>
<path d="M290.084 188.272C292.186 187.059 293.273 185.007 292.513 183.69C291.752 182.372 289.432 182.288 287.33 183.502C285.228 184.716 284.14 186.767 284.901 188.085C285.661 189.402 287.982 189.486 290.084 188.272Z" fill="#FFEA83"/>
<path d="M292.508 192.483C294.029 192.483 295.262 190.515 295.262 188.088C295.262 185.661 294.029 183.693 292.508 183.693C290.987 183.693 289.754 185.661 289.754 188.088C289.754 190.515 290.987 192.483 292.508 192.483Z" fill="#FFEA83"/>
<path d="M300.118 188.095C300.879 186.778 299.791 184.726 297.689 183.513C295.587 182.299 293.267 182.383 292.506 183.7C291.745 185.018 292.833 187.07 294.935 188.283C297.037 189.497 299.358 189.413 300.118 188.095Z" fill="#FFEA83"/>
<path d="M297.687 183.89C299.789 182.676 300.877 180.625 300.116 179.307C299.356 177.99 297.035 177.906 294.933 179.12C292.831 180.333 291.744 182.385 292.504 183.702C293.265 185.02 295.585 185.104 297.687 183.89Z" fill="#FFEA83"/>
<path d="M292.508 183.693C294.029 183.693 295.262 181.725 295.262 179.298C295.262 176.871 294.029 174.903 292.508 174.903C290.987 174.903 289.754 176.871 289.754 179.298C289.754 181.725 290.987 183.693 292.508 183.693Z" fill="#FFEA83"/>
<path d="M292.508 183.01C292.691 183.01 292.84 182.59 292.84 182.072C292.84 181.554 292.691 181.135 292.508 181.135C292.324 181.135 292.176 181.554 292.176 182.072C292.176 182.59 292.324 183.01 292.508 183.01Z" fill="white"/>
<path d="M292.388 183.04C292.479 182.881 292.19 182.543 291.742 182.284C291.293 182.025 290.855 181.944 290.764 182.103C290.672 182.261 290.961 182.6 291.41 182.859C291.858 183.118 292.296 183.199 292.388 183.04Z" fill="white"/>
<path d="M291.728 183.929C292.176 183.67 292.466 183.332 292.374 183.173C292.282 183.014 291.844 183.095 291.396 183.354C290.948 183.613 290.658 183.952 290.75 184.11C290.842 184.269 291.28 184.188 291.728 183.929Z" fill="white"/>
<path d="M292.49 185.1C292.674 185.1 292.822 184.68 292.822 184.162C292.822 183.644 292.674 183.224 292.49 183.224C292.307 183.224 292.158 183.644 292.158 184.162C292.158 184.68 292.307 185.1 292.49 185.1Z" fill="white"/>
<path d="M294.214 184.131C294.306 183.972 294.016 183.634 293.568 183.375C293.119 183.116 292.682 183.035 292.59 183.193C292.498 183.352 292.787 183.691 293.236 183.95C293.684 184.209 294.122 184.29 294.214 184.131Z" fill="white"/>
<path d="M293.564 182.876C294.012 182.617 294.302 182.279 294.21 182.12C294.118 181.961 293.68 182.042 293.232 182.301C292.783 182.56 292.494 182.899 292.586 183.057C292.678 183.216 293.116 183.135 293.564 182.876Z" fill="white"/>
<path d="M259.55 249.904L266.379 247.923L256.043 212.298L249.214 214.279L259.55 249.904Z" fill="#FFEA83"/>
<path d="M251.347 209.251L251.535 209.197C251.794 209.121 251.943 208.851 251.868 208.592L251.111 205.984C251.036 205.725 250.765 205.576 250.506 205.651L250.319 205.705C250.06 205.781 249.911 206.052 249.986 206.311L250.742 208.918C250.817 209.177 251.088 209.326 251.347 209.251Z" fill="#FFEA83"/>
<path d="M250.492 208.051L249.203 214.302L252.621 213.306L256.04 212.31L251.625 207.719L250.492 208.051Z" fill="#F4CBA2"/>
<path d="M249.281 214.536L249.359 214.829C249.359 214.829 249.906 214.048 250.043 214.048C250.18 214.048 250.688 214.634 250.903 214.595C251.117 214.556 251.352 213.677 251.43 213.638C251.508 213.599 252.348 214.302 252.504 214.282C252.661 214.263 253.09 213.15 253.227 213.11C253.364 213.071 254.184 213.853 254.419 213.911C254.731 214.009 254.751 212.681 254.907 212.603C255.063 212.524 255.708 213.071 255.805 213.032C255.903 212.993 256.02 212.271 256.02 212.271L249.184 214.263L249.242 214.497L249.281 214.536Z" fill="#F4CBA2"/>
<path d="M265.182 250.204L266.393 247.938L264.167 246.649L260.748 247.645L259.557 249.911L261.783 251.2L265.182 250.204Z" fill="#FFEA83"/>
<path d="M264.538 249.833L265.377 248.231L263.815 247.313L261.393 248.016L260.553 249.618L262.135 250.536L264.538 249.833Z" fill="#F4CBA2"/>
<path d="M263.235 249.806C263.753 249.656 264.088 249.24 263.982 248.877C263.877 248.515 263.372 248.342 262.854 248.493C262.336 248.643 262.001 249.059 262.107 249.421C262.212 249.784 262.717 249.956 263.235 249.806Z" fill="#FFEA83"/>
<path d="M194.414 206.606V244.383" stroke="#E5E6E7" stroke-width="0.4688" stroke-linecap="round" stroke-linejoin="round"/>
<path d="M98.4632 214.829C101.745 213.462 107.449 212.563 113.953 212.563C120.458 212.563 126.161 213.462 129.443 214.829H132.373V217.505C132.373 220.24 124.13 222.447 113.953 222.447C103.776 222.447 95.5332 220.24 95.5332 217.505V214.829H98.4632Z" fill="#E0C0BD"/>
<path d="M134.797 159.511L136.555 162.558C136.555 162.558 117.979 172.696 116.436 174.884C114.892 177.071 115.518 202.445 115.518 202.445H112.021C112.021 202.445 111.709 175.587 112.959 173.009C114.209 170.43 134.797 159.511 134.797 159.511Z" fill="#E5D1B3"/>
<path d="M109.969 214.556H117.9C119.17 214.556 120.166 213.501 120.088 212.251L119.521 204.145C119.443 203.012 118.486 202.133 117.333 202.133H110.516C109.364 202.133 108.407 203.012 108.329 204.145L107.762 212.251C107.684 213.501 108.68 214.556 109.95 214.556H109.969Z" fill="#F4D8D3"/>
<path d="M113.936 219.772C124.109 219.772 132.355 217.559 132.355 214.83C132.355 212.1 124.109 209.888 113.936 209.888C103.763 209.888 95.5156 212.1 95.5156 214.83C95.5156 217.559 103.763 219.772 113.936 219.772Z" fill="#F4D8D3"/>
<path d="M139.092 173.258L141.717 172.195C143.567 171.445 144.459 169.338 143.71 167.489L140.813 160.337C140.064 158.487 137.957 157.595 136.107 158.344L133.482 159.408C131.632 160.157 130.74 162.264 131.489 164.114L134.386 171.265C135.135 173.115 137.242 174.007 139.092 173.258Z" fill="#F4D8D3"/>
<path d="M132.157 185.197L128.875 170.352C128.504 169.16 129.364 167.754 130.829 167.168L143.584 162.011C145.068 161.406 146.651 161.816 147.217 162.929L155.206 175.88C155.206 175.88 155.245 176.016 155.265 176.075L132.235 185.412C132.235 185.412 132.176 185.295 132.157 185.236V185.197Z" fill="#F4D8D3"/>
<path d="M144.54 182.684C150.91 180.105 155.718 177.138 155.281 176.058C154.844 174.978 149.326 176.194 142.956 178.774C136.587 181.354 131.778 184.32 132.216 185.4C132.653 186.48 138.171 185.264 144.54 182.684Z" fill="#FFFCF0"/>
<path d="M242.191 221.627H230.041L228.44 206.293C228.44 204.399 226.955 202.855 225.119 202.855H161.186C159.35 202.855 157.866 204.399 157.866 206.293L153.471 248.466C153.471 250.361 154.955 251.904 156.791 251.904C168.004 250.595 178.805 250.907 189.939 251.552C190.154 252.099 190.701 252.49 191.326 252.49H196.757C197.343 252.49 197.831 252.138 198.085 251.65C208.574 251.22 218.341 250.693 229.534 251.884C231.37 251.884 232.854 250.341 232.854 248.446L230.862 229.538H242.172C243.305 229.538 244.223 228.6 244.223 227.467V223.698C244.223 222.565 243.305 221.627 242.172 221.627H242.191Z" fill="#FFF1D6"/>
<path d="M240.766 227.37C241.996 227.37 242.993 226.373 242.993 225.143C242.993 223.913 241.996 222.916 240.766 222.916C239.536 222.916 238.539 223.913 238.539 225.143C238.539 226.373 239.536 227.37 240.766 227.37Z" fill="white"/>
<path d="M225.197 206.371C225.197 205.746 223.888 205.063 223.185 204.867C212.559 202.074 205.351 202.426 194.725 205.239C194.08 205.414 193.553 205.473 193.514 206.02C193.514 205.649 193.084 205.453 192.361 205.239C181.735 202.055 174.781 201.723 164.155 204.926C163.491 205.063 161.889 205.766 161.889 206.391L158.061 248.29C158.061 248.915 158.588 249.423 159.233 249.423C169.859 246.18 181.735 246.18 192.361 249.423H194.705C205.702 247.079 217.5 247.079 227.775 249.423C228.42 249.423 228.947 248.915 228.947 248.29L225.177 206.391L225.197 206.371Z" fill="#E5E6E7"/>
<path d="M224.102 205.883C224.102 205.277 223.614 204.984 222.97 204.789C212.695 201.742 204.94 201.761 194.685 204.789C194.06 204.945 193.552 205.004 193.533 205.531C193.533 205.18 193.123 205.004 192.419 204.789C182.145 201.761 174.8 201.761 164.545 204.789C163.901 204.984 163.412 205.277 163.412 205.883L160.502 245.731C160.502 246.336 161.01 246.825 161.635 246.825C171.48 243.856 181.305 243.739 191.15 246.454C192.009 246.688 192.888 246.825 193.787 246.825C194.412 246.825 195.017 246.766 195.642 246.629C205.917 244.578 215.879 244.637 225.528 246.825C226.153 246.825 226.661 246.336 226.661 245.731L224.142 205.883H224.102Z" fill="white"/>
<path d="M198.397 216.607C198.3 215.982 198.183 215.376 198.046 214.771C197.304 211.352 196.229 208.012 195.155 204.672L194.374 204.887C194.374 204.887 194.1 204.926 193.788 205.082C193.475 205.238 193.534 205.551 193.534 205.551C194.686 209.555 196.249 213.638 196.757 217.779C197.206 221.392 197.089 224.987 196.991 228.62C196.893 232.214 196.698 235.828 196.249 239.402C195.936 241.902 195.467 244.364 195.116 246.844C194.96 247.919 194.745 249.071 194.706 250.185C194.667 251.181 194.647 252.763 195.331 253.564C195.721 253.095 195.839 252.294 196.034 251.728C196.366 252.216 196.62 252.782 197.069 253.193C196.991 253.115 197.108 252.196 197.108 252.06C197.108 251.571 197.05 251.083 197.069 250.595C197.147 246.727 197.362 242.781 197.811 238.933C198.183 235.339 198.593 231.784 198.788 228.17L198.847 227.174C199.042 223.639 199.003 220.103 198.417 216.587L198.397 216.607Z" fill="#FFEA83"/>
<path d="M56.4086 279.789H42.6348V296.083H56.4086V279.789Z" fill="#BAA899"/>
<path d="M32.9113 311.874H31.8223C29.5614 311.874 27.7285 313.707 27.7285 315.968V340.147C27.7285 342.408 29.5614 344.241 31.8223 344.241H32.9113C35.1723 344.241 37.0052 342.408 37.0052 340.147V315.968C37.0052 313.707 35.1723 311.874 32.9113 311.874Z" fill="#BAA899"/>
<path d="M53.3415 320.122H52.2122C49.8287 320.122 47.8965 322.054 47.8965 324.438V350.231C47.8965 352.614 49.8287 354.547 52.2122 354.547H53.3415C55.725 354.547 57.6572 352.614 57.6572 350.231V324.438C57.6572 322.054 55.725 320.122 53.3415 320.122Z" fill="#BAA899"/>
<path d="M69.779 306.348H68.6497C66.2662 306.348 64.334 308.28 64.334 310.664V336.457C64.334 338.84 66.2662 340.773 68.6497 340.773H69.779C72.1625 340.773 74.0947 338.84 74.0947 336.457V310.664C74.0947 308.28 72.1625 306.348 69.779 306.348Z" fill="#BAA899"/>
<path d="M90.6904 314.637H89.5409C87.1128 314.637 85.1445 316.605 85.1445 319.033V344.665C85.1445 347.093 87.1128 349.061 89.5409 349.061H90.6904C93.1184 349.061 95.0867 347.093 95.0867 344.665V319.033C95.0867 316.605 93.1184 314.637 90.6904 314.637Z" fill="#BAA899"/>
<path d="M103.052 314.738C102.91 322.26 84.7403 328.027 62.4562 327.624C40.172 327.221 22.2237 320.788 22.3648 313.265C22.3648 312.217 22.022 306.651 22.5867 305.461C25.6722 298.826 43.802 300.036 62.9603 300.379C82.4212 300.742 101.519 299.895 103.132 306.994C103.374 308.083 103.072 313.79 103.052 314.758V314.738Z" fill="#CEB79F"/>
<path d="M103.188 307.781C103.327 300.254 85.376 293.817 63.0932 293.405C40.8104 292.992 22.6337 298.761 22.4944 306.288C22.3551 313.816 40.306 320.253 62.5888 320.665C84.8716 321.078 103.048 315.309 103.188 307.781Z" fill="#DDC8B1"/>
<path d="M78.9705 256.92C78.3453 253.834 77.095 249.72 74.796 248.631C71.408 247.038 65.8823 246.574 64.7328 246.493C64.7328 246.493 64.7328 246.493 64.7127 246.493C64.5917 246.493 64.511 246.493 64.511 246.493H64.3093C63.8657 246.473 63.4422 246.453 62.9985 246.453L34.1803 247.139C24.9037 247.361 17.5428 255.064 17.7647 264.361L17.8655 268.778C18.0268 275.271 21.8383 280.817 27.2833 283.479C28.2715 283.963 29.3403 284.366 30.4293 284.649C31.9216 285.032 38.3548 286.383 39.9681 286.363L63.8858 284.508C73.1625 284.286 80.5233 276.582 80.3015 267.285L80.2007 262.869C80.1402 260.771 79.6965 258.775 78.9503 256.94L78.9705 256.92Z" fill="#CEB79F"/>
<path d="M69.1825 247.638L40.3727 248.332C31.0865 248.555 23.7399 256.265 23.9636 265.551L24.07 269.966C24.2937 279.252 32.003 286.599 41.2892 286.375L70.099 285.681C79.3852 285.457 86.7318 277.748 86.5081 268.462L86.4017 264.047C86.178 254.761 78.4687 247.414 69.1825 247.638Z" fill="#DDC8B1"/>
</svg>
