<svg width="130" height="130" viewBox="0 0 130 130" fill="none" xmlns="http://www.w3.org/2000/svg">
<path d="M8.87831 69.3829H121.105C121.941 69.3829 122.61 70.0514 122.61 70.8872V89.05H7.37402V70.8872C7.37402 70.0514 8.0426 69.3829 8.87831 69.3829Z" fill="#E2D0BF"/>
<path d="M7.37402 89.0499H36.4012V108.457C36.4012 108.94 36.0112 109.349 35.5097 109.349H8.26545C7.78259 109.349 7.37402 108.959 7.37402 108.457V89.0499Z" fill="#DDC8B1"/>
<path d="M93.6016 89.0499H122.629V108.457C122.629 108.94 122.239 109.349 121.737 109.349H94.4744C93.9916 109.349 93.583 108.959 93.583 108.457V89.0499H93.6016Z" fill="#DDC8B1"/>
<path d="M93.6004 89.0499H36.4004V97.5928H93.6004V89.0499Z" fill="#D6BEA5"/>
<path d="M92.2073 31.7571H37.8116C35.9756 31.7571 34.4873 33.2455 34.4873 35.0814V68.3057C34.4873 70.1417 35.9756 71.63 37.8116 71.63H92.2073C94.0433 71.63 95.5316 70.1417 95.5316 68.3057V35.0814C95.5316 33.2455 94.0433 31.7571 92.2073 31.7571Z" fill="#949992"/>
<path d="M73.802 35.7315H41.432C40.037 35.7315 38.9062 36.8623 38.9062 38.2572V65.1486C38.9062 66.5435 40.037 67.6743 41.432 67.6743H73.802C75.1969 67.6743 76.3277 66.5435 76.3277 65.1486V38.2572C76.3277 36.8623 75.1969 35.7315 73.802 35.7315Z" fill="white"/>
<path d="M51.0537 21.7471L62.6051 31.7571" stroke="#949992" stroke-width="0.742857" stroke-linecap="round" stroke-linejoin="round"/>
<path d="M74.1764 21.7471L62.6064 31.7571" stroke="#949992" stroke-width="0.742857" stroke-linecap="round" stroke-linejoin="round"/>
<path d="M86.0437 46.7443C88.2899 46.7443 90.1109 44.9234 90.1109 42.6771C90.1109 40.4309 88.2899 38.61 86.0437 38.61C83.7975 38.61 81.9766 40.4309 81.9766 42.6771C81.9766 44.9234 83.7975 46.7443 86.0437 46.7443Z" fill="white"/>
<path d="M86.0437 56.7913C88.2899 56.7913 90.1109 54.9704 90.1109 52.7241C90.1109 50.4779 88.2899 48.657 86.0437 48.657C83.7975 48.657 81.9766 50.4779 81.9766 52.7241C81.9766 54.9704 83.7975 56.7913 86.0437 56.7913Z" fill="white"/>
<path d="M91.6884 60.1529H79.8956C79.2494 60.1529 78.7256 60.6767 78.7256 61.3229V61.3415C78.7256 61.9876 79.2494 62.5115 79.8956 62.5115H91.6884C92.3346 62.5115 92.8584 61.9876 92.8584 61.3415V61.3229C92.8584 60.6767 92.3346 60.1529 91.6884 60.1529Z" fill="white"/>
<path d="M91.6884 63.6072H79.8956C79.2494 63.6072 78.7256 64.131 78.7256 64.7772V64.7957C78.7256 65.4419 79.2494 65.9657 79.8956 65.9657H91.6884C92.3346 65.9657 92.8584 65.4419 92.8584 64.7957V64.7772C92.8584 64.131 92.3346 63.6072 91.6884 63.6072Z" fill="white"/>
<path d="M48.4172 71.4991C48.704 70.3656 48.0216 69.2152 46.8931 68.9296C45.7645 68.644 44.6171 69.3314 44.3303 70.465L42.221 78.8008C41.9341 79.9344 42.6165 81.0848 43.7451 81.3703C44.8736 81.6559 46.021 80.9685 46.3079 79.835L48.4172 71.4991Z" fill="#949992"/>
<path d="M82.5881 79.8463C82.8749 80.9798 84.0223 81.6672 85.1509 81.3817C86.2794 81.0961 86.9618 79.9457 86.675 78.8121L84.5657 70.4763C84.2789 69.3427 83.1315 68.6553 82.0029 68.9409C80.8743 69.2265 80.192 70.3769 80.4788 71.5104L82.5881 79.8463Z" fill="#949992"/>
<path d="M50.9424 22.9172C51.5681 22.9172 52.0753 22.41 52.0753 21.7843C52.0753 21.1587 51.5681 20.6515 50.9424 20.6515C50.3168 20.6515 49.8096 21.1587 49.8096 21.7843C49.8096 22.41 50.3168 22.9172 50.9424 22.9172Z" fill="#949992"/>
<path d="M74.1182 22.9172C74.7439 22.9172 75.2511 22.41 75.2511 21.7843C75.2511 21.1587 74.7439 20.6515 74.1182 20.6515C73.4926 20.6515 72.9854 21.1587 72.9854 21.7843C72.9854 22.41 73.4926 22.9172 74.1182 22.9172Z" fill="#949992"/>
</svg>
