<svg width="116" height="100" viewBox="0 0 116 100" fill="none" xmlns="http://www.w3.org/2000/svg">
<path d="M1.87782 59.3828H114.105C114.941 59.3828 115.609 60.0514 115.609 60.8871V79.05H0.373535V60.8871C0.373535 60.0514 1.04211 59.3828 1.87782 59.3828Z" fill="#E2D0BF"/>
<path d="M0.373535 79.0499H29.4007V98.4571C29.4007 98.9399 29.0107 99.3485 28.5093 99.3485H1.26496C0.782106 99.3485 0.373535 98.9585 0.373535 98.4571V79.0499Z" fill="#DDC8B1"/>
<path d="M86.6016 79.0499H115.629V98.4571C115.629 98.9399 115.239 99.3485 114.737 99.3485H87.4744C86.9916 99.3485 86.583 98.9585 86.583 98.4571V79.0499H86.6016Z" fill="#DDC8B1"/>
<path d="M86.6004 79.0499H29.4004V87.5928H86.6004V79.0499Z" fill="#D6BEA5"/>
<g filter="url(#filter0_d_2214_45449)">
<path d="M67.1517 9.43162C67.7841 9.43162 68.2925 9.94002 68.2925 10.5724C68.2925 11.2048 67.7841 11.7132 67.1517 11.7132C66.9037 11.7132 66.6805 11.614 66.4821 11.4776L55.9793 20.5916H86.3965C87.6241 20.5916 88.6161 21.5836 88.6161 22.8112V58.3744C88.6161 59.602 87.6241 60.594 86.3965 60.594H77.9273L79.9237 68.4804C80.1097 69.2368 79.6509 70.0056 78.9069 70.1916L77.5305 70.5388C77.4189 70.5636 77.2949 70.576 77.1833 70.576C76.5509 70.576 75.9805 70.1544 75.8193 69.5096L73.5625 60.5816H41.3473L39.0905 69.5096C38.9293 70.142 38.3465 70.576 37.7265 70.576C37.6149 70.576 37.5033 70.5636 37.3793 70.5388L36.0029 70.1916C35.2465 70.0056 34.7877 69.2368 34.9861 68.4804L36.9825 60.594H29.6169C28.3893 60.594 27.3973 59.602 27.3973 58.3744V22.8112C27.3973 21.5836 28.3893 20.5916 29.6169 20.5916H55.2353L44.6581 11.428C44.4597 11.6016 44.1993 11.7256 43.9141 11.7256C43.2817 11.7256 42.7733 11.2172 42.7733 10.5848C42.7733 9.95242 43.2817 9.44402 43.9141 9.44402C44.5465 9.44402 45.0549 9.95242 45.0549 10.5848C45.0549 10.746 45.0177 10.8948 44.9681 11.0312L55.6197 20.2692L66.1721 11.118C66.0853 10.9568 66.0233 10.7832 66.0233 10.5848C66.0233 9.95242 66.5317 9.44402 67.1641 9.44402M67.1641 3.24402C64.0269 3.24402 61.3361 5.22802 60.2945 8.00562L55.6197 12.0604L50.7093 7.80722C49.6181 5.12882 46.9769 3.24402 43.9141 3.24402C39.8717 3.24402 36.5733 6.54242 36.5733 10.5848C36.5733 11.9736 36.9701 13.288 37.6397 14.3916H29.6169C24.9793 14.3916 21.1973 18.1736 21.1973 22.8112V58.3744C21.1973 62.8136 24.6569 66.4716 29.0217 66.7692L28.9721 66.9552C27.9429 71.0224 30.4105 75.164 34.4777 76.1932L35.8541 76.5404C36.4617 76.6892 37.0941 76.776 37.7141 76.776C41.1985 76.776 44.2365 74.4076 45.0921 71.0348L46.1709 66.794H68.7389L69.8177 71.0348C70.6733 74.42 73.7113 76.776 77.1957 76.776C77.8281 76.776 78.4481 76.7016 79.0557 76.5404L80.4321 76.1932C84.4993 75.164 86.9669 71.01 85.9377 66.9552L85.9005 66.794H86.3965C91.0341 66.794 94.8161 63.012 94.8161 58.3744V22.8112C94.8161 18.1736 91.0341 14.3916 86.3965 14.3916H73.4261C74.1081 13.2756 74.4925 11.9736 74.4925 10.5848C74.4925 6.54242 71.1941 3.24402 67.1517 3.24402H67.1641Z" fill="url(#paint0_radial_2214_45449)"/>
</g>
<path d="M86.3959 20.5826H29.6039C28.378 20.5826 27.3843 21.5764 27.3843 22.8022V58.3654C27.3843 59.5913 28.378 60.585 29.6039 60.585H86.3959C87.6217 60.585 88.6155 59.5913 88.6155 58.3654V22.8022C88.6155 21.5764 87.6217 20.5826 86.3959 20.5826Z" fill="#949992"/>
<path d="M67.6721 24.5646H33.5101C32.5788 24.5646 31.8237 25.3196 31.8237 26.251V54.9322C31.8237 55.8636 32.5788 56.6186 33.5101 56.6186H67.6721C68.6035 56.6186 69.3585 55.8636 69.3585 54.9322V26.251C69.3585 25.3196 68.6035 24.5646 67.6721 24.5646Z" fill="white"/>
<path d="M44.0005 10.5278L55.6069 20.5842" stroke="#949992" stroke-width="0.496" stroke-linecap="round" stroke-linejoin="round"/>
<path d="M67.2009 10.5278L55.6069 20.5842" stroke="#949992" stroke-width="0.496" stroke-linecap="round" stroke-linejoin="round"/>
<path d="M79.1047 35.6225C81.3646 35.6225 83.1967 33.7904 83.1967 31.5305C83.1967 29.2705 81.3646 27.4385 79.1047 27.4385C76.8447 27.4385 75.0127 29.2705 75.0127 31.5305C75.0127 33.7904 76.8447 35.6225 79.1047 35.6225Z" fill="white"/>
<path d="M79.1047 45.7056C81.3646 45.7056 83.1967 43.8736 83.1967 41.6136C83.1967 39.3537 81.3646 37.5216 79.1047 37.5216C76.8447 37.5216 75.0127 39.3537 75.0127 41.6136C75.0127 43.8736 76.8447 45.7056 79.1047 45.7056Z" fill="white"/>
<path d="M85.1562 49.0659H72.5454C72.1139 49.0659 71.7642 49.4157 71.7642 49.8471V50.6531C71.7642 51.0846 72.1139 51.4343 72.5454 51.4343H85.1562C85.5876 51.4343 85.9374 51.0846 85.9374 50.6531V49.8471C85.9374 49.4157 85.5876 49.0659 85.1562 49.0659Z" fill="white"/>
<path d="M85.1562 52.5372H72.5454C72.1139 52.5372 71.7642 52.887 71.7642 53.3184V54.1244C71.7642 54.5559 72.1139 54.9056 72.5454 54.9056H85.1562C85.5876 54.9056 85.9374 54.5559 85.9374 54.1244V53.3184C85.9374 52.887 85.5876 52.5372 85.1562 52.5372Z" fill="white"/>
<path d="M40.5289 58.0383L39.1585 57.6915C38.4016 57.5 37.6328 57.9583 37.4413 58.7151L34.9775 68.4522C34.7859 69.2091 35.2442 69.9779 36.0011 70.1694L37.3715 70.5162C38.1284 70.7077 38.8972 70.2494 39.0887 69.4925L41.5525 59.7554C41.7441 58.9986 41.2858 58.2298 40.5289 58.0383Z" fill="#949992"/>
<path d="M77.5341 70.5351L78.9045 70.1883C79.6614 69.9968 80.1196 69.228 79.9281 68.4711L77.4643 58.734C77.2728 57.9772 76.504 57.5189 75.7471 57.7104L74.3767 58.0572C73.6198 58.2487 73.1615 59.0175 73.353 59.7743L75.8169 69.5114C76.0084 70.2683 76.7772 70.7266 77.5341 70.5351Z" fill="#949992"/>
<path d="M43.9011 11.7154C44.5311 11.7154 45.0419 11.2047 45.0419 10.5746C45.0419 9.94459 44.5311 9.43384 43.9011 9.43384C43.271 9.43384 42.7603 9.94459 42.7603 10.5746C42.7603 11.2047 43.271 11.7154 43.9011 11.7154Z" fill="#949992"/>
<path d="M67.1511 11.7154C67.7811 11.7154 68.2919 11.2047 68.2919 10.5746C68.2919 9.94459 67.7811 9.43384 67.1511 9.43384C66.521 9.43384 66.0103 9.94459 66.0103 10.5746C66.0103 11.2047 66.521 11.7154 67.1511 11.7154Z" fill="#949992"/>
<defs>
<filter id="filter0_d_2214_45449" x="18.7173" y="0.764019" width="83.5387" height="83.452" filterUnits="userSpaceOnUse" color-interpolation-filters="sRGB">
<feFlood flood-opacity="0" result="BackgroundImageFix"/>
<feColorMatrix in="SourceAlpha" type="matrix" values="0 0 0 0 0 0 0 0 0 0 0 0 0 0 0 0 0 0 127 0" result="hardAlpha"/>
<feOffset dx="2.48" dy="2.48"/>
<feGaussianBlur stdDeviation="2.48"/>
<feColorMatrix type="matrix" values="0 0 0 0 0.137255 0 0 0 0 0.137255 0 0 0 0 0.137255 0 0 0 0.1 0"/>
<feBlend mode="normal" in2="BackgroundImageFix" result="effect1_dropShadow_2214_45449"/>
<feBlend mode="normal" in="SourceGraphic" in2="effect1_dropShadow_2214_45449" result="shape"/>
</filter>
<radialGradient id="paint0_radial_2214_45449" cx="0" cy="0" r="1" gradientUnits="userSpaceOnUse" gradientTransform="translate(58.0005 39.9976) scale(79.2484 79.2484)">
<stop stop-color="white"/>
<stop offset="0.08" stop-color="white" stop-opacity="0.96"/>
<stop offset="0.23" stop-color="white" stop-opacity="0.86"/>
<stop offset="0.41" stop-color="white" stop-opacity="0.7"/>
<stop offset="0.62" stop-color="white" stop-opacity="0.47"/>
<stop offset="0.86" stop-color="white" stop-opacity="0.18"/>
<stop offset="1" stop-color="white" stop-opacity="0"/>
</radialGradient>
</defs>
</svg>
