<svg width="116" height="90" viewBox="0 0 116 90" fill="none" xmlns="http://www.w3.org/2000/svg">
<path d="M1.87782 49.3828H114.105C114.941 49.3828 115.609 50.0514 115.609 50.8871V69.05H0.373535V50.8871C0.373535 50.0514 1.04211 49.3828 1.87782 49.3828Z" fill="#E2D0BF"/>
<path d="M0.373535 69.0508H29.4007V88.4579C29.4007 88.9408 29.0107 89.3494 28.5093 89.3494H1.26496C0.782106 89.3494 0.373535 88.9594 0.373535 88.4579V69.0508Z" fill="#DDC8B1"/>
<path d="M86.6016 69.0508H115.629V88.4579C115.629 88.9408 115.239 89.3494 114.737 89.3494H87.4744C86.9916 89.3494 86.583 88.9594 86.583 88.4579V69.0508H86.6016Z" fill="#DDC8B1"/>
<path d="M86.6004 69.0508H29.4004V77.5936H86.6004V69.0508Z" fill="#D6BEA5"/>
<path d="M85.2073 11.7578H30.8116C28.9756 11.7578 27.4873 13.2461 27.4873 15.0821V48.3064C27.4873 50.1423 28.9756 51.6307 30.8116 51.6307H85.2073C87.0433 51.6307 88.5316 50.1423 88.5316 48.3064V15.0821C88.5316 13.2461 87.0433 11.7578 85.2073 11.7578Z" fill="#949992"/>
<path d="M66.802 15.7305H34.432C33.037 15.7305 31.9062 16.8613 31.9062 18.2562V45.1476C31.9062 46.5425 33.037 47.6733 34.432 47.6733H66.802C68.1969 47.6733 69.3277 46.5425 69.3277 45.1476V18.2562C69.3277 16.8613 68.1969 15.7305 66.802 15.7305Z" fill="white"/>
<path d="M44.0537 1.74609L55.6051 11.7561" stroke="#949992" stroke-width="0.742857" stroke-linecap="round" stroke-linejoin="round"/>
<path d="M67.1764 1.74609L55.6064 11.7561" stroke="#949992" stroke-width="0.742857" stroke-linecap="round" stroke-linejoin="round"/>
<path d="M79.0437 26.7437C81.2899 26.7437 83.1109 24.9227 83.1109 22.6765C83.1109 20.4303 81.2899 18.6094 79.0437 18.6094C76.7975 18.6094 74.9766 20.4303 74.9766 22.6765C74.9766 24.9227 76.7975 26.7437 79.0437 26.7437Z" fill="white"/>
<path d="M79.0437 36.7905C81.2899 36.7905 83.1109 34.9696 83.1109 32.7234C83.1109 30.4772 81.2899 28.6562 79.0437 28.6562C76.7975 28.6562 74.9766 30.4772 74.9766 32.7234C74.9766 34.9696 76.7975 36.7905 79.0437 36.7905Z" fill="white"/>
<path d="M84.6884 40.1523H72.8956C72.2494 40.1523 71.7256 40.6762 71.7256 41.3223V41.3409C71.7256 41.9871 72.2494 42.5109 72.8956 42.5109H84.6884C85.3346 42.5109 85.8584 41.9871 85.8584 41.3409V41.3223C85.8584 40.6762 85.3346 40.1523 84.6884 40.1523Z" fill="white"/>
<path d="M84.6884 43.6074H72.8956C72.2494 43.6074 71.7256 44.1313 71.7256 44.7774V44.796C71.7256 45.4422 72.2494 45.966 72.8956 45.966H84.6884C85.3346 45.966 85.8584 45.4422 85.8584 44.796V44.7774C85.8584 44.1313 85.3346 43.6074 84.6884 43.6074Z" fill="white"/>
<path d="M41.4172 51.4987C41.704 50.3652 41.0216 49.2148 39.8931 48.9292C38.7645 48.6436 37.6171 49.331 37.3303 50.4646L35.221 58.8004C34.9341 59.9339 35.6165 61.0844 36.7451 61.3699C37.8736 61.6555 39.021 60.9681 39.3079 59.8346L41.4172 51.4987Z" fill="#949992"/>
<path d="M75.5876 59.8469C75.8744 60.9805 77.0218 61.6679 78.1504 61.3823C79.279 61.0967 79.9613 59.9463 79.6745 58.8128L77.5652 50.4769C77.2784 49.3434 76.131 48.656 75.0024 48.9416C73.8738 49.2271 73.1915 50.3775 73.4783 51.5111L75.5876 59.8469Z" fill="#949992"/>
<path d="M43.9424 2.91806C44.5681 2.91806 45.0753 2.41086 45.0753 1.7852C45.0753 1.15954 44.5681 0.652344 43.9424 0.652344C43.3168 0.652344 42.8096 1.15954 42.8096 1.7852C42.8096 2.41086 43.3168 2.91806 43.9424 2.91806Z" fill="#949992"/>
<path d="M67.1182 2.91806C67.7439 2.91806 68.2511 2.41086 68.2511 1.7852C68.2511 1.15954 67.7439 0.652344 67.1182 0.652344C66.4926 0.652344 65.9854 1.15954 65.9854 1.7852C65.9854 2.41086 66.4926 2.91806 67.1182 2.91806Z" fill="#949992"/>
</svg>
