<svg width="98" height="98" viewBox="0 0 98 98" fill="none" xmlns="http://www.w3.org/2000/svg">
<path d="M79.0649 7.7419H18.9321C16.0852 7.7419 13.7773 10.0498 13.7773 12.8967V85.1031C13.7773 87.95 16.0852 90.2579 18.9321 90.2579H79.0649C81.9119 90.2579 84.2197 87.95 84.2197 85.1031V12.8967C84.2197 10.0498 81.9119 7.7419 79.0649 7.7419Z" fill="#DDC8B1"/>
<path d="M74.5587 13.034H23.4419C20.595 13.034 18.2871 15.3419 18.2871 18.1888V79.8308C18.2871 82.6778 20.595 84.9856 23.4419 84.9856H74.5587C77.4056 84.9856 79.7135 82.6778 79.7135 79.8308V18.1888C79.7135 15.3419 77.4056 13.034 74.5587 13.034Z" fill="#F2BFB9"/>
<path d="M64.1504 20.5211H33.8488C30.1359 20.5211 27.126 23.531 27.126 27.2439V55.2523C27.126 58.9652 30.1359 61.9752 33.8488 61.9752H64.1504C67.8633 61.9752 70.8732 58.9652 70.8732 55.2523V27.2439C70.8732 23.531 67.8633 20.5211 64.1504 20.5211Z" fill="white"/>
<path d="M48.9996 77.2633C52.3228 77.2633 55.0168 74.5693 55.0168 71.2461C55.0168 67.9229 52.3228 65.2289 48.9996 65.2289C45.6764 65.2289 42.9824 67.9229 42.9824 71.2461C42.9824 74.5693 45.6764 77.2633 48.9996 77.2633Z" fill="white"/>
<path d="M51.4293 70.4619L48.4697 68.7567C47.8621 68.4039 47.0977 68.8351 47.0977 69.5407V72.9511C47.0977 73.6567 47.8621 74.0879 48.4697 73.7351L51.4293 72.0299C52.0369 71.6771 52.0369 70.7951 51.4293 70.4619Z" fill="#F2BFB9"/>
<path d="M62.1111 71.7948L59.9159 70.5404C59.3083 70.1876 58.5439 70.6188 58.5439 71.3244V73.8528C58.5439 74.5584 59.3083 74.9896 59.9159 74.6368L62.1111 73.3824C62.7187 73.0296 62.7187 72.1476 62.1111 71.8144V71.7948Z" fill="white"/>
<path d="M63.8184 70.07V75.068" stroke="white" stroke-width="0.49" stroke-linecap="round" stroke-linejoin="round"/>
<path d="M35.8893 71.7948L38.0845 70.5404C38.6921 70.1876 39.4565 70.6188 39.4565 71.3244V73.8528C39.4565 74.5584 38.6921 74.9896 38.0845 74.6368L35.8893 73.3824C35.2817 73.0296 35.2817 72.1476 35.8893 71.8144V71.7948Z" fill="white"/>
<path d="M34.1816 70.07V75.068" stroke="white" stroke-width="0.49" stroke-linecap="round" stroke-linejoin="round"/>
</svg>
