<svg width="71" height="83" viewBox="0 0 71 83" fill="none" xmlns="http://www.w3.org/2000/svg">
<path d="M65.2876 0H5.1548C2.30788 0 0 2.30788 0 5.1548V77.3612C0 80.2081 2.30788 82.516 5.1548 82.516H65.2876C68.1345 82.516 70.4424 80.2081 70.4424 77.3612V5.1548C70.4424 2.30788 68.1345 0 65.2876 0Z" fill="#DDC8B1"/>
<path d="M60.7814 5.29102H9.66457C6.81765 5.29102 4.50977 7.5989 4.50977 10.4458V72.0878C4.50977 74.9347 6.81765 77.2426 9.66457 77.2426H60.7814C63.6283 77.2426 65.9362 74.9347 65.9362 72.0878V10.4458C65.9362 7.5989 63.6283 5.29102 60.7814 5.29102Z" fill="#F2BFB9"/>
<path d="M50.373 12.7793H20.0714C16.3585 12.7793 13.3486 15.7892 13.3486 19.5021V47.5105C13.3486 51.2234 16.3585 54.2333 20.0714 54.2333H50.373C54.0859 54.2333 57.0958 51.2234 57.0958 47.5105V19.5021C57.0958 15.7892 54.0859 12.7793 50.373 12.7793Z" fill="white"/>
<path d="M35.2218 69.5207C38.545 69.5207 41.239 66.8267 41.239 63.5035C41.239 60.1803 38.545 57.4863 35.2218 57.4863C31.8986 57.4863 29.2046 60.1803 29.2046 63.5035C29.2046 66.8267 31.8986 69.5207 35.2218 69.5207Z" fill="white"/>
<path d="M37.6514 62.7195L34.6918 61.0143C34.0842 60.6615 33.3198 61.0927 33.3198 61.7983V65.2087C33.3198 65.9143 34.0842 66.3455 34.6918 65.9927L37.6514 64.2875C38.259 63.9347 38.259 63.0527 37.6514 62.7195Z" fill="#F2BFB9"/>
<path d="M48.3333 64.0519L46.1381 62.7975C45.5305 62.4447 44.7661 62.8759 44.7661 63.5815V66.1099C44.7661 66.8155 45.5305 67.2467 46.1381 66.8939L48.3333 65.6395C48.9409 65.2867 48.9409 64.4047 48.3333 64.0715V64.0519Z" fill="white"/>
<path d="M50.041 62.3281V67.3261" stroke="white" stroke-width="0.49" stroke-linecap="round" stroke-linejoin="round"/>
<path d="M22.1115 64.0519L24.3067 62.7975C24.9143 62.4447 25.6787 62.8759 25.6787 63.5815V66.1099C25.6787 66.8155 24.9143 67.2467 24.3067 66.8939L22.1115 65.6395C21.5039 65.2867 21.5039 64.4047 22.1115 64.0715V64.0519Z" fill="white"/>
<path d="M20.4038 62.3281V67.3261" stroke="white" stroke-width="0.49" stroke-linecap="round" stroke-linejoin="round"/>
</svg>
