<svg width="96" height="108" viewBox="0 0 96 108" fill="none" xmlns="http://www.w3.org/2000/svg">
<g filter="url(#filter0_d_2214_45447)">
<path d="M74.7499 3.02356H15.0259C8.32996 3.02356 2.90186 8.45166 2.90186 15.1476V86.8556C2.90186 93.5515 8.32996 98.9796 15.0259 98.9796H74.7499C81.4458 98.9796 86.8739 93.5515 86.8739 86.8556V15.1476C86.8739 8.45166 81.4458 3.02356 74.7499 3.02356Z" fill="url(#paint0_radial_2214_45447)"/>
</g>
<path d="M76.1919 10.0232H13.5839C11.5503 10.0232 9.90186 11.6717 9.90186 13.7052V88.2972C9.90186 90.3307 11.5503 91.9792 13.5839 91.9792H76.1919C78.2254 91.9792 79.8739 90.3307 79.8739 88.2972V13.7052C79.8739 11.6717 78.2254 10.0232 76.1919 10.0232Z" fill="#DDC8B1"/>
<path d="M71.7118 15.2722H18.0638C16.0303 15.2722 14.3818 16.9207 14.3818 18.9542V83.0602C14.3818 85.0937 16.0303 86.7422 18.0638 86.7422H71.7118C73.7454 86.7422 75.3938 85.0937 75.3938 83.0602V18.9542C75.3938 16.9207 73.7454 15.2722 71.7118 15.2722Z" fill="#F2BFB9"/>
<path d="M61.8278 22.7218H27.9758C25.3238 22.7218 23.1738 24.8717 23.1738 27.5238V59.0938C23.1738 61.7459 25.3238 63.8958 27.9758 63.8958H61.8278C64.4799 63.8958 66.6298 61.7459 66.6298 59.0938V27.5238C66.6298 24.8717 64.4799 22.7218 61.8278 22.7218Z" fill="white"/>
<path d="M44.8877 79.0823C48.1892 79.0823 50.8657 76.4059 50.8657 73.1043C50.8657 69.8028 48.1892 67.1263 44.8877 67.1263C41.5861 67.1263 38.9097 69.8028 38.9097 73.1043C38.9097 76.4059 41.5861 79.0823 44.8877 79.0823Z" fill="white"/>
<path d="M47.6882 72.5478L43.9922 70.4198C43.5582 70.1678 43.0122 70.4758 43.0122 70.9798V75.2498C43.0122 75.7538 43.5582 76.0618 43.9922 75.8098L47.6882 73.6818C48.1222 73.4298 48.1222 72.7998 47.6882 72.5618V72.5478Z" fill="#F2BFB9"/>
<path d="M58.2862 73.8492L55.3462 72.1552C54.9122 71.9032 54.3662 72.2112 54.3662 72.7152V76.1032C54.3662 76.6072 54.9122 76.9152 55.3462 76.6632L58.2862 74.9692C58.7202 74.7172 58.7202 74.0872 58.2862 73.8492Z" fill="white"/>
<path d="M59.6162 71.9298V76.8998" stroke="white" stroke-width="0.35" stroke-linecap="round" stroke-linejoin="round"/>
<path d="M31.4901 73.8492L34.4301 72.1552C34.8641 71.9032 35.4101 72.2112 35.4101 72.7152V76.1032C35.4101 76.6072 34.8641 76.9152 34.4301 76.6632L31.4901 74.9692C31.0561 74.7172 31.0561 74.0872 31.4901 73.8492Z" fill="white"/>
<path d="M30.1738 71.9298V76.8998" stroke="white" stroke-width="0.35" stroke-linecap="round" stroke-linejoin="round"/>
<defs>
<filter id="filter0_d_2214_45447" x="0.101856" y="0.22356" width="95.1722" height="107.156" filterUnits="userSpaceOnUse" color-interpolation-filters="sRGB">
<feFlood flood-opacity="0" result="BackgroundImageFix"/>
<feColorMatrix in="SourceAlpha" type="matrix" values="0 0 0 0 0 0 0 0 0 0 0 0 0 0 0 0 0 0 127 0" result="hardAlpha"/>
<feOffset dx="2.8" dy="2.8"/>
<feGaussianBlur stdDeviation="2.8"/>
<feColorMatrix type="matrix" values="0 0 0 0 0.137255 0 0 0 0 0.137255 0 0 0 0 0.137255 0 0 0 0.1 0"/>
<feBlend mode="normal" in2="BackgroundImageFix" result="effect1_dropShadow_2214_45447"/>
<feBlend mode="normal" in="SourceGraphic" in2="effect1_dropShadow_2214_45447" result="shape"/>
</filter>
<radialGradient id="paint0_radial_2214_45447" cx="0" cy="0" r="1" gradientUnits="userSpaceOnUse" gradientTransform="translate(44.8879 51.0016) scale(93.926 93.926)">
<stop stop-color="white"/>
<stop offset="0.08" stop-color="white" stop-opacity="0.96"/>
<stop offset="0.23" stop-color="white" stop-opacity="0.86"/>
<stop offset="0.41" stop-color="white" stop-opacity="0.7"/>
<stop offset="0.62" stop-color="white" stop-opacity="0.47"/>
<stop offset="0.86" stop-color="white" stop-opacity="0.18"/>
<stop offset="1" stop-color="white" stop-opacity="0"/>
</radialGradient>
</defs>
</svg>
