<svg width="76" height="76" viewBox="0 0 76 76" fill="none" xmlns="http://www.w3.org/2000/svg">
<path d="M70.2792 22.9519H5.69817C2.93841 22.9519 0.701172 25.1891 0.701172 27.9489V64.7139C0.701172 67.4737 2.93841 69.7109 5.69817 69.7109H70.2792C73.0389 69.7109 75.2762 67.4737 75.2762 64.7139V27.9489C75.2762 25.1891 73.0389 22.9519 70.2792 22.9519Z" fill="#DDC8B1"/>
<path d="M64.715 27.056H11.287C8.52727 27.056 6.29004 29.2933 6.29004 32.053V60.629C6.29004 63.3888 8.52727 65.626 11.287 65.626H64.715C67.4748 65.626 69.712 63.3888 69.712 60.629V32.053C69.712 29.2933 67.4748 27.056 64.715 27.056Z" fill="white"/>
<path d="M25.6313 26.125L38.5133 6.83997" stroke="#DDC8B1" stroke-width="1.748" stroke-miterlimit="10"/>
<path d="M50.3701 26.1249L38.2671 7.73291" stroke="#DDC8B1" stroke-width="1.748" stroke-miterlimit="10"/>
<path d="M38.0394 10.8111C39.1412 10.8111 40.0344 9.79878 40.0344 8.55006C40.0344 7.30135 39.1412 6.28906 38.0394 6.28906C36.9376 6.28906 36.0444 7.30135 36.0444 8.55006C36.0444 9.79878 36.9376 10.8111 38.0394 10.8111Z" fill="#C4915F"/>
<path d="M37.2196 60.705C44.2817 60.705 50.0066 54.98 50.0066 47.918C50.0066 40.8559 44.2817 35.131 37.2196 35.131C30.1576 35.131 24.4326 40.8559 24.4326 47.918C24.4326 54.98 30.1576 60.705 37.2196 60.705Z" fill="#FFF1D6"/>
<path d="M25.5937 43.2629C29.4238 43.2629 32.5287 41.5871 32.5287 39.5199C32.5287 37.4527 29.4238 35.7769 25.5937 35.7769C21.7636 35.7769 18.6587 37.4527 18.6587 39.5199C18.6587 41.5871 21.7636 43.2629 25.5937 43.2629Z" fill="#FFF1D6"/>
<path d="M50.787 42.6361C55.2257 42.6361 58.824 41.241 58.824 39.5201C58.824 37.7991 55.2257 36.4041 50.787 36.4041C46.3483 36.4041 42.75 37.7991 42.75 39.5201C42.75 41.241 46.3483 42.6361 50.787 42.6361Z" fill="#FFF1D6"/>
<path d="M31.7116 49.2481C32.6245 49.2481 33.3646 48.5081 33.3646 47.5951C33.3646 46.6822 32.6245 45.9421 31.7116 45.9421C30.7987 45.9421 30.0586 46.6822 30.0586 47.5951C30.0586 48.5081 30.7987 49.2481 31.7116 49.2481Z" fill="#231F20"/>
<path d="M40.9074 49.5709C41.8203 49.5709 42.5604 48.8308 42.5604 47.9179C42.5604 47.005 41.8203 46.2649 40.9074 46.2649C39.9945 46.2649 39.2544 47.005 39.2544 47.9179C39.2544 48.8308 39.9945 49.5709 40.9074 49.5709Z" fill="#231F20"/>
<path d="M35.8912 55.803C37.1819 55.803 38.2282 54.7567 38.2282 53.466C38.2282 52.1753 37.1819 51.129 35.8912 51.129C34.6005 51.129 33.5542 52.1753 33.5542 53.466C33.5542 54.7567 34.6005 55.803 35.8912 55.803Z" fill="#231F20"/>
</svg>
