<svg width="66" height="66" viewBox="0 0 66 66" fill="none" xmlns="http://www.w3.org/2000/svg">
<path d="M16.0361 9.76809C32.4041 10.8021 38.1241 23.6941 33.9221 38.4341C33.3501 35.2661 32.8221 32.2081 32.1621 29.2381C31.4801 26.4881 30.7761 23.3201 29.5441 20.8781C26.7501 15.8401 21.0081 12.8261 16.0361 9.74609V9.76809Z" fill="#00A04B"/>
<path d="M45.9789 6.27014C39.8849 9.30614 36.7609 14.9381 32.0529 19.5581C31.5249 12.4961 38.4109 3.74014 45.9789 6.27014Z" fill="#39B44A"/>
<path d="M32.5583 31.306C28.7083 25.674 22.7023 23.364 17.4883 19.338C24.3963 17.842 34.0323 23.452 32.5583 31.306Z" fill="#39B44A"/>
<path d="M34.8026 30.1839C34.2086 30.9759 34.0766 28.9519 34.1206 28.5779C34.9126 17.3359 50.0706 13.7059 56.8686 22.1099C50.3346 22.1099 44.4166 21.7799 39.1586 25.8719C37.5966 27.0599 35.9026 28.4459 34.7366 30.0739C34.6706 30.1399 34.5606 30.2279 34.8026 30.1839Z" fill="#00A04B"/>
<path d="M44.4397 59.73H23.3857C22.5937 59.73 21.9557 59.136 21.8897 58.366L19.5797 32.406C19.4917 31.526 20.1957 30.756 21.0757 30.756H46.7497C47.6297 30.756 48.3337 31.526 48.2457 32.406L45.9357 58.366C45.8697 59.136 45.2097 59.73 44.4397 59.73Z" fill="#949992"/>
</svg>
