<svg width="80" height="80" viewBox="0 0 80 80" fill="none" xmlns="http://www.w3.org/2000/svg">
<path d="M59.7449 51.376H20.2889C17.1529 51.376 14.5929 48.816 14.5929 45.68L11.1689 15.28C11.1689 12.144 13.7289 9.58399 16.8649 9.58399C32.6889 2.92799 48.0969 3.23199 63.1689 9.58399C66.3049 9.58399 68.8649 12.144 68.8649 15.28L65.4409 45.68C65.4409 48.816 62.8809 51.376 59.7449 51.376Z" fill="#A6A8AB"/>
<path d="M15.2154 51.4239C15.2154 48.985 13.2419 47.0079 10.8074 47.0079C8.37294 47.0079 6.39941 48.985 6.39941 51.4239V70.8799C6.39941 73.3188 8.37294 75.2959 10.8074 75.2959C13.2419 75.2959 15.2154 73.3188 15.2154 70.8799V51.4239Z" fill="#A6A8AB"/>
<path d="M72.5128 51.4241C72.5128 48.9852 70.5392 47.0081 68.1048 47.0081C65.6703 47.0081 63.6968 48.9852 63.6968 51.4241V70.8801C63.6968 73.3189 65.6703 75.2961 68.1048 75.2961C70.5392 75.2961 72.5128 73.3189 72.5128 70.8801V51.4241Z" fill="#A6A8AB"/>
<path d="M68.9456 46.176H9.5376C5.11932 46.176 1.5376 49.7577 1.5376 54.176V54.704C1.5376 59.1223 5.11932 62.704 9.5376 62.704H68.9456C73.3639 62.704 76.9456 59.1223 76.9456 54.704V54.176C76.9456 49.7577 73.3639 46.176 68.9456 46.176Z" fill="#BBBDBF"/>
<path d="M10.4496 29.4561H9.5376C5.11932 29.4561 1.5376 33.0378 1.5376 37.4561V45.5041C1.5376 49.9223 5.11932 53.5041 9.5376 53.5041H10.4496C14.8679 53.5041 18.4496 49.9223 18.4496 45.5041V37.4561C18.4496 33.0378 14.8679 29.4561 10.4496 29.4561Z" fill="#DDC8B1"/>
<path d="M70.4813 29.4561H69.5693C65.1511 29.4561 61.5693 33.0378 61.5693 37.4561V45.5041C61.5693 49.9223 65.1511 53.5041 69.5693 53.5041H70.4813C74.8996 53.5041 78.4813 49.9223 78.4813 45.5041V37.4561C78.4813 33.0378 74.8996 29.4561 70.4813 29.4561Z" fill="#DDC8B1"/>
</svg>
