<svg width="104" height="104" viewBox="0 0 104 104" fill="none" xmlns="http://www.w3.org/2000/svg">
<path d="M96.4081 10.0361H8.09473V94.9867H96.4081V10.0361Z" fill="#646493"/>
<path d="M28.1139 35.9147C26.5019 32.1187 27.5245 27.8027 30.3672 24.7694C29.6739 24.9254 28.9805 25.1507 28.3045 25.4454C22.5499 27.8894 19.6379 33.9907 21.8045 39.0694C23.9712 44.1481 30.3672 46.2801 36.1219 43.8361C37.2659 43.3507 38.3059 42.7094 39.2072 41.9641C34.4925 42.5014 29.9165 40.1787 28.1139 35.9147Z" fill="#FFF1D6"/>
<path d="M38.2706 35.3253L37.4559 34.9093C37.4559 34.9093 37.3173 34.8746 37.2479 34.9093L36.4506 35.3426C36.2946 35.4293 36.1039 35.2906 36.1213 35.1173L36.2599 34.2159C36.2599 34.2159 36.2599 34.0773 36.1906 34.0253L35.5319 33.4013C35.3933 33.2799 35.4626 33.0546 35.6533 33.0199L36.5546 32.8639C36.5546 32.8639 36.6933 32.8119 36.7106 32.7426L37.0919 31.9106C37.1613 31.7373 37.4039 31.7373 37.4906 31.9106L37.9066 32.7253C37.9066 32.7253 38.0106 32.8293 38.0799 32.8466L38.9813 32.9506C39.1546 32.9679 39.2413 33.1933 39.1026 33.3146L38.4613 33.9733C38.4613 33.9733 38.3919 34.0946 38.4093 34.1639L38.5826 35.0653C38.6173 35.2386 38.4266 35.3773 38.2706 35.3079V35.3253Z" fill="#FFF1D6"/>
<path d="M74.792 35.62L73.544 34.996C73.44 34.944 73.336 34.944 73.232 34.996L72.0187 35.672C71.776 35.8107 71.4814 35.6027 71.5334 35.3253L71.7414 33.9387C71.7414 33.8347 71.724 33.7134 71.6374 33.644L70.6147 32.6907C70.4067 32.5 70.5107 32.1534 70.788 32.1187L72.1574 31.8933C72.2614 31.876 72.3654 31.8067 72.4 31.7027L72.9894 30.4373C73.1107 30.1773 73.4574 30.1773 73.596 30.4373L74.2374 31.668C74.2894 31.772 74.376 31.824 74.4974 31.8414L75.884 32.0147C76.1614 32.0493 76.2827 32.3787 76.0747 32.5867L75.104 33.5747C75.104 33.5747 75 33.7654 75.0174 33.8694L75.2774 35.2387C75.3294 35.516 75.052 35.724 74.792 35.6027V35.62Z" fill="#FFF1D6"/>
<path d="M35.1684 70.4427L33.8684 70.5467C33.7644 70.5467 33.6778 70.6161 33.6258 70.7027L32.9844 71.8467C32.8631 72.0721 32.5164 72.0547 32.4124 71.8121L31.9098 70.5987C31.8751 70.4947 31.7884 70.4254 31.6844 70.4081L30.4018 70.1481C30.1418 70.0961 30.0551 69.7667 30.2631 69.5934L31.2511 68.7441C31.2511 68.7441 31.3724 68.5707 31.3551 68.4667L31.2164 67.1667C31.1818 66.9067 31.4764 66.7334 31.6844 66.8547L32.8111 67.5307C32.8978 67.5827 33.0018 67.5827 33.1058 67.5481L34.3018 67.0107C34.5444 66.9067 34.8044 67.1147 34.7351 67.3747L34.4404 68.6574C34.4231 68.7614 34.4404 68.8654 34.5098 68.9347L35.3938 69.9054C35.5671 70.0961 35.4458 70.4081 35.1858 70.4254L35.1684 70.4427Z" fill="#FFF1D6"/>
<path d="M72.1599 68.5013L71.0332 69.472C71.0332 69.472 70.9986 69.524 70.9812 69.5586L70.3919 71.3093C70.3399 71.4653 70.2012 71.4653 70.1492 71.3093L69.4906 69.5933C69.4906 69.5933 69.4559 69.524 69.4386 69.5066L68.2772 68.588C68.1732 68.5013 68.1732 68.2933 68.2772 68.2066L69.4039 67.236C69.4039 67.236 69.4386 67.184 69.4559 67.1493L70.0452 65.3986C70.0972 65.2426 70.2359 65.2426 70.2879 65.3986L70.9466 67.1146C70.9466 67.1146 70.9812 67.184 70.9986 67.2013L72.1599 68.12C72.2639 68.2066 72.2639 68.4146 72.1599 68.5013Z" fill="#FFF1D6"/>
<path d="M67.2202 27.0573L66.4749 27.6987C66.4749 27.6987 66.4056 27.7853 66.3882 27.8373L66.0069 28.964C65.9202 29.224 65.6776 29.224 65.5736 28.964L65.1402 27.8547C65.1402 27.8547 65.0882 27.7507 65.0362 27.716L64.2736 27.1093C64.1002 26.9707 64.1002 26.6067 64.2736 26.468L65.0189 25.8267C65.0189 25.8267 65.0882 25.74 65.1056 25.688L65.4869 24.5613C65.5735 24.3013 65.8162 24.3013 65.9202 24.5613L66.3535 25.6707C66.3535 25.6707 66.4056 25.7747 66.4576 25.8093L67.2202 26.416C67.3935 26.5547 67.3935 26.9187 67.2202 27.0573Z" fill="#FFF1D6"/>
<path d="M76.0917 63.1454L75.485 63.6654C75.485 63.6654 75.433 63.7347 75.4157 63.7867L75.1037 64.7227C75.0344 64.9307 74.8264 64.9307 74.757 64.7227L74.393 63.8041C74.393 63.8041 74.341 63.7174 74.3064 63.6827L73.6824 63.1974C73.5437 63.0934 73.5264 62.7987 73.6824 62.6774L74.289 62.1574C74.289 62.1574 74.341 62.0881 74.3584 62.0361L74.6704 61.1001C74.7397 60.8921 74.9477 60.8921 75.017 61.1001L75.381 62.0187C75.381 62.0187 75.433 62.1054 75.4677 62.1401L76.0917 62.6254C76.2304 62.7294 76.2477 63.0241 76.0917 63.1454Z" fill="#FFF1D6"/>
<path d="M95.2637 6.13607H8.73567C6.22234 6.13607 4.19434 8.16407 4.19434 10.6774V93.3054C4.19434 95.8187 6.22234 97.8467 8.73567 97.8467H95.2637C97.777 97.8467 99.805 95.8187 99.805 93.3054V10.6774C99.805 8.16407 97.777 6.13607 95.2637 6.13607ZM92.889 86.6667C92.889 89.1801 90.861 91.2081 88.3477 91.2081H15.669C13.1557 91.2081 11.1277 89.1801 11.1277 86.6667V17.3334C11.1277 14.8201 13.1557 12.7921 15.669 12.7921H88.3477C90.861 12.7921 92.889 14.8201 92.889 17.3334V86.6841V86.6667Z" fill="white"/>
<path d="M55.4665 7.59201H48.5332V96.3907H55.4665V7.59201Z" fill="white"/>
<path d="M96.4067 55.4667V48.5333L7.60807 48.5333V55.4667L96.4067 55.4667Z" fill="white"/>
<path d="M28.8763 38.8093C28.6683 39.156 28.3217 39.3986 27.871 39.5026C27.2123 39.6413 26.571 39.3986 26.2243 38.8786C26.1203 38.7226 26.1723 38.532 26.311 38.428C26.467 38.324 26.6577 38.376 26.7617 38.5146C27.0043 38.8613 27.4203 38.9133 27.7323 38.8613C28.027 38.792 28.3563 38.6013 28.4083 38.22C28.443 38.0466 28.599 37.9253 28.7897 37.9426C28.963 37.9773 29.0843 38.1333 29.067 38.324C29.0323 38.4973 28.9803 38.6706 28.8937 38.8093H28.8763Z" fill="#231F20"/>
<path d="M26.12 37.2321C26.016 37.4054 25.8774 37.5614 25.7214 37.6827C25.444 37.8907 25.1147 37.9427 24.768 37.8561C24.3347 37.7347 23.9187 37.3707 23.728 36.9201C23.6587 36.7641 23.728 36.5561 23.884 36.4867C24.04 36.4174 24.248 36.4867 24.3174 36.6427C24.4387 36.9201 24.6987 37.1454 24.9414 37.2147C25.0974 37.2494 25.2187 37.2147 25.34 37.1454C25.548 36.9894 25.704 36.6774 25.6867 36.4347C25.6694 36.2614 25.7907 36.0881 25.9814 36.0707C26.1547 36.0534 26.328 36.1747 26.3454 36.3654C26.38 36.6427 26.2934 36.9547 26.1374 37.2321H26.12Z" fill="#231F20"/>
</svg>
