<svg width="108" height="108" viewBox="0 0 108 108" fill="none" xmlns="http://www.w3.org/2000/svg">
<path d="M97.921 12.2759H12.853V94.4639H97.921V12.2759Z" fill="#AAE1FD"/>
<path d="M84.187 43.9199C88.2827 43.9199 91.603 40.5996 91.603 36.5039C91.603 32.4081 88.2827 29.0879 84.187 29.0879C80.0913 29.0879 76.771 32.4081 76.771 36.5039C76.771 40.5996 80.0913 43.9199 84.187 43.9199Z" fill="#FFF1D6"/>
<path d="M42.0093 68.3999C42.0093 66.3659 39.8493 64.7099 37.1673 64.7099C36.6093 64.7099 36.0873 64.7999 35.5833 64.9259C34.8273 63.6479 33.1353 62.7479 31.1733 62.7479C29.2113 62.7479 27.6993 63.5579 26.8893 64.7459C26.7093 64.7459 26.5113 64.7099 26.3313 64.7099C23.6493 64.7099 21.4893 66.3659 21.4893 68.3999C21.4893 70.4339 23.6493 72.0899 26.3313 72.0899C27.3033 72.0899 28.2033 71.8739 28.9593 71.4959C29.6613 72.8639 31.4073 73.8359 33.4593 73.8359C35.2053 73.8359 36.7173 73.1159 37.5813 72.0719C40.0653 71.9099 42.0093 70.3439 42.0093 68.3999Z" fill="white"/>
<path d="M83.1054 41.724C83.1054 39.168 80.3874 37.098 77.0394 37.098C76.3374 37.098 75.6894 37.206 75.0594 37.368C74.1054 35.766 71.9994 34.65 69.5514 34.65C67.1034 34.65 65.1954 35.676 64.1874 37.152C63.9534 37.134 63.7194 37.098 63.4854 37.098C60.1374 37.098 57.4194 39.168 57.4194 41.724C57.4194 44.28 60.1374 46.35 63.4854 46.35C64.7094 46.35 65.8434 46.062 66.7794 45.594C67.6614 47.304 69.8394 48.528 72.4134 48.528C74.5914 48.528 76.4994 47.628 77.5614 46.314C80.6574 46.116 83.1054 44.136 83.1054 41.724Z" fill="white"/>
<path d="M81.2705 33.5161C81.2165 33.1561 81.4865 32.6881 81.8825 33.0121C82.0625 33.2101 82.0625 33.4981 82.0985 33.7681C82.1165 34.0381 82.1705 34.3801 81.9905 34.5601C81.8285 34.7401 81.5405 34.6501 81.4505 34.4521C81.3065 34.1821 81.3065 33.8221 81.2705 33.5521V33.5161Z" fill="#72706D"/>
<path d="M84.8711 33.4621C84.8351 33.1201 85.0871 32.5981 85.4651 32.8861C85.6451 33.0481 85.6451 33.3721 85.6811 33.6241C85.6811 33.8581 85.7351 34.1641 85.6091 34.3441C85.4831 34.5241 85.2131 34.4881 85.0871 34.3261C84.9251 34.0921 84.8891 33.7501 84.8891 33.4981V33.4621H84.8711Z" fill="#72706D"/>
<path d="M84.6531 35.064C84.9231 35.064 85.1931 35.388 85.1031 35.748C84.9411 36.396 84.6891 37.026 84.2751 37.566C84.1491 37.728 84.0051 37.872 83.8611 37.98C83.5191 38.232 83.0871 38.214 82.7811 37.908C82.6191 37.746 82.4931 37.566 82.3851 37.35C82.1511 36.882 82.0251 36.378 81.9531 35.874C81.9531 35.784 81.9531 35.676 81.9531 35.586C81.9891 35.316 82.1151 35.19 82.3851 35.172C82.7991 35.136 83.2311 35.118 83.6451 35.082C83.9331 35.082 84.2391 35.046 84.6531 35.028V35.064ZM84.4011 35.766C84.2031 35.766 84.0231 35.766 83.8431 35.766C83.4831 35.766 83.1231 35.802 82.7631 35.82C82.6911 35.82 82.6011 35.82 82.6371 35.946C82.7451 36.414 82.8351 36.882 83.1051 37.296C83.2671 37.53 83.3931 37.53 83.5911 37.332C83.8791 37.026 84.0591 36.666 84.2211 36.288C84.2931 36.126 84.3471 35.946 84.4011 35.766Z" fill="#72706D"/>
<path d="M96.7873 8.64001H11.2153C8.73133 8.64001 6.71533 10.656 6.71533 13.14V94.878C6.71533 97.362 8.73133 99.378 11.2153 99.378H96.8053C99.2893 99.378 101.305 97.362 101.305 94.878V13.14C101.305 10.656 99.2893 8.64001 96.8053 8.64001H96.7873ZM94.4293 88.29C94.4293 90.774 92.4133 92.79 89.9293 92.79H18.0553C15.5713 92.79 13.5553 90.774 13.5553 88.29V19.71C13.5553 17.226 15.5713 15.21 18.0553 15.21H89.9293C92.4133 15.21 94.4293 17.226 94.4293 19.71V88.308V88.29Z" fill="white"/>
<path d="M57.4386 10.08H50.5806V97.92H57.4386V10.08Z" fill="white"/>
<path d="M97.9194 57.438V50.58L10.0794 50.58V57.438L97.9194 57.438Z" fill="white"/>
</svg>
