<svg width="76" height="76" viewBox="0 0 76 76" fill="none" xmlns="http://www.w3.org/2000/svg">
<path d="M63.9548 7.96088H12.0468C9.28704 7.96088 7.0498 10.1981 7.0498 12.9579V63.0609C7.0498 65.8206 9.28704 68.0579 12.0468 68.0579H63.9548C66.7146 68.0579 68.9518 65.8206 68.9518 63.0609V12.9579C68.9518 10.1981 66.7146 7.96088 63.9548 7.96088Z" fill="#DDC8B1"/>
<path d="M58.5394 13.2239H17.4804C14.7206 13.2239 12.4834 15.4611 12.4834 18.2209V57.7789C12.4834 60.5386 14.7206 62.7759 17.4804 62.7759H58.5394C61.2992 62.7759 63.5364 60.5386 63.5364 57.7789V18.2209C63.5364 15.4611 61.2992 13.2239 58.5394 13.2239Z" fill="white"/>
<path d="M44.9561 30.609H31.0481C28.834 30.609 27.0391 32.4039 27.0391 34.618V41.382C27.0391 43.5961 28.834 45.391 31.0481 45.391H44.9561C47.1702 45.391 48.9651 43.5961 48.9651 41.382V34.618C48.9651 32.4039 47.1702 30.609 44.9561 30.609Z" fill="#EC1C24"/>
<path d="M40.8893 38.1709L36.4053 35.5679V40.7549L40.8893 38.1709Z" fill="white"/>
</svg>
