<svg width="85" height="83" viewBox="0 0 85 83" fill="none" xmlns="http://www.w3.org/2000/svg">
<g filter="url(#filter0_d_2214_45448)">
<path d="M66.1202 2.65465H13.8676C7.73101 2.65465 2.74121 7.65665 2.74121 13.7933V64.2281C2.74121 70.3646 7.73101 75.3545 13.8676 75.3545H66.1202C72.269 75.3545 77.2588 70.3646 77.2588 64.2281V13.7811C77.2588 7.64445 72.269 2.64246 66.1202 2.64246V2.65465ZM71.1588 64.2281C71.1588 66.9975 68.9018 69.2545 66.1202 69.2545H13.8676C11.0982 69.2545 8.84121 66.9975 8.84121 64.2281V13.7811C8.84121 10.9995 11.0982 8.74246 13.8676 8.74246H66.1202C68.9018 8.74246 71.1588 10.9995 71.1588 13.7811V64.2158V64.2281Z" fill="url(#paint0_radial_2214_45448)"/>
</g>
<path d="M67.9498 8.75696H12.0494C10.2774 8.75696 8.84082 10.1935 8.84082 11.9656V66.0482C8.84082 67.8202 10.2774 69.2568 12.0494 69.2568H67.9498C69.7219 69.2568 71.1584 67.8202 71.1584 66.0482V11.9656C71.1584 10.1935 69.7219 8.75696 67.9498 8.75696Z" fill="#DDC8B1"/>
<path d="M62.4966 14.053H17.5152C15.7432 14.053 14.3066 15.4895 14.3066 17.2616V60.7424C14.3066 62.5144 15.7432 63.951 17.5152 63.951H62.4966C64.2687 63.951 65.7052 62.5144 65.7052 60.7424V17.2616C65.7052 15.4895 64.2687 14.053 62.4966 14.053Z" fill="white"/>
<path d="M48.4546 31.5594H31.5332C30.1115 31.5594 28.959 32.712 28.959 34.1336V43.8692C28.959 45.2909 30.1115 46.4434 31.5332 46.4434H48.4546C49.8763 46.4434 51.0288 45.2909 51.0288 43.8692V34.1336C51.0288 32.712 49.8763 31.5594 48.4546 31.5594Z" fill="#EC1C24"/>
<path d="M42.9036 39.17L38.3896 36.5592V41.7686L42.9036 39.17Z" fill="white"/>
<defs>
<filter id="filter0_d_2214_45448" x="0.301211" y="0.202456" width="84.2776" height="82.472" filterUnits="userSpaceOnUse" color-interpolation-filters="sRGB">
<feFlood flood-opacity="0" result="BackgroundImageFix"/>
<feColorMatrix in="SourceAlpha" type="matrix" values="0 0 0 0 0 0 0 0 0 0 0 0 0 0 0 0 0 0 127 0" result="hardAlpha"/>
<feOffset dx="2.44" dy="2.44"/>
<feGaussianBlur stdDeviation="2.44"/>
<feColorMatrix type="matrix" values="0 0 0 0 0.137255 0 0 0 0 0.137255 0 0 0 0 0.137255 0 0 0 0.1 0"/>
<feBlend mode="normal" in2="BackgroundImageFix" result="effect1_dropShadow_2214_45448"/>
<feBlend mode="normal" in="SourceGraphic" in2="effect1_dropShadow_2214_45448" result="shape"/>
</filter>
<radialGradient id="paint0_radial_2214_45448" cx="0" cy="0" r="1" gradientUnits="userSpaceOnUse" gradientTransform="translate(40 38.9985) scale(79.3976 79.3976)">
<stop stop-color="white"/>
<stop offset="0.08" stop-color="white" stop-opacity="0.96"/>
<stop offset="0.23" stop-color="white" stop-opacity="0.86"/>
<stop offset="0.41" stop-color="white" stop-opacity="0.7"/>
<stop offset="0.62" stop-color="white" stop-opacity="0.47"/>
<stop offset="0.86" stop-color="white" stop-opacity="0.18"/>
<stop offset="1" stop-color="white" stop-opacity="0"/>
</radialGradient>
</defs>
</svg>
