<svg width="62" height="62" viewBox="0 0 62 62" fill="none" xmlns="http://www.w3.org/2000/svg">
<path d="M56.9548 0.960938H5.0468C2.28704 0.960938 0.0498047 3.19817 0.0498047 5.95794V56.0609C0.0498047 58.8207 2.28704 61.0579 5.0468 61.0579H56.9548C59.7146 61.0579 61.9518 58.8207 61.9518 56.0609V5.95794C61.9518 3.19817 59.7146 0.960938 56.9548 0.960938Z" fill="#DDC8B1"/>
<path d="M51.5394 6.22461H10.4804C7.72063 6.22461 5.4834 8.46184 5.4834 11.2216V50.7796C5.4834 53.5394 7.72063 55.7766 10.4804 55.7766H51.5394C54.2992 55.7766 56.5364 53.5394 56.5364 50.7796V11.2216C56.5364 8.46184 54.2992 6.22461 51.5394 6.22461Z" fill="white"/>
<path d="M37.9556 23.6094H24.0476C21.8335 23.6094 20.0386 25.4043 20.0386 27.6184V34.3824C20.0386 36.5965 21.8335 38.3914 24.0476 38.3914H37.9556C40.1697 38.3914 41.9646 36.5965 41.9646 34.3824V27.6184C41.9646 25.4043 40.1697 23.6094 37.9556 23.6094Z" fill="#EC1C24"/>
<path d="M33.8888 31.1714L29.4048 28.5684V33.7554L33.8888 31.1714Z" fill="white"/>
</svg>
