<svg width="38" height="38" viewBox="0 0 38 38" fill="none" xmlns="http://www.w3.org/2000/svg">
<path d="M19.988 2.84961C24.5354 2.90028 28.842 4.49628 32.2367 8.08094C36.8474 12.9576 37.7087 20.0509 34.466 25.9156C30.3874 33.2876 21.1914 36.8849 12.9327 34.3389C2.62202 31.1723 -1.60865 19.8736 4.21802 11.0196C6.08002 8.19494 8.58802 6.09228 11.6914 4.59761C14.174 3.40694 16.796 2.87494 19.988 2.84961Z" fill="url(#paint0_linear_1710_67380)"/>
<path d="M21.4447 28.1322C24.0413 25.5862 22.2933 18.0749 17.8853 19.8862C13.6167 22.1409 16.2133 32.2869 21.28 28.2969L21.4447 28.1322Z" stroke="#121212" stroke-opacity="0.71" stroke-width="1.5" stroke-linecap="round" stroke-linejoin="round"/>
<path d="M14.364 12.084L14.9213 15.6687" stroke="#121212" stroke-opacity="0.71" stroke-width="1.5" stroke-linecap="round" stroke-linejoin="round"/>
<path d="M22.8127 10.9951L23.104 14.4785" stroke="#121212" stroke-opacity="0.71" stroke-width="1.5" stroke-linecap="round" stroke-linejoin="round"/>
<defs>
<linearGradient id="paint0_linear_1710_67380" x1="18.9951" y1="2.84961" x2="18.9951" y2="35.1528" gradientUnits="userSpaceOnUse">
<stop stop-color="#FFE9AF"/>
<stop offset="1" stop-color="#FFC061"/>
</linearGradient>
</defs>
</svg>
