<svg width="38" height="38" viewBox="0 0 38 38" fill="none" xmlns="http://www.w3.org/2000/svg">
<path d="M19.988 2.84961C24.5354 2.90028 28.842 4.49628 32.2367 8.08094C36.8474 12.9576 37.7087 20.0509 34.466 25.9156C30.3874 33.2876 21.1914 36.8849 12.9327 34.3389C2.62202 31.1723 -1.60865 19.8736 4.21802 11.0196C6.08002 8.19494 8.58802 6.09228 11.6914 4.59761C14.174 3.40694 16.796 2.87494 19.988 2.84961Z" fill="url(#paint0_linear_1710_67432)"/>
<path d="M11.2354 25.1184C12.35 29.3111 15.7194 26.0431 18.1514 25.6377C20.2794 25.0424 22.3694 26.2964 24.4467 26.2584C26.0174 25.9291 26.0427 23.7377 25.6754 22.3191C23.4967 14.1111 11.2987 16.9231 11.21 24.9537L11.2354 25.1057V25.1184Z" stroke="#121212" stroke-opacity="0.71" stroke-width="1.4" stroke-linecap="round" stroke-linejoin="round"/>
<path d="M11.9573 13.9583C11.9573 13.591 11.97 13.2617 11.9953 13.0463C12.046 12.4763 12.426 12.071 12.9327 12.0203C13.414 11.9697 13.87 12.261 14.06 12.7803C14.1487 13.0337 14.1867 13.2997 14.212 13.5657C14.288 14.2243 14.3513 14.883 14.4147 15.529C14.44 15.757 14.4527 15.9977 14.4147 16.2257C14.326 16.707 14.0473 17.049 13.528 17.1123C12.2107 17.2897 11.9573 15.301 11.9573 13.9457V13.9583Z" fill="#121212" fill-opacity="0.71"/>
<path d="M22.9393 13.7049C22.9393 13.3249 22.9647 12.9449 23.0407 12.5902C23.1547 12.0582 23.5853 11.7162 24.0793 11.7289C24.624 11.7415 25.0167 12.0455 25.0927 12.5395C25.232 13.5529 25.3207 14.5915 25.346 15.6175C25.3587 16.1369 24.9407 16.5169 24.472 16.5675C23.218 16.6942 23.1293 15.1615 22.99 14.2875C22.9647 14.0975 22.9393 13.8949 22.9393 13.6922V13.7049Z" fill="#121212" fill-opacity="0.71"/>
<path d="M14.9213 11.6151C13.832 11.5518 12.4007 8.72709 13.946 8.44843C15.0733 8.35976 16.3907 11.0578 15.086 11.6024H14.9213V11.6151Z" fill="#121212" fill-opacity="0.71"/>
<path d="M21.394 11.2855C20.3173 10.3355 21.9893 7.99219 23.1673 7.99219C25.1813 8.34685 22.8633 11.7795 21.5333 11.3615L21.394 11.2855Z" fill="#121212" fill-opacity="0.71"/>
<path d="M30.8307 12.5527C30.4253 12.5273 30.0707 12.3247 29.8047 11.9953C29.7667 11.9447 29.716 11.8813 29.6907 11.818C29.4247 11.3747 29.3233 10.792 29.4247 10.1967C29.488 9.81667 29.8047 9.5 30.1213 9.5C30.362 9.52533 30.4633 9.63933 30.514 9.728C30.6027 9.86733 30.628 10.0447 30.59 10.2347C30.5393 10.526 30.628 10.7413 30.6913 10.8427C30.7547 10.944 30.894 11.1087 31.1347 11.1213C31.274 11.1213 31.4007 11.21 31.4893 11.3367C31.578 11.4633 31.6033 11.6407 31.578 11.8307C31.5147 12.2233 31.198 12.54 30.8813 12.54H30.8433L30.8307 12.5527Z" fill="#121212" fill-opacity="0.71"/>
<path d="M28.31 9.58847C28.6393 9.81647 28.8167 10.1585 28.842 10.5638C28.842 10.6271 28.842 10.7031 28.842 10.7665C28.804 11.2731 28.5253 11.8051 28.082 12.2611C27.7907 12.5525 27.3473 12.6538 27.0813 12.5018C26.904 12.3751 26.8407 12.1598 26.9293 11.9571C26.98 11.8305 27.0813 11.7291 27.1573 11.6151C27.322 11.3871 27.436 11.1085 27.4993 10.8298C27.5373 10.6905 27.55 10.5385 27.4487 10.4245C27.3473 10.3105 27.208 10.2598 27.1193 10.1331C26.9166 9.85447 27.1953 9.48714 27.4613 9.39847C27.7147 9.3098 28.044 9.4238 28.2593 9.56314L28.2846 9.58847H28.31Z" fill="#121212" fill-opacity="0.71"/>
<path d="M27.9427 12.6924C28.386 12.7304 28.7787 12.9077 29.07 13.2244C29.1207 13.275 29.1587 13.3257 29.1967 13.389C29.488 13.807 29.5767 14.3517 29.45 14.8964C29.374 15.251 29.0193 15.5297 28.6773 15.5297C28.4113 15.5044 28.31 15.3904 28.2467 15.3144C28.158 15.1877 28.1327 15.023 28.1707 14.8457C28.234 14.5797 28.1327 14.377 28.0693 14.2884C28.006 14.1997 27.854 14.035 27.588 14.0224C27.436 14.0224 27.2967 13.9337 27.208 13.8197C27.1193 13.693 27.0813 13.5284 27.1193 13.351C27.1953 12.9837 27.55 12.6924 27.9047 12.6924H27.9427Z" fill="#121212" fill-opacity="0.71"/>
<path d="M30.2354 15.2005C30.1087 15.0105 30.0074 14.7951 29.9947 14.5545C29.944 13.7438 30.6914 13.2118 31.3754 12.9585C31.73 12.8318 32.262 12.9331 32.3887 13.3385C32.4267 13.4651 32.4014 13.6298 32.3127 13.7311C32.2494 13.8071 32.148 13.8451 32.0467 13.8831C31.6794 14.0225 31.1347 14.2125 31.1854 14.7065C31.1854 14.8205 31.236 14.9218 31.2614 15.0358C31.3627 15.4791 30.818 15.9098 30.476 15.5171C30.3874 15.4158 30.2987 15.3018 30.2227 15.2005H30.2354Z" fill="#121212" fill-opacity="0.71"/>
<defs>
<linearGradient id="paint0_linear_1710_67432" x1="18.9951" y1="2.84961" x2="18.9951" y2="35.1528" gradientUnits="userSpaceOnUse">
<stop stop-color="#FFE9AF"/>
<stop offset="1" stop-color="#FFC061"/>
</linearGradient>
</defs>
</svg>
