<svg width="38" height="38" viewBox="0 0 38 38" fill="none" xmlns="http://www.w3.org/2000/svg">
<path d="M19.988 2.84961C24.5354 2.90028 28.842 4.49628 32.2367 8.08094C36.8474 12.9576 37.7087 20.0509 34.466 25.9156C30.3874 33.2876 21.1914 36.8849 12.9327 34.3389C2.62202 31.1723 -1.60865 19.8736 4.21802 11.0196C6.08002 8.19494 8.58802 6.09228 11.6914 4.59761C14.174 3.40694 16.796 2.87494 19.988 2.84961Z" fill="url(#paint0_linear_1710_67372)"/>
<path d="M12.312 14.8577C12.312 14.4904 12.3247 14.1611 12.35 13.9457C12.4007 13.3757 12.7807 12.9704 13.2873 12.9197C13.7687 12.8691 14.2247 13.1604 14.4147 13.6797C14.5033 13.9331 14.5413 14.1991 14.5667 14.4651C14.6427 15.1237 14.706 15.7824 14.7693 16.4284C14.7947 16.6564 14.8073 16.8971 14.7693 17.1251C14.6807 17.6064 14.402 17.9484 13.8827 18.0117C12.5653 18.1891 12.312 16.2004 12.312 14.8451V14.8577Z" fill="#121212" fill-opacity="0.71"/>
<path d="M22.2933 18.5947C23.0913 18.5947 23.8766 19.5321 23.598 20.6087C23.104 22.5341 22.3946 24.3834 21.166 25.9667C20.8113 26.4227 20.3933 26.8661 19.9373 27.2081C18.924 27.9681 17.67 27.8921 16.7706 27.0054C16.3146 26.5494 15.922 25.9794 15.6306 25.3967C14.9466 24.0287 14.5666 22.5594 14.3513 21.0521C14.3133 20.7734 14.326 20.4821 14.364 20.2034C14.4906 19.3927 14.8326 19.0634 15.6433 19.0001C16.872 18.8987 18.1133 18.8227 19.342 18.7467C20.216 18.6961 21.0773 18.6581 22.2806 18.5947H22.2933ZM21.5713 20.6721C20.976 20.6721 20.4693 20.6467 19.95 20.6721C18.886 20.7227 17.8346 20.7861 16.7706 20.8494C16.53 20.8621 16.302 20.8874 16.378 21.2167C16.6693 22.5974 16.986 23.9781 17.7713 25.1687C18.24 25.8781 18.6326 25.8781 19.2153 25.2574C20.0513 24.3581 20.6086 23.3067 21.052 22.1794C21.242 21.6854 21.4066 21.1787 21.584 20.6594L21.5713 20.6721Z" fill="#121212" fill-opacity="0.71"/>
<path d="M24.5353 18.2275C24.3327 18.2275 24.13 18.1642 23.9653 18.0502L23.8133 17.9489C22.724 17.1889 21.6473 16.3655 21.508 15.4282C21.28 13.9462 22.838 13.0089 23.864 12.3882C24.0413 12.2869 24.206 12.1855 24.3327 12.0969C24.7507 11.8055 25.346 11.8942 25.6627 12.2869C25.9793 12.6795 25.878 13.2242 25.46 13.5155C25.308 13.6169 25.118 13.7309 24.9153 13.8575C24.4467 14.1489 23.3447 14.8202 23.3953 15.1875C23.446 15.3269 23.7627 15.7069 24.966 16.5429L25.1307 16.6569C25.5487 16.9482 25.6247 17.5055 25.308 17.8855C25.118 18.1135 24.8393 18.2275 24.548 18.2275H24.5353Z" fill="#121212" fill-opacity="0.71"/>
<defs>
<linearGradient id="paint0_linear_1710_67372" x1="18.9951" y1="2.84961" x2="18.9951" y2="35.1528" gradientUnits="userSpaceOnUse">
<stop stop-color="#FFE9AF"/>
<stop offset="1" stop-color="#FFC061"/>
</linearGradient>
</defs>
</svg>
