<svg width="38" height="38" viewBox="0 0 38 38" fill="none" xmlns="http://www.w3.org/2000/svg">
<path d="M19.988 2.84961C24.5354 2.90028 28.842 4.49628 32.2367 8.08094C36.8474 12.9576 37.7087 20.0509 34.466 25.9156C30.3874 33.2876 21.1914 36.8849 12.9327 34.3389C2.62202 31.1723 -1.60865 19.8736 4.21802 11.0196C6.08002 8.19494 8.58802 6.09228 11.6914 4.59761C14.174 3.40694 16.796 2.87494 19.988 2.84961Z" fill="url(#paint0_linear_1710_67404)"/>
<path d="M12.312 14.8577C12.312 14.4904 12.3247 14.1611 12.35 13.9457C12.4007 13.3757 12.7807 12.9704 13.2873 12.9197C13.7687 12.8691 14.2247 13.1604 14.4147 13.6797C14.5033 13.9331 14.5413 14.1991 14.5667 14.4651C14.6427 15.1237 14.706 15.7824 14.7693 16.4284C14.7947 16.6564 14.8073 16.8971 14.7693 17.1251C14.6807 17.6064 14.402 17.9484 13.8827 18.0117C12.5653 18.1891 12.312 16.2004 12.312 14.8451V14.8577Z" fill="#121212" fill-opacity="0.71"/>
<path d="M23.2813 14.617C23.2813 14.237 23.3066 13.857 23.3826 13.5023C23.4966 12.9703 23.9273 12.6283 24.4213 12.641C24.966 12.6536 25.3586 12.9576 25.4346 13.4516C25.574 14.465 25.6626 15.5036 25.688 16.5296C25.7006 17.049 25.2826 17.429 24.814 17.4796C23.56 17.6063 23.4713 16.0736 23.332 15.1996C23.3066 15.0096 23.2813 14.807 23.2813 14.6043V14.617Z" fill="#121212" fill-opacity="0.71"/>
<path d="M18.9113 27.1445C15.6306 27.1825 11.514 25.0165 12.2866 21.2038C12.768 20.0385 14.0346 20.7351 14.0093 21.7865C14.0093 23.1038 14.9086 24.0158 16.0486 24.5478C17.4926 25.2191 19.2406 25.4218 20.748 24.8391C21.5333 24.5351 22.1413 24.0285 22.5213 23.2811C22.838 22.6731 22.8253 21.3178 23.598 21.0898C23.9526 20.9758 24.3453 21.1911 24.548 21.4951C24.7506 21.7991 24.8013 22.1918 24.776 22.5718C24.6746 25.3585 21.66 27.1445 19.1013 27.1571H18.8986L18.9113 27.1445Z" fill="#121212" fill-opacity="0.71"/>
<path d="M14.744 11.1215C13.5786 10.8682 12.8186 8.44887 14.5793 8.53753C15.8206 8.68953 16.492 10.9949 14.9213 11.1469L14.744 11.1215Z" fill="#121212" fill-opacity="0.71"/>
<path d="M22.4327 11.3491C21.09 10.9691 21.7994 8.81579 22.8887 8.48646C24.89 8.16979 23.978 11.2858 22.5974 11.3618H22.4454L22.4327 11.3491Z" fill="#121212" fill-opacity="0.71"/>
<defs>
<linearGradient id="paint0_linear_1710_67404" x1="18.9951" y1="2.84961" x2="18.9951" y2="35.1528" gradientUnits="userSpaceOnUse">
<stop stop-color="#FFE9AF"/>
<stop offset="1" stop-color="#FFC061"/>
</linearGradient>
</defs>
</svg>
