<svg width="38" height="38" viewBox="0 0 38 38" fill="none" xmlns="http://www.w3.org/2000/svg">
<path d="M19.988 2.84961C24.5354 2.90028 28.842 4.49628 32.2367 8.08094C36.8474 12.9576 37.7087 20.0509 34.466 25.9156C30.3874 33.2876 21.1914 36.8849 12.9327 34.3389C2.62202 31.1723 -1.60865 19.8736 4.21802 11.0196C6.08002 8.19494 8.58802 6.09228 11.6914 4.59761C14.174 3.40694 16.796 2.87494 19.988 2.84961Z" fill="url(#paint0_linear_1710_67396)"/>
<path d="M11.6153 19.2662C11.096 19.2156 10.6907 18.6329 10.8427 18.1009C11.1087 17.0749 12.654 16.3402 12.9327 15.4156C12.5653 14.7062 11.1087 14.5669 10.754 13.7056C10.1207 10.9062 15.2507 13.7436 15.2 15.1496C15.314 16.0362 14.6047 16.7709 14.0347 17.3536C13.3507 17.9362 12.7173 19.0129 11.78 19.2789H11.6153V19.2662Z" fill="#121212" fill-opacity="0.71"/>
<path d="M25.1307 18.8857C24.928 18.8857 24.7253 18.8224 24.5607 18.6957L24.4087 18.5817C23.3193 17.7584 22.2427 16.8717 22.1033 15.8584C21.8753 14.2624 23.4333 13.249 24.4593 12.565C24.6367 12.451 24.8013 12.3497 24.928 12.2484C25.346 11.9317 25.9413 12.033 26.258 12.451C26.5747 12.869 26.4733 13.4644 26.0553 13.781C25.9033 13.895 25.7133 14.0217 25.5107 14.161C25.042 14.465 23.94 15.1997 23.9907 15.5924C24.0413 15.7444 24.358 16.1497 25.5613 17.049L25.726 17.163C26.144 17.4797 26.22 18.075 25.9033 18.493C25.7133 18.7337 25.4347 18.873 25.1433 18.873L25.1307 18.8857Z" fill="#121212" fill-opacity="0.71"/>
<path d="M19.418 26.3847C16.1373 26.4227 12.0207 24.2567 12.7934 20.444C13.2747 19.2787 14.5413 19.9754 14.516 21.0267C14.516 22.344 15.4153 23.256 16.5553 23.788C17.9993 24.4594 19.7474 24.662 21.2547 24.0794C22.04 23.7754 22.648 23.2687 23.028 22.5214C23.3447 21.9134 23.332 20.558 24.1047 20.33C24.4594 20.216 24.852 20.4314 25.0547 20.7354C25.2574 21.0394 25.308 21.432 25.2827 21.812C25.1813 24.5987 22.1667 26.3847 19.608 26.3974H19.4053L19.418 26.3847Z" fill="#121212" fill-opacity="0.71"/>
<defs>
<linearGradient id="paint0_linear_1710_67396" x1="18.9951" y1="2.84961" x2="18.9951" y2="35.1528" gradientUnits="userSpaceOnUse">
<stop stop-color="#FFE9AF"/>
<stop offset="1" stop-color="#FFC061"/>
</linearGradient>
</defs>
</svg>
