<svg width="38" height="38" viewBox="0 0 38 38" fill="none" xmlns="http://www.w3.org/2000/svg">
<path d="M19.988 2.84961C24.5354 2.90028 28.842 4.49628 32.2367 8.08094C36.8474 12.9576 37.7087 20.0509 34.466 25.9156C30.3874 33.2876 21.1914 36.8849 12.9327 34.3389C2.62202 31.1723 -1.60865 19.8736 4.21802 11.0196C6.08002 8.19494 8.58802 6.09228 11.6914 4.59761C14.174 3.40694 16.796 2.87494 19.988 2.84961Z" fill="url(#paint0_linear_1710_67413)"/>
<path d="M10.6907 13.6162C11.0073 12.3496 11.7547 11.0322 12.8313 10.2722C13.4013 9.87956 14.1487 9.67689 14.7693 10.0569C15.162 10.2976 15.504 10.6269 15.808 10.9689C16.4413 11.6782 17.0873 12.5776 17.3027 13.5149C17.4673 14.2749 17.0367 14.6169 16.2893 14.4776C15.7573 14.2876 15.39 13.7429 15.0607 13.3122C14.8707 13.0589 14.2627 12.0456 13.87 12.1469C13.8067 12.1722 13.7433 12.2102 13.68 12.2609C12.9707 12.8689 12.844 14.1989 11.8813 14.5156C11.3493 14.6802 10.754 14.3002 10.6907 13.7809V13.6162Z" fill="#121212" fill-opacity="0.71"/>
<path d="M20.6467 13.2363C20.6213 13.0337 20.672 12.831 20.786 12.641L20.8873 12.4763C21.584 11.311 22.3567 10.1457 23.3447 9.89232C24.9027 9.49965 26.0807 10.9437 26.8533 11.8937C26.98 12.0583 27.1067 12.2103 27.2207 12.3243C27.5753 12.717 27.55 13.3123 27.1573 13.667C26.7647 14.0217 26.1693 13.9963 25.8147 13.6037C25.688 13.4643 25.536 13.287 25.384 13.097C25.0293 12.6663 24.1933 11.6403 23.8007 11.7417C23.6487 11.805 23.2813 12.1597 22.5087 13.4517L22.4073 13.6163C22.1413 14.0597 21.546 14.2117 21.1027 13.933C20.8367 13.7683 20.6847 13.5023 20.6467 13.2237V13.2363Z" fill="#121212" fill-opacity="0.71"/>
<path d="M18.392 31.7554C15.846 31.7554 9.70268 31.0334 7.54934 24.3454C7.03001 22.7367 7.01734 21.0141 7.52401 19.7727C8.05601 18.4681 9.12001 17.7461 10.6907 17.6321C14.9593 17.3154 19.228 17.3407 23.4967 17.0494L24.1807 16.9987C24.9913 16.9354 25.916 16.8721 26.828 16.8721C29.0067 16.8721 30.4 17.2774 31.198 18.1514C31.7933 18.7974 32.0467 19.7094 31.9707 20.8747C31.5147 27.0434 25.84 30.7421 20.7733 31.5654C19.988 31.6921 19.19 31.7554 18.3793 31.7554H18.392ZM11.818 19.1394C11.324 19.1394 10.754 19.1647 10.2473 19.3041C9.75334 19.4561 9.41134 19.6967 9.19601 20.0641C8.62601 21.0267 8.75268 22.6607 9.12001 23.8514C10.9313 29.5007 16.226 30.1087 18.4173 30.1087C19.114 30.1087 19.8233 30.0581 20.52 29.9441C24.0793 29.3614 28.7027 27.0814 30.02 22.5214C30.2353 21.7614 30.3493 21.0901 30.3493 20.5201C30.3493 19.9627 30.1973 19.5194 29.868 19.1901C29.2093 18.5314 28.0313 18.4554 27.208 18.4554C26.8027 18.4554 26.4227 18.4807 26.068 18.4934C21.622 18.7214 17.2773 18.9494 12.9327 19.1521C12.8313 19.1521 12.7173 19.1521 12.6033 19.1521H11.818V19.1394Z" fill="#121212" fill-opacity="0.71"/>
<path d="M28.728 14.7569C28.956 14.3009 30.3747 14.0096 30.704 13.9463C31.806 13.7183 33.7567 13.4269 34.4787 14.7569C35.0613 15.8209 34.314 17.2269 33.1613 17.2016C32.452 17.1763 31.7173 16.8976 31.0587 16.5683C30.286 16.1883 29.3107 15.8589 28.7787 15.0989C28.7407 15.0483 28.7027 14.9849 28.69 14.9216C28.69 14.8583 28.69 14.8076 28.7153 14.7569H28.728Z" fill="white" stroke="#121212" stroke-opacity="0.71" stroke-miterlimit="10"/>
<path d="M9.42399 15.0095C9.38599 15.5162 8.16999 16.3142 7.89132 16.4915C6.95399 17.1122 5.24399 18.1129 4.07866 17.1502C3.14132 16.3775 3.30599 14.7942 4.39532 14.3889C5.06666 14.1482 5.85199 14.1355 6.57399 14.1862C7.43532 14.2495 8.46132 14.1862 9.23399 14.7055C9.28466 14.7435 9.34799 14.7815 9.37332 14.8322C9.39866 14.8829 9.41132 14.9335 9.41132 14.9969L9.42399 15.0095Z" fill="white" stroke="#121212" stroke-opacity="0.71" stroke-miterlimit="10"/>
<defs>
<linearGradient id="paint0_linear_1710_67413" x1="18.9951" y1="2.84961" x2="18.9951" y2="35.1528" gradientUnits="userSpaceOnUse">
<stop stop-color="#FFE9AF"/>
<stop offset="1" stop-color="#FFC061"/>
</linearGradient>
</defs>
</svg>
