<svg width="38" height="38" viewBox="0 0 38 38" fill="none" xmlns="http://www.w3.org/2000/svg">
<path d="M19.988 2.84961C24.5354 2.90028 28.842 4.49628 32.2367 8.08094C36.8474 12.9576 37.7087 20.0509 34.466 25.9156C30.3874 33.2876 21.1914 36.8849 12.9327 34.3389C2.62202 31.1723 -1.60865 19.8736 4.21802 11.0196C6.08002 8.19494 8.58802 6.09228 11.6914 4.59761C14.174 3.40694 16.796 2.87494 19.988 2.84961Z" fill="url(#paint0_linear_1710_67446)"/>
<path d="M9.20864 12.2744C6.86531 16.3024 12.54 19.431 15.4026 16.1757C19.4813 11.6917 12.54 7.94236 9.42398 11.9704L9.20864 12.2744Z" fill="#121212" fill-opacity="0.71"/>
<path d="M21.0393 12.8945C19.7347 18.0878 27.4867 19.0632 28.6647 14.4905C29.7413 9.51249 22.5467 8.57515 21.1153 12.6538L21.0267 12.8945H21.0393Z" fill="#121212" fill-opacity="0.71"/>
<path d="M10.184 12.844C9.72802 15.0353 12.6794 15.5166 13.0974 13.5786C13.4647 11.476 10.7287 11.02 10.222 12.7426L10.1967 12.844H10.184Z" fill="white"/>
<path d="M13.1733 14.5162C12.8313 16.0742 14.9973 16.4035 15.3013 15.0228C15.58 13.5282 13.566 13.2115 13.1987 14.4402L13.1733 14.5162Z" fill="white"/>
<path d="M22.3314 13.0471C21.8754 15.2384 24.8267 15.7198 25.2447 13.7818C25.612 11.6791 22.876 11.2231 22.3694 12.9458L22.344 13.0471H22.3314Z" fill="white"/>
<path d="M25.308 14.7183C24.966 16.2763 27.132 16.6057 27.436 15.225C27.7147 13.7303 25.7007 13.4137 25.3333 14.6423L25.308 14.7183Z" fill="white"/>
<path d="M17.784 28.019C17.2013 28.019 16.6567 27.7783 16.2007 27.335C15.7827 26.9043 15.39 26.3597 15.086 25.7517C14.478 24.5357 14.0727 23.1677 13.8193 21.445C13.7813 21.2043 13.794 20.9257 13.832 20.6343C13.9587 19.8743 14.25 19.5957 14.9973 19.5323C16.0613 19.4437 17.1127 19.3803 18.1767 19.317L18.696 19.2917C19.2533 19.2537 19.8107 19.2283 20.4567 19.203L21.622 19.1523C21.9513 19.1523 22.2933 19.3423 22.534 19.659C22.8253 20.039 22.9267 20.533 22.8 21.0143C22.2173 23.269 21.4447 24.9663 20.3933 26.3343C20.0133 26.8283 19.608 27.2463 19.19 27.5503C18.7593 27.8797 18.2653 28.0443 17.7713 28.0443L17.784 28.019ZM19.8613 20.951C19.6587 20.951 19.4687 20.951 19.2787 20.951C18.5187 20.989 17.746 21.027 16.986 21.0777L16.0993 21.1283C15.9473 21.1283 15.7447 21.1537 15.6433 21.293C15.58 21.3817 15.5547 21.5083 15.5927 21.6603C15.846 22.8763 16.1753 24.3963 17.0113 25.663C17.2773 26.0683 17.5433 26.2583 17.822 26.2583C18.0753 26.2583 18.3413 26.1063 18.6453 25.7643C19.4053 24.9537 19.988 23.9657 20.5073 22.6483C20.634 22.3063 20.7607 21.9643 20.8747 21.6097L21.1027 20.951H19.8867H19.8613Z" fill="#121212" fill-opacity="0.71"/>
<defs>
<linearGradient id="paint0_linear_1710_67446" x1="18.9951" y1="2.84961" x2="18.9951" y2="35.1528" gradientUnits="userSpaceOnUse">
<stop stop-color="#FFE9AF"/>
<stop offset="1" stop-color="#FFC061"/>
</linearGradient>
</defs>
</svg>
