<svg width="38" height="38" viewBox="0 0 38 38" fill="none" xmlns="http://www.w3.org/2000/svg">
<path d="M19.988 2.84961C24.5354 2.90028 28.842 4.49628 32.2367 8.08094C36.8474 12.9576 37.7087 20.0509 34.466 25.9156C30.3874 33.2876 21.1914 36.8849 12.9327 34.3389C2.62202 31.1723 -1.60865 19.8736 4.21802 11.0196C6.08002 8.19494 8.58802 6.09228 11.6914 4.59761C14.174 3.40694 16.796 2.87494 19.988 2.84961Z" fill="url(#paint0_linear_1710_67423)"/>
<path d="M23.2813 22.015C23.3193 23.6616 22.6353 25.0043 21.1786 25.9543C19.76 26.879 18.2907 27.0183 16.796 26.157C15.39 25.3463 14.516 24.143 14.212 22.5596C14.136 22.167 14.212 21.6603 14.402 21.3056C14.782 20.6216 15.77 20.6723 16.2387 21.369C16.4033 21.6223 16.4793 21.939 16.5933 22.2303C16.7073 22.5216 16.7833 22.8383 16.9353 23.1043C17.3533 23.8643 17.936 24.5103 18.8607 24.523C19.8107 24.523 20.5453 23.9783 20.9633 23.155C21.242 22.623 21.3433 22.015 21.508 21.4323C21.622 21.0143 21.6093 20.4823 22.192 20.457C22.8127 20.4316 23.0153 20.9383 23.1673 21.4323C23.218 21.5843 23.2307 21.7616 23.2687 22.015H23.2813Z" fill="#121212" fill-opacity="0.71"/>
<path d="M11.3113 14.3643C11.3367 14.9216 11.628 15.4409 11.9827 15.8843C12.2613 16.2263 12.6033 16.5429 13.034 16.6189C13.5533 16.7203 14.098 16.4416 14.44 16.0363C14.782 15.6309 14.9593 15.1116 15.0987 14.6049" stroke="#121212" stroke-opacity="0.71" stroke-width="1.5" stroke-linecap="round" stroke-linejoin="round"/>
<path d="M22.154 14.415C22.154 14.5417 22.192 14.6684 22.2427 14.795C22.5973 15.6184 23.3447 16.315 24.244 16.4037C25.1433 16.4924 26.0933 15.8337 26.1693 14.9344" stroke="#121212" stroke-opacity="0.71" stroke-width="1.5" stroke-linecap="round" stroke-linejoin="round"/>
<path d="M13.7053 9.01855C13.0087 9.25922 12.3753 9.70255 11.9067 10.2852" stroke="#121212" stroke-opacity="0.71" stroke-width="1.5" stroke-linecap="round" stroke-linejoin="round"/>
<path d="M23.1547 9.01855C24.1047 9.09455 25.0293 9.52522 25.7007 10.2092" stroke="#121212" stroke-opacity="0.71" stroke-width="1.5" stroke-linecap="round" stroke-linejoin="round"/>
<defs>
<linearGradient id="paint0_linear_1710_67423" x1="18.9951" y1="2.84961" x2="18.9951" y2="35.1528" gradientUnits="userSpaceOnUse">
<stop stop-color="#FFE9AF"/>
<stop offset="1" stop-color="#FFC061"/>
</linearGradient>
</defs>
</svg>
