<svg width="38" height="38" viewBox="0 0 38 38" fill="none" xmlns="http://www.w3.org/2000/svg">
<path d="M19.988 2.84961C24.5354 2.90028 28.842 4.49628 32.2367 8.08094C36.8474 12.9576 37.7087 20.0509 34.466 25.9156C30.3874 33.2876 21.1914 36.8849 12.9327 34.3389C2.62202 31.1723 -1.60865 19.8736 4.21802 11.0196C6.08002 8.19494 8.58802 6.09228 11.6914 4.59761C14.174 3.40694 16.796 2.87494 19.988 2.84961Z" fill="url(#paint0_linear_1710_67457)"/>
<path d="M13.224 24.307C13.8953 26.397 16.264 24.7883 17.936 24.5223C19.4053 24.1296 20.8367 24.953 22.2553 24.9403C23.332 24.725 23.3447 23.2936 23.104 22.369C22.42 19.9243 19.8993 19.025 17.7967 19.2023C15.2887 19.4176 13.1987 21.2163 13.1733 24.079L13.224 24.307Z" fill="url(#paint1_linear_1710_67457)" stroke="#121212" stroke-opacity="0.71" stroke-width="1.28" stroke-miterlimit="10"/>
<path d="M14.6427 9.01824C14.9973 9.9429 12.7807 12.9702 11.9193 11.8936C11.4127 11.0322 13.5407 8.18224 14.5667 8.89157L14.6427 9.01824Z" fill="#121212" fill-opacity="0.71"/>
<path d="M16.8213 15.757C16.7706 16.479 16.4033 17.1757 15.7193 17.6444C14.6173 18.379 12.844 18.6577 11.704 17.8597C10.4626 16.9984 10.222 15.1237 11.248 14.009C12.008 13.1984 13.2113 12.8437 14.3006 12.9704C14.896 13.0464 15.466 13.2617 15.922 13.6544C16.5806 14.2117 16.8846 14.997 16.834 15.7444L16.8213 15.757Z" fill="#121212" fill-opacity="0.71"/>
<path d="M20.8874 15.8456C20.938 16.5803 21.3053 17.3023 22.0147 17.7836C23.142 18.5436 24.966 18.8223 26.1313 17.999C27.398 17.1123 27.6514 15.187 26.6 14.0596C25.8274 13.2236 24.586 12.8563 23.4714 12.9956C22.8634 13.0716 22.2807 13.2996 21.812 13.6923C21.1407 14.2623 20.8367 15.0603 20.8747 15.833L20.8874 15.8456Z" fill="#121212" fill-opacity="0.71"/>
<path d="M13.984 14.795C13.9206 15.631 12.6033 16.809 11.8686 15.9477C11.3113 15.289 11.8306 14.2883 12.4766 13.921C13.0466 13.6043 13.9966 13.7817 13.984 14.605V14.795Z" fill="white"/>
<path d="M15.7953 16.315C15.732 16.923 14.6933 17.7716 14.1233 17.1636C13.6926 16.695 14.098 15.9603 14.6173 15.707C15.0733 15.479 15.808 15.593 15.7953 16.1883V16.3276V16.315Z" fill="white"/>
<path d="M24.0033 14.9343C23.94 15.7956 22.5973 16.9989 21.8373 16.1123C21.2673 15.4409 21.7993 14.4149 22.458 14.0476C23.0407 13.7309 24.0033 13.9083 24.0033 14.7443V14.9343Z" fill="white"/>
<path d="M25.8654 16.492C25.802 17.1127 24.738 17.9867 24.1554 17.3533C23.712 16.872 24.13 16.1247 24.662 15.8587C25.118 15.618 25.878 15.7447 25.8654 16.3527V16.492Z" fill="white"/>
<path d="M22.2553 8.29674C23.2687 7.92941 24.966 10.1967 24.7507 11.0581C24.0667 12.3881 21.5587 9.15807 22.154 8.36007L22.2427 8.29674H22.2553Z" fill="#121212" fill-opacity="0.71"/>
<path d="M8.96801 21.7864C6.56134 20.3298 8.52467 16.8718 10.4247 15.9724C11.058 15.7318 11.5647 16.2638 11.0833 16.8338C10.5133 17.3911 9.65201 18.0624 9.29734 18.8604C8.48668 20.7351 10.336 21.3178 10.9693 19.4304C11.172 18.9744 11.286 18.1131 11.8813 18.1131C12.5907 18.2778 12.3627 19.2278 12.1347 19.8104C11.7167 21.0391 10.45 22.3311 9.13268 21.8498L8.95534 21.7738L8.96801 21.7864Z" fill="#121212" fill-opacity="0.71"/>
<path d="M28.2973 22.1282C27.246 22.4575 26.41 21.6469 25.916 20.7982C25.6753 20.3802 24.5986 18.3029 25.3713 18.0242C25.5486 17.9609 25.7513 18.0242 25.9033 18.1255C26.6 18.6195 26.562 19.6835 27.1066 20.3042C27.854 21.1529 28.3226 20.4182 27.892 19.4935C27.6513 18.4042 25.916 17.4669 26.2073 16.3649C26.8153 15.8582 27.55 16.8209 27.9933 17.3149C29.032 18.5309 30.2986 21.2035 28.4873 22.0522L28.2973 22.1155V22.1282Z" fill="#121212" fill-opacity="0.71"/>
<defs>
<linearGradient id="paint0_linear_1710_67457" x1="18.9951" y1="2.84961" x2="18.9951" y2="35.1528" gradientUnits="userSpaceOnUse">
<stop stop-color="#FFE9AF"/>
<stop offset="1" stop-color="#FFC061"/>
</linearGradient>
<linearGradient id="paint1_linear_1710_67457" x1="18.202" y1="19.1807" x2="18.202" y2="25.364" gradientUnits="userSpaceOnUse">
<stop stop-color="#FFE9AF"/>
<stop offset="1" stop-color="#FFC061"/>
</linearGradient>
</defs>
</svg>
