<svg width="38" height="38" viewBox="0 0 38 38" fill="none" xmlns="http://www.w3.org/2000/svg">
<path d="M19.988 2.84961C24.5354 2.90028 28.842 4.49628 32.2367 8.08094C36.8474 12.9576 37.7087 20.0509 34.466 25.9156C30.3874 33.2876 21.1914 36.8849 12.9327 34.3389C2.62202 31.1723 -1.60865 19.8736 4.21802 11.0196C6.08002 8.19494 8.58802 6.09228 11.6914 4.59761C14.174 3.40694 16.796 2.87494 19.988 2.84961Z" fill="url(#paint0_linear_1710_67388)"/>
<path d="M10.6147 15.9346C10.9314 14.6679 11.6787 13.3506 12.7554 12.5906C13.3254 12.1979 14.0727 11.9953 14.6934 12.3753C15.086 12.6159 15.428 12.9453 15.732 13.2873C16.3654 13.9966 17.0114 14.8959 17.2267 15.8333C17.3914 16.5933 16.9607 16.9353 16.2134 16.7959C15.6814 16.6059 15.314 16.0613 14.9847 15.6306C14.7947 15.3773 14.1867 14.3639 13.794 14.4653C13.7307 14.4906 13.6674 14.5286 13.604 14.5793C12.8947 15.1873 12.768 16.5173 11.8054 16.8339C11.2734 16.9986 10.678 16.6186 10.6147 16.0993V15.9346Z" fill="#121212" fill-opacity="0.71"/>
<path d="M20.5707 15.5674C20.5453 15.3647 20.596 15.162 20.71 14.972L20.8113 14.8074C21.508 13.642 22.2807 12.4767 23.2687 12.2234C24.8267 11.8307 26.0047 13.2747 26.7773 14.2247C26.904 14.3894 27.0307 14.5414 27.1447 14.6554C27.4993 15.048 27.474 15.6434 27.0813 15.998C26.6887 16.3527 26.0933 16.3274 25.7387 15.9347C25.612 15.7954 25.46 15.618 25.308 15.428C24.9533 14.9974 24.1173 13.9714 23.7247 14.0727C23.5727 14.136 23.2053 14.4907 22.4327 15.7827L22.3313 15.9474C22.0653 16.3907 21.47 16.5427 21.0267 16.264C20.7607 16.0994 20.6087 15.8334 20.5707 15.5547V15.5674Z" fill="#121212" fill-opacity="0.71"/>
<path d="M18.4553 28.145C17.8727 28.145 17.328 27.9043 16.872 27.461C16.454 27.0303 16.0613 26.4857 15.7573 25.8777C15.1493 24.6617 14.744 23.2937 14.4907 21.571C14.4527 21.3303 14.4653 21.0517 14.5033 20.7603C14.63 20.0003 14.9213 19.7217 15.6687 19.6583C16.7327 19.5697 17.784 19.5063 18.848 19.443L19.3673 19.4177C19.9247 19.3797 20.482 19.3543 21.128 19.329L22.2933 19.2783C22.6227 19.2783 22.9647 19.4683 23.2053 19.785C23.4967 20.165 23.598 20.659 23.4713 21.1403C22.8887 23.395 22.116 25.0923 21.0647 26.4603C20.6847 26.9543 20.2793 27.3723 19.8613 27.6763C19.4307 28.0057 18.9367 28.1703 18.4427 28.1703L18.4553 28.145ZM20.5327 21.077C20.33 21.077 20.14 21.077 19.95 21.077C19.19 21.115 18.4173 21.153 17.6573 21.2037L16.7707 21.2543C16.6187 21.2543 16.416 21.2797 16.3147 21.419C16.2513 21.5077 16.226 21.6343 16.264 21.7863C16.5173 23.0023 16.8467 24.5223 17.6827 25.789C17.9487 26.1943 18.2147 26.3843 18.4933 26.3843C18.7467 26.3843 19.0127 26.2323 19.3167 25.8903C20.0767 25.0797 20.6593 24.0917 21.1787 22.7743C21.3053 22.4323 21.432 22.0903 21.546 21.7357L21.774 21.077H20.558H20.5327Z" fill="#121212" fill-opacity="0.71"/>
<defs>
<linearGradient id="paint0_linear_1710_67388" x1="18.9951" y1="2.84961" x2="18.9951" y2="35.1528" gradientUnits="userSpaceOnUse">
<stop stop-color="#FFE9AF"/>
<stop offset="1" stop-color="#FFC061"/>
</linearGradient>
</defs>
</svg>
