<svg width="96" height="140" viewBox="0 0 96 140" fill="none" xmlns="http://www.w3.org/2000/svg">
<rect width="96" height="140" rx="8" fill="#E2E3E9"/>
<rect x="0.5" y="0.5" width="95" height="139" rx="7.5" stroke="#8A91A8" stroke-opacity="0.2"/>
<path d="M65.1595 50.1064H30.8365C28.4515 50.1064 26.5195 52.0384 26.5195 54.4234V85.5831C26.5195 87.968 28.4515 89.9 30.8365 89.9H65.1525C67.5374 89.9 69.4694 87.968 69.4694 85.5831V54.4234C69.4694 52.0384 67.5374 50.1064 65.1525 50.1064H65.1595ZM35.0968 85.4981H30.3906V80.792H35.0968V85.4981ZM35.0968 76.7369H30.3906V72.0308H35.0968V76.7369ZM35.0968 67.9757H30.3906V63.2695H35.0968V67.9757ZM35.0968 59.2144H30.3906V54.5083H35.0968V59.2144ZM65.6054 85.5052H60.8992V80.7991H65.6054V85.5052ZM65.6054 76.744H60.8992V72.0378H65.6054V76.744ZM65.6054 67.9828H60.8992V63.2766H65.6054V67.9828ZM65.6054 59.2215H60.8992V54.5154H65.6054V59.2215Z" fill="white"/>
</svg>
