<svg width="24" height="24" viewBox="0 0 24 24" fill="none" xmlns="http://www.w3.org/2000/svg">
<path d="M20.953 1.62109H3.04528C1.80097 1.62109 0.792969 2.62909 0.792969 3.8734V20.1306C0.792969 21.3749 1.80097 22.3829 3.04528 22.3829H20.9493C22.1936 22.3829 23.2016 21.3749 23.2016 20.1306V3.8734C23.2016 2.62909 22.1936 1.62109 20.9493 1.62109H20.953ZM5.26805 20.0863H2.81266V17.6309H5.26805V20.0863ZM5.26805 15.5152H2.81266V13.0599H5.26805V15.5152ZM5.26805 10.9442H2.81266V8.48879H5.26805V10.9442ZM5.26805 6.37309H2.81266V3.91771H5.26805V6.37309ZM21.1856 20.09H18.7302V17.6346H21.1856V20.09ZM21.1856 15.5189H18.7302V13.0636H21.1856V15.5189ZM21.1856 10.9479H18.7302V8.49248H21.1856V10.9479ZM21.1856 6.37679H18.7302V3.9214H21.1856V6.37679Z" fill="#2C2F3A"/>
</svg>
