<svg width="96" height="96" viewBox="0 0 96 96" fill="none" xmlns="http://www.w3.org/2000/svg">
<rect width="96" height="96" rx="8" fill="#E2E3E9"/>
<rect x="0.5" y="0.5" width="95" height="95" rx="7.5" stroke="#8A91A8" stroke-opacity="0.2"/>
<path d="M68.5613 59.6663H68.5687V29.2713H68.5392C68.2807 27.0042 66.2795 25.2393 63.85 25.2393L39.4364 28.7839C36.9256 28.7839 34.8801 30.667 34.7324 33.0448H34.7176V57.0448C32.709 56.6313 30.3238 57.0153 28.1306 58.278C24.1355 60.582 22.3263 64.9316 24.0986 67.9962C25.8709 71.0608 30.538 71.6663 34.533 69.3623C37.6346 67.5753 39.4069 64.555 39.2223 61.8596H39.2296V42.0983C39.2961 42.0983 39.3626 42.1057 39.429 42.1057L63.85 38.5611C63.9164 38.5611 63.9829 38.5611 64.0493 38.5537V54.859C62.0407 54.4454 59.6555 54.8294 57.4623 56.0922C53.4672 58.3962 51.658 62.7457 53.4303 65.8103C55.2026 68.875 59.8696 69.4805 63.8647 67.1765C66.9663 65.3894 68.7386 62.3691 68.554 59.6737L68.5613 59.6663Z" fill="white"/>
</svg>
