<svg width="24" height="24" viewBox="0 0 24 24" fill="none" xmlns="http://www.w3.org/2000/svg">
<g clip-path="url(#clip0_1836_30366)">
<path d="M23.2787 17.8337H23.2824V2.63612H23.2676C23.1384 1.50258 22.1378 0.620117 20.923 0.620117L8.71625 2.39242C7.46087 2.39242 6.4381 3.33396 6.36425 4.52289H6.35687V16.5229C5.35256 16.3161 4.15995 16.5081 3.06333 17.1395C1.06579 18.2915 0.161177 20.4663 1.04733 21.9986C1.93348 23.5309 4.26702 23.8337 6.26456 22.6817C7.81533 21.7881 8.70148 20.278 8.60918 18.9303H8.61287V9.04966C8.6461 9.04966 8.67933 9.05335 8.71256 9.05335L20.923 7.28104C20.9563 7.28104 20.9895 7.28104 21.0227 7.27735V15.43C20.0184 15.2232 18.8258 15.4152 17.7292 16.0466C15.7316 17.1986 14.827 19.3733 15.7132 20.9057C16.5993 22.438 18.9329 22.7407 20.9304 21.5887C22.4812 20.6952 23.3673 19.185 23.275 17.8373L23.2787 17.8337Z" fill="#2C2F3A"/>
</g>
<defs>
<clipPath id="clip0_1836_30366">
<rect width="24" height="24" fill="white"/>
</clipPath>
</defs>
</svg>
