<svg width="52" height="52" viewBox="0 0 52 52" fill="none" xmlns="http://www.w3.org/2000/svg">
<circle cx="26" cy="26" r="26" fill="#D9D9D9" fill-opacity="0.5"/>
<path d="M21 18.9895C21 18.0183 21 17.5328 21.2025 17.2651C21.3789 17.0319 21.6485 16.8876 21.9404 16.8702C22.2754 16.8502 22.6795 17.1195 23.4875 17.6582L34.0031 24.6686C34.6708 25.1137 35.0046 25.3363 35.1209 25.6168C35.2227 25.8621 35.2227 26.1377 35.1209 26.383C35.0046 26.6635 34.6708 26.886 34.0031 27.3312L23.4875 34.3415C22.6795 34.8802 22.2754 35.1496 21.9404 35.1296C21.6485 35.1122 21.3789 34.9679 21.2025 34.7347C21 34.467 21 33.9814 21 33.0103V18.9895Z" fill="#121212" stroke="black" stroke-width="2" stroke-linecap="round" stroke-linejoin="round"/>
</svg>
