<svg width="195" height="176" viewBox="0 0 195 176" fill="none" xmlns="http://www.w3.org/2000/svg">
<path d="M70.606 55.0908C55.3236 55.5016 39.303 56.1064 26.0852 63.7973C15.647 69.8679 7.72328 80.3088 5.16275 92.119C2.60223 103.929 5.58951 116.926 13.421 126.135C18.6228 132.24 25.6585 136.553 33.0286 139.679C50.0641 146.925 68.9566 148.295 87.457 148.511C105.254 148.717 123.35 147.884 140.224 142.201C157.099 136.507 172.785 125.404 180.674 109.418C182.462 105.801 183.834 101.944 184.284 97.9271C185.541 86.6418 179.267 75.733 171.204 67.7569C159.348 56.0379 143.131 48.8719 126.499 47.9819C118.852 47.5711 111.194 48.4497 103.593 49.3169C89.2678 50.9601 74.8966 52.6147 60.9406 56.2205" fill="white"/>
<path d="M161.543 77.1911C164.934 93.3831 138.671 112.462 102.881 119.799C67.0916 127.136 35.2927 114.345 31.9018 98.1528C28.5108 81.9608 54.8081 68.496 90.5977 61.1588C126.387 53.8217 158.152 60.9991 161.543 77.1911Z" fill="white"/>
<path d="M160.435 77.8984C163.699 93.4628 137.425 112.302 102.546 119.457C67.4601 126.657 36.2955 114.219 32.9968 98.4949C29.6981 82.7708 55.5225 69.7282 90.6201 62.5279C125.706 55.3277 157.147 62.1742 160.435 77.8984Z" fill="#FEFEFE"/>
<path d="M159.329 78.6176C162.455 93.5544 136.192 112.154 102.213 119.115C67.8307 126.167 37.3006 114.082 34.1057 98.8262C30.9108 83.5813 56.2623 70.9495 90.6448 63.8976C125.027 56.8457 156.134 63.3613 159.329 78.6061V78.6176Z" fill="#FDFDFD"/>
<path d="M158.222 79.3251C161.22 93.6229 134.946 111.994 101.879 118.772C68.1997 125.676 38.3038 113.946 35.2128 99.1686C32.1217 84.3915 56.9887 72.1819 90.6677 65.2784C124.347 58.3748 155.119 64.5481 158.21 79.3251H158.222Z" fill="#FCFDFD"/>
<path d="M157.114 80.0438C159.974 93.714 133.712 111.846 101.555 118.441C68.58 125.208 39.3186 113.82 36.3313 99.5107C33.3325 85.2129 57.7382 73.4141 90.7136 66.6475C123.689 59.8808 154.127 65.7346 157.126 80.0324L157.114 80.0438Z" fill="#FBFCFC"/>
<path d="M156.018 80.7513C158.752 93.7939 132.478 111.686 101.232 118.099C68.9607 124.717 40.3336 113.683 37.4386 99.853C34.5436 86.0231 58.4648 74.6465 90.7366 68.0282C123.008 61.4099 153.112 66.9327 156.007 80.7513H156.018Z" fill="#FAFBFB"/>
<path d="M154.911 81.4589C157.506 93.8739 131.243 111.526 100.898 117.745C69.3295 124.215 41.3484 113.535 38.5456 100.184C35.7429 86.8334 59.1913 75.8676 90.771 69.3976C122.339 62.9277 152.108 68.1082 154.911 81.4589Z" fill="#F9FAFA"/>
<path d="M153.804 82.1778C156.272 93.9537 129.998 111.378 100.575 117.414C69.7104 123.747 42.3636 113.409 39.6647 100.526C36.9657 87.6436 59.9412 77.0999 90.8059 70.7669C121.671 64.4339 151.117 69.2949 153.815 82.1663L153.804 82.1778Z" fill="#F8F9F9"/>
<path d="M152.695 82.8852C155.025 94.0336 128.762 111.218 100.239 117.072C70.0778 123.257 43.3654 113.272 40.7702 100.869C38.1751 88.4651 60.6662 78.3323 90.8273 72.1476C120.988 65.9629 150.1 70.4816 152.695 82.8966V82.8852Z" fill="#F8F9F9"/>
<path d="M151.59 83.6039C153.793 94.1247 127.518 111.07 99.9062 116.741C70.4487 122.777 44.3706 113.147 41.8678 101.211C39.3649 89.2751 61.3831 79.5645 90.8521 73.5281C120.321 67.4918 149.087 71.6796 151.59 83.6153V83.6039Z" fill="#F7F8F8"/>
<path d="M150.492 84.3114C152.569 94.1932 126.294 110.91 99.5819 116.387C70.828 122.287 45.3842 112.998 42.9852 101.542C40.5861 90.0853 62.1314 80.7855 90.8854 74.8861C119.639 68.9867 148.082 72.8435 150.481 84.3114H150.492Z" fill="#F6F7F7"/>
<path d="M149.386 85.0302C151.324 94.2844 125.05 110.773 99.2598 116.056C71.2094 121.807 46.4 112.873 44.1048 101.884C41.8095 90.8954 62.8704 82.0178 90.9208 76.2667C118.971 70.5156 147.079 74.0416 149.386 85.0302Z" fill="#F5F6F6"/>
<path d="M148.277 85.7379C150.088 94.3645 123.814 110.614 98.9237 115.714C71.5768 121.317 47.4134 112.736 45.2104 102.227C43.0074 91.7172 63.5954 83.2503 90.9537 77.6476C118.312 72.0449 146.086 75.2285 148.277 85.7493V85.7379Z" fill="#F4F5F5"/>
<path d="M147.172 86.4453C148.845 94.4443 122.571 110.454 98.5917 115.372C71.9485 120.838 48.4194 112.599 46.3087 102.557C44.2095 92.5159 64.3246 84.4712 90.9678 79.0054C117.611 73.5396 145.062 76.4038 147.161 86.4453H147.172Z" fill="#F3F4F4"/>
<path d="M146.066 87.1642C147.611 94.5242 121.337 110.305 98.2695 115.029C72.3298 120.347 49.4351 112.462 47.4282 102.9C45.4213 93.3374 65.0635 85.7036 91.0147 80.3861C116.966 75.0687 144.071 77.6019 146.077 87.1642H146.066Z" fill="#F2F4F4"/>
<path d="M144.968 87.8715C146.375 94.6039 120.112 110.145 97.944 114.687C72.7079 119.868 50.4475 112.325 48.5445 103.23C46.6414 94.136 65.7991 86.9244 91.0468 81.7553C116.283 76.5748 143.065 78.777 144.968 87.8715Z" fill="#F1F3F3"/>
<path d="M143.863 88.5904C145.143 94.6952 118.869 109.997 97.6123 114.356C73.0682 119.388 51.4537 112.199 49.6544 103.584C47.8436 94.9577 66.54 88.1682 91.0726 83.136C115.605 78.1039 142.052 79.9752 143.863 88.5904Z" fill="#F0F2F2"/>
<path d="M112.035 103.393C107.098 106.143 110.109 104.625 105.092 106.93C100.074 109.235 95.0686 111.198 90.0744 113.252C86.4758 114.724 82.6005 116.127 78.4483 116.241C74.4345 116.344 70.8359 115.146 67.7794 113.548C61.2628 110.137 56.3724 105.082 51.9549 98.4291C49.4867 94.7091 47.3875 90.4301 46.0035 86.0026C44.5617 81.3812 43.6275 76.6001 45.0808 71.8646C46.6724 66.6612 50.2018 63.3065 54.031 59.6778C60.7092 53.3562 68.5407 48.6549 76.3606 43.8396C78.4483 42.63 79.5094 42.0024 81.5278 40.8727C81.9315 40.6445 88.4943 36.936 88.8518 36.7534C89.6246 36.3769 90.3858 36.0117 91.1355 35.658C95.2416 33.7524 98.9094 31.7783 103.719 30.6258C109.151 29.325 115.899 29.0739 122.127 31.8696C128.367 34.6652 133.027 39.1269 137.029 43.9651C142.992 51.1881 148.632 60.6021 147.444 70.7007C146.44 79.236 140.431 85.4777 133.788 90.4186C130.697 92.7236 120.489 98.6345 117.156 100.54" fill="url(#paint0_linear_1782_60098)"/>
<path d="M111.77 81.9175C109.809 85.9569 114.238 90.9435 118.425 89.2889" stroke="#414658" stroke-width="2.82989" stroke-linecap="round" stroke-linejoin="round"/>
<path d="M103.357 73.8715C104.34 72.7459 103.612 70.5311 101.732 68.9245C99.8523 67.3178 97.5316 66.9278 96.5489 68.0534C95.5662 69.1789 96.2936 71.3937 98.1736 73.0004C100.054 74.607 102.374 74.997 103.357 73.8715Z" stroke="white" stroke-width="2.27076" stroke-miterlimit="10"/>
<path d="M113.408 68.3958C111.886 70.5296 111.586 74.2153 114.423 75.4363C115.899 76.0638 117.976 75.9383 119.29 74.9798" stroke="#414658" stroke-width="2.82989" stroke-linecap="round" stroke-linejoin="round"/>
<path d="M124.757 81.4497C123.176 83.5265 122.381 86.79 124.561 87.4404C125.691 87.7713 127.444 87.3605 128.667 86.3335" stroke="#414658" stroke-width="2.82989" stroke-linecap="round" stroke-linejoin="round"/>
<path d="M57.4925 85.7858C56.6044 79.3729 61.6793 73.6447 66.5466 70.1529C78.1958 61.7774 91.3099 55.2618 103.559 47.7991C109.003 44.4785 115.554 41.8997 121.69 43.657" stroke="white" stroke-width="2.27076" stroke-linecap="round" stroke-linejoin="round"/>
<defs>
<linearGradient id="paint0_linear_1782_60098" x1="92.7733" y1="66.8552" x2="132.379" y2="142.529" gradientUnits="userSpaceOnUse">
<stop stop-color="#8CE3FF"/>
<stop offset="1" stop-color="#57C2FF"/>
</linearGradient>
</defs>
</svg>
