<svg width="24" height="24" viewBox="0 0 24 24" fill="none" xmlns="http://www.w3.org/2000/svg">
<path d="M20.597 3.10846C14.8591 2.75031 9.13972 2.75031 3.40187 3.10846C2.11326 3.19338 0.928026 4.33061 0.802488 5.61923C0.414796 9.87646 0.414796 14.1226 0.802488 18.3798C0.924334 19.6685 2.11326 20.8057 3.40187 20.8906C9.13972 21.2488 14.8591 21.2488 20.597 20.8906C21.8856 20.8057 23.0708 19.6685 23.1963 18.3798C23.584 14.1226 23.584 9.87646 23.1963 5.61923C23.0745 4.33061 21.8856 3.19338 20.597 3.10846ZM15.7046 12.5829C13.9102 13.5688 12.112 14.5657 10.336 15.5442C9.89295 15.7878 9.35018 15.4629 9.3428 14.9534C9.32433 12.9854 9.32433 11.0137 9.3428 9.04569C9.34649 8.53615 9.89295 8.21123 10.336 8.45492C12.1083 9.43338 13.9065 10.4303 15.7046 11.4162C16.1699 11.6709 16.1699 12.3318 15.7046 12.5866V12.5829Z" fill="#2C2F3A"/>
</svg>
