<svg width="53" height="52" viewBox="0 0 53 52" fill="none" xmlns="http://www.w3.org/2000/svg">
<path d="M24.8468 38.4904C23.6196 38.688 23.214 38.2097 23.0996 37.1073C22.8604 34.7361 23.0788 32.3441 22.5172 29.9833C22.4028 29.5257 25.1276 25.9481 25.6372 25.8337C25.7724 25.8025 25.97 25.8337 26.1052 25.8961C26.8748 26.2289 28.2996 28.7145 28.154 29.4217C27.7484 31.3977 28.2996 33.3425 28.5596 35.2873C28.934 38.1681 28.778 38.3865 24.8572 38.4697L24.8468 38.4904Z" fill="#A7ACBD"/>
<path d="M51.5325 26.8942C51.5221 26.6446 51.5325 26.3846 51.5741 26.1142C51.7093 25.2094 52.0629 24.3462 51.9693 23.4102C51.7925 21.7982 51.6157 20.1654 51.0541 18.6262C50.2741 16.4526 48.2253 15.0694 47.7781 12.7918C47.3725 10.7014 47.2581 8.97502 45.4797 7.74782C44.6269 7.16542 43.7013 6.72862 42.7341 6.35422C41.6525 5.93822 40.3525 4.23262 39.2709 3.84782C38.4493 3.55662 37.5653 3.56702 36.7021 3.48382C35.7245 3.40062 34.9653 3.60862 34.0813 3.20302C31.7621 2.14222 29.2453 1.34142 26.6453 1.58062C24.0453 1.81982 21.9861 3.21342 19.6669 4.10782C18.2525 4.64862 16.5157 4.63822 15.1533 5.30382C13.7909 5.96942 13.0005 7.70622 11.5965 8.14302C10.9829 8.33022 10.3277 8.29902 9.69326 8.37182C6.28206 8.75662 6.06366 13.2078 5.49166 15.5998C5.16926 16.9622 3.31806 18.907 2.48606 19.9678C1.55006 21.1638 0.842863 22.6094 1.08206 24.159C1.31086 25.7086 2.08046 27.1126 2.33006 28.683C2.46526 29.515 2.14286 30.607 2.30926 31.4182C2.49646 32.2918 3.61966 33.4358 3.92126 34.299C4.48286 35.963 3.84846 36.9614 4.05646 38.6774C4.36846 41.215 6.12606 43.659 8.44526 44.8238C10.6501 45.9262 14.9453 46.207 16.1829 48.4534C17.0773 50.0758 18.9181 50.367 20.6341 50.3982C22.5685 50.4294 24.8981 50.5126 26.7493 49.9926C27.7373 49.7118 28.7669 49.1086 29.7965 48.9838C30.6493 48.8694 31.6061 49.0878 32.4693 49.0878C34.3621 49.0878 36.1717 48.7758 37.7837 47.7462C38.8965 47.0286 40.3213 45.4062 41.5277 44.8446C43.7325 43.815 46.0621 43.5654 47.2477 41.3502C47.8821 40.175 48.1213 38.1886 48.6829 36.9822C49.5877 35.0686 51.0853 33.4774 51.7301 31.4286C52.2501 29.7854 51.6261 28.5062 51.5429 26.8838L51.5325 26.8942ZM5.77246 15.9222C5.77246 15.9222 5.77246 15.9222 5.77246 15.9326V15.9222ZM18.2837 4.53422C18.2837 4.53422 18.2629 4.53422 18.2525 4.54462C18.2525 4.54462 18.2525 4.54462 18.2525 4.53422C18.2629 4.53422 18.2733 4.53422 18.2837 4.53422ZM13.4789 7.27982V7.30062C13.4789 7.30062 13.4581 7.30062 13.4477 7.30062C13.4477 7.30062 13.4581 7.27982 13.4685 7.27982H13.4789ZM47.7989 13.9046C47.8197 13.9774 47.8301 14.0502 47.8613 14.123C47.8197 14.0502 47.8093 13.9774 47.7989 13.9046Z" fill="#A7ACBD"/>
<rect x="24.5" y="17" width="4" height="12" rx="2" fill="white"/>
<rect x="24.5" y="31" width="4" height="4" rx="2" fill="white"/>
</svg>
