<svg width="30" height="25" viewBox="0 0 30 25" fill="none" xmlns="http://www.w3.org/2000/svg">
<path d="M12 15V17M15.2 21.5H8.8C7.11984 21.5 6.27976 21.5 5.63803 21.173C5.07354 20.8854 4.6146 20.4265 4.32698 19.862C4 19.2202 4 18.3802 4 16.7V15.3C4 13.6198 4 12.7798 4.32698 12.138C4.6146 11.5735 5.07354 11.1146 5.63803 10.827C6.27976 10.5 7.11984 10.5 8.8 10.5H15.2C16.8802 10.5 17.7202 10.5 18.362 10.827C18.9265 11.1146 19.3854 11.5735 19.673 12.138C20 12.7798 20 13.6198 20 15.3V16.7C20 18.3802 20 19.2202 19.673 19.862C19.3854 20.4265 18.9265 20.8854 18.362 21.173C17.7202 21.5 16.8802 21.5 15.2 21.5Z" stroke="#121212" stroke-width="2" stroke-linecap="round" stroke-linejoin="round"/>
<path d="M26.9793 10C27.146 7.83333 26.3793 3.5 21.9793 3.5C17.5793 3.5 16.8121 7.83333 16.9785 10" stroke="#121212" stroke-width="2" stroke-linecap="round"/>
</svg>
